Dakdam-B_orig.ufo
<glyph name="uni1783" format="2">
  <advance width="2138"/>
  <unicode hex="1783"/>
  <anchor x="1950" y="0" name="L"/>
  <anchor x="1950" y="1440" name="U"/>
  <outline>
    <contour>
      <point x="1275" y="202" type="curve"/>
      <point x="1275" y="910" type="line" smooth="yes"/>
      <point x="1275" y="975"/>
      <point x="1054" y="1084"/>
      <point x="934" y="1124" type="curve" smooth="yes"/>
      <point x="932" y="1125"/>
      <point x="931" y="1126"/>
      <point x="931" y="1128" type="curve"/>
      <point x="934" y="1143"/>
      <point x="941" y="1165"/>
      <point x="959" y="1177" type="curve" smooth="yes"/>
      <point x="967" y="1183"/>
      <point x="977" y="1186"/>
      <point x="987" y="1186" type="curve" smooth="yes"/>
      <point x="1046" y="1186"/>
      <point x="1120" y="1093"/>
      <point x="1215" y="1093" type="curve" smooth="yes"/>
      <point x="1296" y="1093"/>
      <point x="1365" y="1219"/>
      <point x="1396" y="1305" type="curve"/>
      <point x="1373" y="1295"/>
      <point x="1349" y="1293"/>
      <point x="1326" y="1293" type="curve" smooth="yes"/>
      <point x="1271" y="1293"/>
      <point x="1075" y="1440"/>
      <point x="1003" y="1440" type="curve" smooth="yes"/>
      <point x="919" y="1440"/>
      <point x="816" y="1165"/>
      <point x="791" y="1061" type="curve"/>
      <point x="791" y="1055"/>
      <point x="793" y="1050"/>
      <point x="798" y="1049" type="curve" smooth="yes"/>
      <point x="903" y="1037"/>
      <point x="975" y="963"/>
      <point x="975" y="919" type="curve" smooth="yes"/>
      <point x="975" y="206" type="line" smooth="yes"/>
      <point x="975" y="161"/>
      <point x="847" y="131"/>
      <point x="787" y="131" type="curve" smooth="yes"/>
      <point x="727" y="131"/>
      <point x="600" y="161"/>
      <point x="600" y="206" type="curve" smooth="yes"/>
      <point x="600" y="1332" type="line"/>
      <point x="570" y="1408"/>
      <point x="462" y="1440"/>
      <point x="347" y="1440" type="curve"/>
      <point x="181" y="1409"/>
      <point x="73" y="1279"/>
      <point x="73" y="1150" type="curve" smooth="yes"/>
      <point x="73" y="1026"/>
      <point x="170" y="908"/>
      <point x="300" y="885" type="curve"/>
      <point x="300" y="187" type="line" smooth="yes"/>
      <point x="300" y="94"/>
      <point x="581" y="0"/>
      <point x="787" y="0" type="curve" smooth="yes"/>
      <point x="896" y="0"/>
      <point x="1026" y="26"/>
      <point x="1125" y="65" type="curve"/>
      <point x="1223" y="26"/>
      <point x="1353" y="0"/>
      <point x="1462" y="0" type="curve" smooth="yes"/>
      <point x="1669" y="0"/>
      <point x="1950" y="94"/>
      <point x="1950" y="187" type="curve" smooth="yes"/>
      <point x="1950" y="910" type="line" smooth="yes"/>
      <point x="1950" y="975"/>
      <point x="1729" y="1084"/>
      <point x="1609" y="1124" type="curve" smooth="yes"/>
      <point x="1607" y="1125"/>
      <point x="1606" y="1126"/>
      <point x="1606" y="1128" type="curve"/>
      <point x="1609" y="1143"/>
      <point x="1616" y="1165"/>
      <point x="1634" y="1177" type="curve" smooth="yes"/>
      <point x="1642" y="1183"/>
      <point x="1652" y="1186"/>
      <point x="1662" y="1186" type="curve" smooth="yes"/>
      <point x="1721" y="1186"/>
      <point x="1795" y="1093"/>
      <point x="1890" y="1093" type="curve" smooth="yes"/>
      <point x="1971" y="1093"/>
      <point x="2040" y="1219"/>
      <point x="2071" y="1305" type="curve"/>
      <point x="2048" y="1295"/>
      <point x="2024" y="1293"/>
      <point x="2001" y="1293" type="curve" smooth="yes"/>
      <point x="1946" y="1293"/>
      <point x="1750" y="1440"/>
      <point x="1678" y="1440" type="curve" smooth="yes"/>
      <point x="1594" y="1440"/>
      <point x="1491" y="1165"/>
      <point x="1466" y="1061" type="curve"/>
      <point x="1466" y="1055"/>
      <point x="1468" y="1050"/>
      <point x="1473" y="1049" type="curve" smooth="yes"/>
      <point x="1578" y="1037"/>
      <point x="1650" y="963"/>
      <point x="1650" y="919" type="curve" smooth="yes"/>
      <point x="1650" y="206" type="line" smooth="yes"/>
      <point x="1650" y="161"/>
      <point x="1522" y="131"/>
      <point x="1462" y="131" type="curve" smooth="yes"/>
      <point x="1403" y="131"/>
      <point x="1281" y="159"/>
    </contour>
    <contour>
      <point x="195" y="1150" type="curve" smooth="yes"/>
      <point x="195" y="1221"/>
      <point x="249" y="1261"/>
      <point x="300" y="1283" type="curve"/>
      <point x="300" y="982" type="line"/>
      <point x="234" y="1001"/>
      <point x="195" y="1077"/>
    </contour>
  </outline>
</glyph>
<glyph name="uni1786" format="2">
  <advance width="1538"/>
  <unicode hex="1786"/>
  <anchor x="1350" y="0" name="L"/>
  <anchor x="1350" y="1440" name="U"/>
  <outline>
    <contour>
      <point x="600" y="950" type="line"/>
      <point x="447" y="966"/>
      <point x="323" y="1027"/>
      <point x="323" y="1084" type="curve" smooth="yes"/>
      <point x="323" y="1105"/>
      <point x="332" y="1129"/>
      <point x="351" y="1153" type="curve" smooth="yes"/>
      <point x="376" y="1185"/>
      <point x="400" y="1206"/>
      <point x="435" y="1206" type="curve" smooth="yes"/>
      <point x="504" y="1206"/>
      <point x="707" y="1064"/>
      <point x="792" y="1064" type="curve"/>
      <point x="829" y="1064"/>
      <point x="860" y="1118"/>
      <point x="879" y="1142" type="curve" smooth="yes"/>
      <point x="903" y="1171"/>
      <point x="932" y="1206"/>
      <point x="963" y="1206" type="curve" smooth="yes"/>
      <point x="1032" y="1206"/>
      <point x="1205" y="1063"/>
      <point x="1290" y="1063" type="curve" smooth="yes"/>
      <point x="1371" y="1063"/>
      <point x="1440" y="1189"/>
      <point x="1471" y="1275" type="curve"/>
      <point x="1448" y="1265"/>
      <point x="1424" y="1263"/>
      <point x="1401" y="1263" type="curve" smooth="yes"/>
      <point x="1336" y="1263"/>
      <point x="1091" y="1440"/>
      <point x="1019" y="1440" type="curve" smooth="yes"/>
      <point x="995" y="1440"/>
      <point x="958" y="1419"/>
      <point x="924" y="1387" type="curve" smooth="yes"/>
      <point x="897" y="1361"/>
      <point x="867" y="1331"/>
      <point x="839" y="1298" type="curve"/>
      <point x="760" y="1323"/>
      <point x="565" y="1440"/>
      <point x="501" y="1440" type="curve" smooth="yes"/>
      <point x="337" y="1440"/>
      <point x="215" y="1235"/>
      <point x="142" y="1064" type="curve" smooth="yes"/>
      <point x="139" y="1057"/>
      <point x="138" y="1035"/>
      <point x="138" y="1029" type="curve" smooth="yes"/>
      <point x="138" y="958"/>
      <point x="227" y="902"/>
      <point x="300" y="890" type="curve"/>
      <point x="300" y="469" type="line"/>
      <point x="191" y="454"/>
      <point x="75" y="356"/>
      <point x="75" y="236" type="curve" smooth="yes"/>
      <point x="75" y="146"/>
      <point x="176" y="37"/>
      <point x="360" y="0" type="curve"/>
      <point x="446" y="0"/>
      <point x="570" y="22"/>
      <point x="600" y="109" type="curve"/>
      <point x="600" y="300" type="line"/>
      <point x="716" y="281"/>
      <point x="829" y="0"/>
      <point x="1042" y="0" type="curve" smooth="yes"/>
      <point x="1256" y="0"/>
      <point x="1350" y="116"/>
      <point x="1350" y="217" type="curve"/>
      <point x="1350" y="862" type="line"/>
      <point x="1320" y="938"/>
      <point x="1212" y="970"/>
      <point x="1097" y="970" type="curve"/>
      <point x="931" y="939"/>
      <point x="823" y="809"/>
      <point x="823" y="680" type="curve" smooth="yes"/>
      <point x="823" y="556"/>
      <point x="920" y="438"/>
      <point x="1050" y="415" type="curve"/>
      <point x="1050" y="251" type="line" smooth="yes"/>
      <point x="1050" y="202"/>
      <point x="1042" y="169"/>
      <point x="1016" y="169" type="curve" smooth="yes"/>
      <point x="911" y="169"/>
      <point x="769" y="446"/>
      <point x="600" y="469" type="curve"/>
    </contour>
    <contour>
      <point x="945" y="680" type="curve" smooth="yes"/>
      <point x="945" y="751"/>
      <point x="999" y="791"/>
      <point x="1050" y="813" type="curve"/>
      <point x="1050" y="512" type="line"/>
      <point x="984" y="531"/>
      <point x="945" y="607"/>
    </contour>
    <contour>
      <point x="214" y="244" type="curve" smooth="yes"/>
      <point x="214" y="289"/>
      <point x="255" y="325"/>
      <point x="300" y="330" type="curve"/>
      <point x="300" y="149" type="line"/>
      <point x="259" y="160"/>
      <point x="214" y="199"/>
    </contour>
  </outline>
</glyph>
<glyph name="uni1788" format="2">
  <advance width="2625"/>
  <unicode hex="1788"/>
  <anchor x="2437" y="0" name="L"/>
  <anchor x="2437" y="1440" name="U"/>
  <outline>
    <contour>
      <point x="262" y="1252" type="curve"/>
      <point x="262" y="108" type="line"/>
      <point x="292" y="32"/>
      <point x="400" y="0"/>
      <point x="515" y="0" type="curve"/>
      <point x="681" y="31"/>
      <point x="789" y="161"/>
      <point x="789" y="290" type="curve" smooth="yes"/>
      <point x="789" y="414"/>
      <point x="692" y="532"/>
      <point x="562" y="555" type="curve"/>
      <point x="562" y="1234" type="line" smooth="yes"/>
      <point x="562" y="1279"/>
      <point x="652" y="1309"/>
      <point x="712" y="1309" type="curve" smooth="yes"/>
      <point x="772" y="1309"/>
      <point x="862" y="1279"/>
      <point x="862" y="1234" type="curve" smooth="yes"/>
      <point x="862" y="187" type="line" smooth="yes"/>
      <point x="862" y="94"/>
      <point x="1106" y="0"/>
      <point x="1312" y="0" type="curve" smooth="yes"/>
      <point x="1395" y="0"/>
      <point x="1519" y="19"/>
      <point x="1612" y="56" type="curve"/>
      <point x="1706" y="19"/>
      <point x="1841" y="0"/>
      <point x="1950" y="0" type="curve" smooth="yes"/>
      <point x="2156" y="0"/>
      <point x="2437" y="94"/>
      <point x="2437" y="187" type="curve" smooth="yes"/>
      <point x="2437" y="910" type="line" smooth="yes"/>
      <point x="2437" y="975"/>
      <point x="2216" y="1084"/>
      <point x="2096" y="1124" type="curve" smooth="yes"/>
      <point x="2094" y="1125"/>
      <point x="2093" y="1126"/>
      <point x="2093" y="1128" type="curve"/>
      <point x="2096" y="1143"/>
      <point x="2103" y="1165"/>
      <point x="2121" y="1177" type="curve" smooth="yes"/>
      <point x="2129" y="1183"/>
      <point x="2139" y="1186"/>
      <point x="2149" y="1186" type="curve" smooth="yes"/>
      <point x="2208" y="1186"/>
      <point x="2282" y="1093"/>
      <point x="2377" y="1093" type="curve" smooth="yes"/>
      <point x="2458" y="1093"/>
      <point x="2527" y="1219"/>
      <point x="2558" y="1305" type="curve"/>
      <point x="2535" y="1295"/>
      <point x="2511" y="1293"/>
      <point x="2488" y="1293" type="curve" smooth="yes"/>
      <point x="2433" y="1293"/>
      <point x="2237" y="1440"/>
      <point x="2165" y="1440" type="curve" smooth="yes"/>
      <point x="2081" y="1440"/>
      <point x="1978" y="1165"/>
      <point x="1953" y="1061" type="curve"/>
      <point x="1953" y="1055"/>
      <point x="1955" y="1050"/>
      <point x="1960" y="1049" type="curve" smooth="yes"/>
      <point x="2065" y="1037"/>
      <point x="2137" y="963"/>
      <point x="2137" y="919" type="curve" smooth="yes"/>
      <point x="2137" y="206" type="line" smooth="yes"/>
      <point x="2137" y="161"/>
      <point x="2010" y="131"/>
      <point x="1950" y="131" type="curve" smooth="yes"/>
      <point x="1890" y="131"/>
      <point x="1762" y="161"/>
      <point x="1762" y="206" type="curve" smooth="yes"/>
      <point x="1762" y="910" type="line" smooth="yes"/>
      <point x="1762" y="975"/>
      <point x="1541" y="1084"/>
      <point x="1421" y="1124" type="curve" smooth="yes"/>
      <point x="1419" y="1125"/>
      <point x="1418" y="1126"/>
      <point x="1418" y="1128" type="curve"/>
      <point x="1421" y="1143"/>
      <point x="1428" y="1165"/>
      <point x="1446" y="1177" type="curve" smooth="yes"/>
      <point x="1454" y="1183"/>
      <point x="1464" y="1186"/>
      <point x="1474" y="1186" type="curve" smooth="yes"/>
      <point x="1533" y="1186"/>
      <point x="1607" y="1093"/>
      <point x="1702" y="1093" type="curve" smooth="yes"/>
      <point x="1783" y="1093"/>
      <point x="1852" y="1219"/>
      <point x="1883" y="1305" type="curve"/>
      <point x="1860" y="1295"/>
      <point x="1836" y="1293"/>
      <point x="1813" y="1293" type="curve" smooth="yes"/>
      <point x="1758" y="1293"/>
      <point x="1562" y="1440"/>
      <point x="1490" y="1440" type="curve" smooth="yes"/>
      <point x="1406" y="1440"/>
      <point x="1303" y="1165"/>
      <point x="1278" y="1061" type="curve"/>
      <point x="1278" y="1055"/>
      <point x="1280" y="1050"/>
      <point x="1285" y="1049" type="curve" smooth="yes"/>
      <point x="1390" y="1037"/>
      <point x="1462" y="963"/>
      <point x="1462" y="919" type="curve" smooth="yes"/>
      <point x="1462" y="206" type="line" smooth="yes"/>
      <point x="1462" y="161"/>
      <point x="1372" y="131"/>
      <point x="1312" y="131" type="curve" smooth="yes"/>
      <point x="1252" y="131"/>
      <point x="1162" y="161"/>
      <point x="1162" y="206" type="curve" smooth="yes"/>
      <point x="1162" y="1252" type="line" smooth="yes"/>
      <point x="1162" y="1346"/>
      <point x="919" y="1440"/>
      <point x="712" y="1440" type="curve" smooth="yes"/>
      <point x="506" y="1440"/>
      <point x="262" y="1346"/>
    </contour>
    <contour>
      <point x="667" y="290" type="curve" smooth="yes"/>
      <point x="667" y="219"/>
      <point x="613" y="179"/>
      <point x="562" y="157" type="curve"/>
      <point x="562" y="458" type="line"/>
      <point x="628" y="439"/>
      <point x="667" y="363"/>
    </contour>
  </outline>
</glyph>
<glyph name="uni178F" format="2">
  <advance width="1500"/>
  <unicode hex="178F"/>
  <anchor x="1312" y="0" name="L"/>
  <anchor x="1312" y="1440" name="U"/>
  <outline>
    <contour>
      <point x="562" y="555" type="curve"/>
      <point x="562" y="800" type="line" smooth="yes"/>
      <point x="562" y="856"/>
      <point x="694" y="884"/>
      <point x="787" y="884" type="curve" smooth="yes"/>
      <point x="881" y="884"/>
      <point x="1012" y="856"/>
      <point x="1012" y="800" type="curve" smooth="yes"/>
      <point x="1012" y="0" type="line"/>
      <point x="1312" y="0" type="line"/>
      <point x="1312" y="819" type="line" smooth="yes"/>
      <point x="1312" y="931"/>
      <point x="1012" y="1025"/>
      <point x="787" y="1025" type="curve" smooth="yes"/>
      <point x="562" y="1025"/>
      <point x="262" y="941"/>
      <point x="262" y="819" type="curve" smooth="yes"/>
      <point x="262" y="108" type="line"/>
      <point x="292" y="32"/>
      <point x="400" y="0"/>
      <point x="515" y="0" type="curve"/>
      <point x="681" y="31"/>
      <point x="789" y="161"/>
      <point x="789" y="290" type="curve" smooth="yes"/>
      <point x="789" y="414"/>
      <point x="692" y="532"/>
    </contour>
    <contour>
      <point x="754" y="1064" type="curve" smooth="yes"/>
      <point x="791" y="1064"/>
      <point x="822" y="1118"/>
      <point x="841" y="1142" type="curve" smooth="yes"/>
      <point x="865" y="1171"/>
      <point x="894" y="1206"/>
      <point x="925" y="1206" type="curve" smooth="yes"/>
      <point x="994" y="1206"/>
      <point x="1167" y="1064"/>
      <point x="1252" y="1064" type="curve" smooth="yes"/>
      <point x="1333" y="1064"/>
      <point x="1402" y="1199"/>
      <point x="1433" y="1285" type="curve"/>
      <point x="1410" y="1275"/>
      <point x="1386" y="1273"/>
      <point x="1363" y="1273" type="curve" smooth="yes"/>
      <point x="1298" y="1273"/>
      <point x="1053" y="1440"/>
      <point x="981" y="1440" type="curve" smooth="yes"/>
      <point x="957" y="1440"/>
      <point x="920" y="1419"/>
      <point x="886" y="1387" type="curve" smooth="yes"/>
      <point x="859" y="1361"/>
      <point x="829" y="1331"/>
      <point x="801" y="1298" type="curve"/>
      <point x="722" y="1323"/>
      <point x="527" y="1440"/>
      <point x="463" y="1440" type="curve" smooth="yes"/>
      <point x="299" y="1440"/>
      <point x="177" y="1235"/>
      <point x="104" y="1064" type="curve" smooth="yes"/>
      <point x="101" y="1057"/>
      <point x="100" y="1035"/>
      <point x="100" y="1029" type="curve" smooth="yes"/>
      <point x="100" y="958"/>
      <point x="178" y="902"/>
      <point x="251" y="890" type="curve"/>
      <point x="432" y="994" type="line"/>
      <point x="349" y="1010"/>
      <point x="285" y="1027"/>
      <point x="285" y="1084" type="curve" smooth="yes"/>
      <point x="285" y="1105"/>
      <point x="294" y="1129"/>
      <point x="313" y="1153" type="curve" smooth="yes"/>
      <point x="338" y="1185"/>
      <point x="362" y="1206"/>
      <point x="397" y="1206" type="curve" smooth="yes"/>
      <point x="466" y="1206"/>
      <point x="669" y="1064"/>
    </contour>
    <contour>
      <point x="667" y="290" type="curve" smooth="yes"/>
      <point x="667" y="219"/>
      <point x="613" y="179"/>
      <point x="562" y="157" type="curve"/>
      <point x="562" y="458" type="line"/>
      <point x="628" y="439"/>
      <point x="667" y="363"/>
    </contour>
  </outline>
</glyph>
<glyph name="uni1790" format="2">
  <advance width="1500"/>
  <unicode hex="1790"/>
  <anchor x="1312" y="0" name="L"/>
  <anchor x="1312" y="1665" name="U"/>
  <outline>
    <contour>
      <point x="975" y="1256" type="curve"/>
      <point x="896" y="1281"/>
      <point x="527" y="1440"/>
      <point x="463" y="1440" type="curve" smooth="yes"/>
      <point x="299" y="1440"/>
      <point x="177" y="1235"/>
      <point x="104" y="1064" type="curve" smooth="yes"/>
      <point x="101" y="1057"/>
      <point x="100" y="1035"/>
      <point x="100" y="1029" type="curve" smooth="yes"/>
      <point x="100" y="958"/>
      <point x="189" y="902"/>
      <point x="262" y="890" type="curve"/>
      <point x="262" y="206" type="line" smooth="yes"/>
      <point x="262" y="94"/>
      <point x="562" y="0"/>
      <point x="787" y="0" type="curve" smooth="yes"/>
      <point x="1012" y="0"/>
      <point x="1312" y="94"/>
      <point x="1312" y="206" type="curve" smooth="yes"/>
      <point x="1312" y="782" type="line"/>
      <point x="1282" y="858"/>
      <point x="1174" y="890"/>
      <point x="1059" y="890" type="curve"/>
      <point x="893" y="859"/>
      <point x="785" y="729"/>
      <point x="785" y="600" type="curve" smooth="yes"/>
      <point x="785" y="476"/>
      <point x="882" y="358"/>
      <point x="1012" y="335" type="curve"/>
      <point x="1012" y="225" type="line" smooth="yes"/>
      <point x="1012" y="169"/>
      <point x="881" y="131"/>
      <point x="787" y="131" type="curve" smooth="yes"/>
      <point x="694" y="131"/>
      <point x="562" y="169"/>
      <point x="562" y="225" type="curve" smooth="yes"/>
      <point x="562" y="950" type="line"/>
      <point x="409" y="966"/>
      <point x="285" y="1027"/>
      <point x="285" y="1084" type="curve" smooth="yes"/>
      <point x="285" y="1105"/>
      <point x="294" y="1129"/>
      <point x="313" y="1153" type="curve" smooth="yes"/>
      <point x="338" y="1185"/>
      <point x="362" y="1206"/>
      <point x="397" y="1206" type="curve" smooth="yes"/>
      <point x="466" y="1206"/>
      <point x="839" y="1024"/>
      <point x="924" y="1024" type="curve" smooth="yes"/>
      <point x="1127" y="1024"/>
      <point x="1312" y="1207"/>
      <point x="1312" y="1372" type="curve" smooth="yes"/>
      <point x="1312" y="1462"/>
      <point x="1297" y="1515"/>
      <point x="1226" y="1601" type="curve" smooth="yes"/>
      <point x="1159" y="1684"/>
      <point x="1057" y="1740"/>
      <point x="934" y="1740" type="curve" smooth="yes"/>
      <point x="810" y="1740"/>
      <point x="784" y="1680"/>
      <point x="784" y="1627" type="curve" smooth="yes"/>
      <point x="784" y="1575"/>
      <point x="847" y="1519"/>
      <point x="960" y="1501" type="curve" smooth="yes"/>
      <point x="1120" y="1475"/>
      <point x="1167" y="1444"/>
      <point x="1167" y="1365" type="curve" smooth="yes"/>
      <point x="1167" y="1290"/>
      <point x="1050" y="1256"/>
    </contour>
    <contour>
      <point x="907" y="600" type="curve" smooth="yes"/>
      <point x="907" y="671"/>
      <point x="961" y="711"/>
      <point x="1012" y="733" type="curve"/>
      <point x="1012" y="432" type="line"/>
      <point x="946" y="451"/>
      <point x="907" y="527"/>
    </contour>
  </outline>
</glyph>
<glyph name="uni1798" format="2">
  <advance width="1500"/>
  <unicode hex="1798"/>
  <anchor x="1312" y="0" name="L"/>
  <anchor x="1312" y="1440" name="U"/>
  <outline>
    <contour>
      <point x="787" y="131" type="curve" smooth="yes"/>
      <point x="694" y="131"/>
      <point x="562" y="169"/>
      <point x="562" y="225" type="curve" smooth="yes"/>
      <point x="562" y="412" type="line"/>
      <point x="1012" y="412" type="line"/>
      <point x="1012" y="225" type="line" smooth="yes"/>
      <point x="1012" y="169"/>
      <point x="881" y="131"/>
    </contour>
    <contour>
      <point x="1012" y="884" type="line"/>
      <point x="1012" y="562" type="line"/>
      <point x="562" y="562" type="line"/>
      <point x="562" y="839" type="line"/>
      <point x="262" y="877" type="line"/>
      <point x="262" y="206" type="line" smooth="yes"/>
      <point x="262" y="94"/>
      <point x="562" y="0"/>
      <point x="787" y="0" type="curve" smooth="yes"/>
      <point x="1012" y="0"/>
      <point x="1312" y="94"/>
      <point x="1312" y="206" type="curve" smooth="yes"/>
      <point x="1312" y="839" type="line"/>
    </contour>
    <contour>
      <point x="1312" y="745" type="line"/>
      <point x="1312" y="930" type="line" smooth="yes"/>
      <point x="1312" y="995"/>
      <point x="1091" y="1094"/>
      <point x="971" y="1134" type="curve" smooth="yes"/>
      <point x="969" y="1135"/>
      <point x="968" y="1136"/>
      <point x="968" y="1138" type="curve"/>
      <point x="971" y="1153"/>
      <point x="978" y="1165"/>
      <point x="996" y="1177" type="curve" smooth="yes"/>
      <point x="1004" y="1183"/>
      <point x="1014" y="1186"/>
      <point x="1024" y="1186" type="curve" smooth="yes"/>
      <point x="1113" y="1186"/>
      <point x="1177" y="1105"/>
      <point x="1282" y="1105" type="curve" smooth="yes"/>
      <point x="1358" y="1105"/>
      <point x="1410" y="1260"/>
      <point x="1433" y="1346" type="curve"/>
      <point x="1410" y="1336"/>
      <point x="1386" y="1334"/>
      <point x="1363" y="1334" type="curve" smooth="yes"/>
      <point x="1308" y="1334"/>
      <point x="1112" y="1440"/>
      <point x="1040" y="1440" type="curve" smooth="yes"/>
      <point x="956" y="1440"/>
      <point x="853" y="1165"/>
      <point x="828" y="1061" type="curve"/>
      <point x="828" y="1055"/>
      <point x="830" y="1050"/>
      <point x="835" y="1049" type="curve" smooth="yes"/>
      <point x="940" y="1037"/>
      <point x="1012" y="963"/>
      <point x="1012" y="919" type="curve" smooth="yes"/>
      <point x="1012" y="745" type="line"/>
    </contour>
    <contour>
      <point x="562" y="745" type="line"/>
      <point x="562" y="930" type="line" smooth="yes"/>
      <point x="562" y="995"/>
      <point x="341" y="1094"/>
      <point x="221" y="1134" type="curve" smooth="yes"/>
      <point x="219" y="1135"/>
      <point x="218" y="1136"/>
      <point x="218" y="1138" type="curve"/>
      <point x="221" y="1153"/>
      <point x="228" y="1165"/>
      <point x="246" y="1177" type="curve" smooth="yes"/>
      <point x="254" y="1183"/>
      <point x="264" y="1186"/>
      <point x="274" y="1186" type="curve" smooth="yes"/>
      <point x="363" y="1186"/>
      <point x="427" y="1105"/>
      <point x="532" y="1105" type="curve" smooth="yes"/>
      <point x="608" y="1105"/>
      <point x="660" y="1260"/>
      <point x="683" y="1346" type="curve"/>
      <point x="660" y="1336"/>
      <point x="636" y="1334"/>
      <point x="613" y="1334" type="curve" smooth="yes"/>
      <point x="558" y="1334"/>
      <point x="362" y="1440"/>
      <point x="290" y="1440" type="curve" smooth="yes"/>
      <point x="206" y="1440"/>
      <point x="103" y="1165"/>
      <point x="78" y="1061" type="curve"/>
      <point x="78" y="1055"/>
      <point x="80" y="1050"/>
      <point x="85" y="1049" type="curve" smooth="yes"/>
      <point x="190" y="1037"/>
      <point x="262" y="963"/>
      <point x="262" y="919" type="curve" smooth="yes"/>
      <point x="262" y="745" type="line"/>
    </contour>
  </outline>
</glyph>
<glyph name="uni179A" format="2">
  <advance width="788"/>
  <unicode hex="179A"/>
  <anchor x="394" y="0" name="M"/>
  <anchor x="600" y="1440" name="U"/>
  <outline>
    <contour>
      <point x="600" y="665" type="line"/>
      <point x="600" y="930" type="line" smooth="yes"/>
      <point x="600" y="995"/>
      <point x="379" y="1094"/>
      <point x="259" y="1134" type="curve" smooth="yes"/>
      <point x="257" y="1135"/>
      <point x="256" y="1136"/>
      <point x="256" y="1138" type="curve"/>
      <point x="259" y="1153"/>
      <point x="266" y="1165"/>
      <point x="284" y="1177" type="curve" smooth="yes"/>
      <point x="292" y="1183"/>
      <point x="302" y="1186"/>
      <point x="312" y="1186" type="curve" smooth="yes"/>
      <point x="401" y="1186"/>
      <point x="465" y="1105"/>
      <point x="570" y="1105" type="curve" smooth="yes"/>
      <point x="646" y="1105"/>
      <point x="698" y="1260"/>
      <point x="721" y="1346" type="curve"/>
      <point x="698" y="1336"/>
      <point x="674" y="1334"/>
      <point x="651" y="1334" type="curve" smooth="yes"/>
      <point x="596" y="1334"/>
      <point x="400" y="1440"/>
      <point x="328" y="1440" type="curve" smooth="yes"/>
      <point x="244" y="1440"/>
      <point x="141" y="1165"/>
      <point x="116" y="1061" type="curve"/>
      <point x="116" y="1055"/>
      <point x="118" y="1050"/>
      <point x="123" y="1049" type="curve" smooth="yes"/>
      <point x="228" y="1037"/>
      <point x="300" y="963"/>
      <point x="300" y="919" type="curve" smooth="yes"/>
      <point x="300" y="665" type="line"/>
    </contour>
    <contour>
      <point x="300" y="742" type="line"/>
      <point x="300" y="555" type="line"/>
      <point x="170" y="532"/>
      <point x="73" y="414"/>
      <point x="73" y="290" type="curve"/>
      <point x="73" y="161"/>
      <point x="181" y="31"/>
      <point x="347" y="0" type="curve"/>
      <point x="462" y="0"/>
      <point x="570" y="32"/>
      <point x="600" y="108" type="curve"/>
      <point x="600" y="736" type="line"/>
    </contour>
    <contour>
      <point x="195" y="290" type="curve" smooth="yes"/>
      <point x="195" y="363"/>
      <point x="234" y="439"/>
      <point x="300" y="458" type="curve"/>
      <point x="300" y="157" type="line"/>
      <point x="249" y="179"/>
      <point x="195" y="219"/>
    </contour>
  </outline>
</glyph>
<glyph name="uni179B" format="2">
  <advance width="1950"/>
  <unicode hex="179B"/>
  <anchor x="1762" y="0" name="L"/>
  <anchor x="1762" y="1440" name="U"/>
  <outline>
    <contour>
      <point x="562" y="479" type="line"/>
      <point x="562" y="1234" type="line" smooth="yes"/>
      <point x="562" y="1279"/>
      <point x="652" y="1309"/>
      <point x="712" y="1309" type="curve" smooth="yes"/>
      <point x="772" y="1309"/>
      <point x="862" y="1279"/>
      <point x="862" y="1234" type="curve" smooth="yes"/>
      <point x="862" y="187" type="line" smooth="yes"/>
      <point x="862" y="94"/>
      <point x="1106" y="0"/>
      <point x="1312" y="0" type="curve" smooth="yes"/>
      <point x="1519" y="0"/>
      <point x="1762" y="94"/>
      <point x="1762" y="187" type="curve" smooth="yes"/>
      <point x="1762" y="834" type="line"/>
      <point x="1462" y="876" type="line"/>
      <point x="1462" y="206" type="line" smooth="yes"/>
      <point x="1462" y="161"/>
      <point x="1372" y="131"/>
      <point x="1312" y="131" type="curve" smooth="yes"/>
      <point x="1252" y="131"/>
      <point x="1162" y="161"/>
      <point x="1162" y="206" type="curve" smooth="yes"/>
      <point x="1162" y="1252" type="line" smooth="yes"/>
      <point x="1162" y="1346"/>
      <point x="919" y="1440"/>
      <point x="712" y="1440" type="curve" smooth="yes"/>
      <point x="506" y="1440"/>
      <point x="262" y="1346"/>
      <point x="262" y="1252" type="curve" smooth="yes"/>
      <point x="262" y="465" type="line"/>
    </contour>
    <contour>
      <point x="1762" y="665" type="line"/>
      <point x="1762" y="930" type="line" smooth="yes"/>
      <point x="1762" y="995"/>
      <point x="1541" y="1094"/>
      <point x="1421" y="1134" type="curve" smooth="yes"/>
      <point x="1419" y="1135"/>
      <point x="1418" y="1136"/>
      <point x="1418" y="1138" type="curve"/>
      <point x="1421" y="1153"/>
      <point x="1428" y="1165"/>
      <point x="1446" y="1177" type="curve" smooth="yes"/>
      <point x="1454" y="1183"/>
      <point x="1464" y="1186"/>
      <point x="1474" y="1186" type="curve" smooth="yes"/>
      <point x="1563" y="1186"/>
      <point x="1627" y="1105"/>
      <point x="1732" y="1105" type="curve" smooth="yes"/>
      <point x="1808" y="1105"/>
      <point x="1860" y="1260"/>
      <point x="1883" y="1346" type="curve"/>
      <point x="1860" y="1336"/>
      <point x="1836" y="1334"/>
      <point x="1813" y="1334" type="curve" smooth="yes"/>
      <point x="1758" y="1334"/>
      <point x="1562" y="1440"/>
      <point x="1490" y="1440" type="curve" smooth="yes"/>
      <point x="1406" y="1440"/>
      <point x="1303" y="1165"/>
      <point x="1278" y="1061" type="curve"/>
      <point x="1278" y="1055"/>
      <point x="1280" y="1050"/>
      <point x="1285" y="1049" type="curve" smooth="yes"/>
      <point x="1390" y="1037"/>
      <point x="1462" y="963"/>
      <point x="1462" y="919" type="curve" smooth="yes"/>
      <point x="1462" y="665" type="line"/>
    </contour>
    <contour>
      <point x="262" y="736" type="line"/>
      <point x="262" y="108" type="line"/>
      <point x="292" y="32"/>
      <point x="400" y="0"/>
      <point x="515" y="0" type="curve"/>
      <point x="681" y="31"/>
      <point x="789" y="161"/>
      <point x="789" y="290" type="curve" smooth="yes"/>
      <point x="789" y="414"/>
      <point x="692" y="532"/>
      <point x="562" y="555" type="curve"/>
      <point x="562" y="742" type="line"/>
    </contour>
    <contour>
      <point x="667" y="290" type="curve" smooth="yes"/>
      <point x="667" y="219"/>
      <point x="613" y="179"/>
      <point x="562" y="157" type="curve"/>
      <point x="562" y="458" type="line"/>
      <point x="628" y="439"/>
      <point x="667" y="363"/>
    </contour>
  </outline>
</glyph>
<glyph name="uni179E" format="2">
  <advance width="1500"/>
  <unicode hex="179E"/>
  <anchor x="1312" y="0" name="L"/>
  <anchor x="1312" y="1440" name="U"/>
  <outline>
    <contour>
      <point x="1011" y="682" type="curve"/>
      <point x="993" y="694"/>
      <point x="964" y="701"/>
      <point x="926" y="701" type="curve" smooth="yes"/>
      <point x="851" y="701"/>
      <point x="776" y="649"/>
      <point x="776" y="577" type="curve" smooth="yes"/>
      <point x="776" y="472"/>
      <point x="859" y="401"/>
      <point x="1012" y="401" type="curve"/>
      <point x="1312" y="477" type="line"/>
      <point x="1419" y="527"/>
      <point x="1500" y="678"/>
      <point x="1500" y="709" type="curve" smooth="yes"/>
      <point x="1500" y="712"/>
      <point x="1496" y="716"/>
      <point x="1492" y="716" type="curve" smooth="yes"/>
      <point x="1475" y="716"/>
      <point x="1373" y="667"/>
      <point x="1312" y="639" type="curve"/>
      <point x="1012" y="586" type="line"/>
      <point x="983" y="590"/>
      <point x="967" y="604"/>
      <point x="967" y="626" type="curve" smooth="yes"/>
      <point x="967" y="645"/>
      <point x="993" y="671"/>
    </contour>
    <contour>
      <point x="262" y="867" type="line"/>
      <point x="262" y="206" type="line" smooth="yes"/>
      <point x="262" y="94"/>
      <point x="562" y="0"/>
      <point x="787" y="0" type="curve" smooth="yes"/>
      <point x="1012" y="0"/>
      <point x="1312" y="94"/>
      <point x="1312" y="206" type="curve" smooth="yes"/>
      <point x="1312" y="802" type="line"/>
      <point x="1012" y="782" type="line"/>
      <point x="1012" y="225" type="line" smooth="yes"/>
      <point x="1012" y="169"/>
      <point x="881" y="131"/>
      <point x="787" y="131" type="curve" smooth="yes"/>
      <point x="694" y="131"/>
      <point x="562" y="169"/>
      <point x="562" y="225" type="curve" smooth="yes"/>
      <point x="562" y="855" type="line"/>
    </contour>
    <contour>
      <point x="1312" y="745" type="line"/>
      <point x="1312" y="930" type="line" smooth="yes"/>
      <point x="1312" y="995"/>
      <point x="1091" y="1094"/>
      <point x="971" y="1134" type="curve" smooth="yes"/>
      <point x="969" y="1135"/>
      <point x="968" y="1136"/>
      <point x="968" y="1138" type="curve"/>
      <point x="971" y="1153"/>
      <point x="978" y="1165"/>
      <point x="996" y="1177" type="curve" smooth="yes"/>
      <point x="1004" y="1183"/>
      <point x="1014" y="1186"/>
      <point x="1024" y="1186" type="curve" smooth="yes"/>
      <point x="1113" y="1186"/>
      <point x="1177" y="1105"/>
      <point x="1282" y="1105" type="curve" smooth="yes"/>
      <point x="1358" y="1105"/>
      <point x="1410" y="1260"/>
      <point x="1433" y="1346" type="curve"/>
      <point x="1410" y="1336"/>
      <point x="1386" y="1334"/>
      <point x="1363" y="1334" type="curve" smooth="yes"/>
      <point x="1308" y="1334"/>
      <point x="1112" y="1440"/>
      <point x="1040" y="1440" type="curve" smooth="yes"/>
      <point x="956" y="1440"/>
      <point x="853" y="1165"/>
      <point x="828" y="1061" type="curve"/>
      <point x="828" y="1055"/>
      <point x="830" y="1050"/>
      <point x="835" y="1049" type="curve" smooth="yes"/>
      <point x="940" y="1037"/>
      <point x="1012" y="963"/>
      <point x="1012" y="919" type="curve" smooth="yes"/>
      <point x="1012" y="745" type="line"/>
    </contour>
    <contour>
      <point x="562" y="745" type="line"/>
      <point x="562" y="930" type="line" smooth="yes"/>
      <point x="562" y="995"/>
      <point x="341" y="1094"/>
      <point x="221" y="1134" type="curve" smooth="yes"/>
      <point x="219" y="1135"/>
      <point x="218" y="1136"/>
      <point x="218" y="1138" type="curve"/>
      <point x="221" y="1153"/>
      <point x="228" y="1165"/>
      <point x="246" y="1177" type="curve" smooth="yes"/>
      <point x="254" y="1183"/>
      <point x="264" y="1186"/>
      <point x="274" y="1186" type="curve" smooth="yes"/>
      <point x="363" y="1186"/>
      <point x="427" y="1105"/>
      <point x="532" y="1105" type="curve" smooth="yes"/>
      <point x="608" y="1105"/>
      <point x="660" y="1260"/>
      <point x="683" y="1346" type="curve"/>
      <point x="660" y="1336"/>
      <point x="636" y="1334"/>
      <point x="613" y="1334" type="curve" smooth="yes"/>
      <point x="558" y="1334"/>
      <point x="362" y="1440"/>
      <point x="290" y="1440" type="curve" smooth="yes"/>
      <point x="206" y="1440"/>
      <point x="103" y="1165"/>
      <point x="78" y="1061" type="curve"/>
      <point x="78" y="1055"/>
      <point x="80" y="1050"/>
      <point x="85" y="1049" type="curve" smooth="yes"/>
      <point x="190" y="1037"/>
      <point x="262" y="963"/>
      <point x="262" y="919" type="curve" smooth="yes"/>
      <point x="262" y="745" type="line"/>
    </contour>
  </outline>
</glyph>
<glyph name="uni17A0" format="2">
  <advance width="1950"/>
  <unicode hex="17A0"/>
  <anchor x="1762" y="0" name="L"/>
  <anchor x="1762" y="1440" name="U"/>
  <outline>
    <contour>
      <point x="262" y="842" type="line"/>
      <point x="262" y="187" type="line" smooth="yes"/>
      <point x="262" y="94"/>
      <point x="506" y="0"/>
      <point x="712" y="0" type="curve" smooth="yes"/>
      <point x="919" y="0"/>
      <point x="1162" y="94"/>
      <point x="1162" y="187" type="curve" smooth="yes"/>
      <point x="1162" y="1234" type="line" smooth="yes"/>
      <point x="1162" y="1279"/>
      <point x="1252" y="1309"/>
      <point x="1312" y="1309" type="curve" smooth="yes"/>
      <point x="1372" y="1309"/>
      <point x="1462" y="1279"/>
      <point x="1462" y="1234" type="curve" smooth="yes"/>
      <point x="1462" y="0" type="line"/>
      <point x="1762" y="0" type="line"/>
      <point x="1762" y="1252" type="line" smooth="yes"/>
      <point x="1762" y="1346"/>
      <point x="1519" y="1440"/>
      <point x="1312" y="1440" type="curve" smooth="yes"/>
      <point x="1106" y="1440"/>
      <point x="862" y="1346"/>
      <point x="862" y="1252" type="curve" smooth="yes"/>
      <point x="862" y="206" type="line" smooth="yes"/>
      <point x="862" y="161"/>
      <point x="772" y="131"/>
      <point x="712" y="131" type="curve" smooth="yes"/>
      <point x="652" y="131"/>
      <point x="562" y="161"/>
      <point x="562" y="206" type="curve" smooth="yes"/>
      <point x="562" y="837" type="line"/>
    </contour>
    <contour>
      <point x="562" y="805" type="line"/>
      <point x="562" y="930" type="line" smooth="yes"/>
      <point x="562" y="995"/>
      <point x="341" y="1094"/>
      <point x="221" y="1134" type="curve" smooth="yes"/>
      <point x="219" y="1135"/>
      <point x="218" y="1136"/>
      <point x="218" y="1138" type="curve"/>
      <point x="221" y="1153"/>
      <point x="228" y="1165"/>
      <point x="246" y="1177" type="curve" smooth="yes"/>
      <point x="254" y="1183"/>
      <point x="264" y="1186"/>
      <point x="274" y="1186" type="curve" smooth="yes"/>
      <point x="363" y="1186"/>
      <point x="427" y="1105"/>
      <point x="532" y="1105" type="curve" smooth="yes"/>
      <point x="608" y="1105"/>
      <point x="660" y="1260"/>
      <point x="683" y="1346" type="curve"/>
      <point x="660" y="1336"/>
      <point x="636" y="1334"/>
      <point x="613" y="1334" type="curve" smooth="yes"/>
      <point x="558" y="1334"/>
      <point x="362" y="1440"/>
      <point x="290" y="1440" type="curve" smooth="yes"/>
      <point x="206" y="1440"/>
      <point x="103" y="1165"/>
      <point x="78" y="1061" type="curve"/>
      <point x="78" y="1055"/>
      <point x="80" y="1050"/>
      <point x="85" y="1049" type="curve" smooth="yes"/>
      <point x="190" y="1037"/>
      <point x="262" y="963"/>
      <point x="262" y="919" type="curve" smooth="yes"/>
      <point x="262" y="805" type="line"/>
    </contour>
  </outline>
</glyph>
<glyph name="uni17A2" format="2">
  <advance width="1463"/>
  <unicode hex="17A2"/>
  <anchor x="1275" y="0" name="L"/>
  <anchor x="1275" y="1440" name="U"/>
  <outline>
    <contour>
      <point x="1275" y="108" type="curve"/>
      <point x="1275" y="930" type="line" smooth="yes"/>
      <point x="1275" y="995"/>
      <point x="1054" y="1094"/>
      <point x="934" y="1134" type="curve" smooth="yes"/>
      <point x="932" y="1135"/>
      <point x="931" y="1136"/>
      <point x="931" y="1138" type="curve"/>
      <point x="934" y="1153"/>
      <point x="941" y="1165"/>
      <point x="959" y="1177" type="curve" smooth="yes"/>
      <point x="967" y="1183"/>
      <point x="977" y="1186"/>
      <point x="987" y="1186" type="curve" smooth="yes"/>
      <point x="1076" y="1186"/>
      <point x="1140" y="1105"/>
      <point x="1245" y="1105" type="curve" smooth="yes"/>
      <point x="1321" y="1105"/>
      <point x="1373" y="1260"/>
      <point x="1396" y="1346" type="curve"/>
      <point x="1373" y="1336"/>
      <point x="1349" y="1334"/>
      <point x="1326" y="1334" type="curve" smooth="yes"/>
      <point x="1271" y="1334"/>
      <point x="1075" y="1440"/>
      <point x="1003" y="1440" type="curve" smooth="yes"/>
      <point x="919" y="1440"/>
      <point x="816" y="1165"/>
      <point x="791" y="1061" type="curve"/>
      <point x="791" y="1055"/>
      <point x="793" y="1050"/>
      <point x="798" y="1049" type="curve" smooth="yes"/>
      <point x="903" y="1037"/>
      <point x="975" y="963"/>
      <point x="975" y="919" type="curve" smooth="yes"/>
      <point x="975" y="735" type="line"/>
      <point x="600" y="735" type="line"/>
      <point x="600" y="930" type="line" smooth="yes"/>
      <point x="600" y="995"/>
      <point x="379" y="1094"/>
      <point x="259" y="1134" type="curve" smooth="yes"/>
      <point x="257" y="1135"/>
      <point x="256" y="1136"/>
      <point x="256" y="1138" type="curve"/>
      <point x="259" y="1153"/>
      <point x="266" y="1165"/>
      <point x="284" y="1177" type="curve" smooth="yes"/>
      <point x="292" y="1183"/>
      <point x="302" y="1186"/>
      <point x="312" y="1186" type="curve" smooth="yes"/>
      <point x="401" y="1186"/>
      <point x="465" y="1105"/>
      <point x="570" y="1105" type="curve" smooth="yes"/>
      <point x="646" y="1105"/>
      <point x="698" y="1260"/>
      <point x="721" y="1346" type="curve"/>
      <point x="698" y="1336"/>
      <point x="674" y="1334"/>
      <point x="651" y="1334" type="curve" smooth="yes"/>
      <point x="596" y="1334"/>
      <point x="400" y="1440"/>
      <point x="328" y="1440" type="curve" smooth="yes"/>
      <point x="244" y="1440"/>
      <point x="141" y="1165"/>
      <point x="116" y="1061" type="curve"/>
      <point x="116" y="1055"/>
      <point x="118" y="1050"/>
      <point x="123" y="1049" type="curve" smooth="yes"/>
      <point x="228" y="1037"/>
      <point x="300" y="963"/>
      <point x="300" y="919" type="curve" smooth="yes"/>
      <point x="300" y="555" type="line"/>
      <point x="170" y="532"/>
      <point x="73" y="414"/>
      <point x="73" y="290" type="curve" smooth="yes"/>
      <point x="73" y="161"/>
      <point x="181" y="31"/>
      <point x="347" y="0" type="curve"/>
      <point x="462" y="0"/>
      <point x="570" y="32"/>
      <point x="600" y="108" type="curve"/>
      <point x="600" y="566" type="line"/>
      <point x="975" y="566" type="line"/>
      <point x="975" y="555" type="line"/>
      <point x="845" y="532"/>
      <point x="748" y="414"/>
      <point x="748" y="290" type="curve" smooth="yes"/>
      <point x="748" y="161"/>
      <point x="856" y="31"/>
      <point x="1022" y="0" type="curve"/>
      <point x="1137" y="0"/>
      <point x="1245" y="32"/>
    </contour>
    <contour>
      <point x="195" y="290" type="curve" smooth="yes"/>
      <point x="195" y="363"/>
      <point x="234" y="439"/>
      <point x="300" y="458" type="curve"/>
      <point x="300" y="157" type="line"/>
      <point x="249" y="179"/>
      <point x="195" y="219"/>
    </contour>
    <contour>
      <point x="870" y="290" type="curve" smooth="yes"/>
      <point x="870" y="363"/>
      <point x="909" y="439"/>
      <point x="975" y="458" type="curve"/>
      <point x="975" y="157" type="line"/>
      <point x="924" y="179"/>
      <point x="870" y="219"/>
    </contour>
  </outline>
</glyph>
<glyph name="uni17A4" format="2">
  <advance width="2213"/>
  <unicode hex="17A4"/>
  <anchor x="1275" y="0" name="L"/>
  <anchor x="1275" y="1440" name="U"/>
  <outline>
    <contour>
      <point x="870" y="290" type="curve" smooth="yes"/>
      <point x="870" y="362"/>
      <point x="908" y="439"/>
      <point x="975" y="458" type="curve"/>
      <point x="975" y="157" type="line"/>
      <point x="923" y="178"/>
      <point x="870" y="219"/>
    </contour>
    <contour>
      <point x="195" y="290" type="curve" smooth="yes"/>
      <point x="195" y="362"/>
      <point x="233" y="439"/>
      <point x="300" y="458" type="curve"/>
      <point x="300" y="157" type="line"/>
      <point x="248" y="178"/>
      <point x="195" y="219"/>
    </contour>
    <contour>
      <point x="1275" y="930" type="line"/>
      <point x="1275" y="995"/>
      <point x="1054" y="1094"/>
      <point x="934" y="1134" type="curve" smooth="yes"/>
      <point x="932" y="1135"/>
      <point x="931" y="1136"/>
      <point x="931" y="1138" type="curve"/>
      <point x="934" y="1153"/>
      <point x="940" y="1165"/>
      <point x="959" y="1177" type="curve" smooth="yes"/>
      <point x="967" y="1183"/>
      <point x="976" y="1186"/>
      <point x="987" y="1186" type="curve" smooth="yes"/>
      <point x="1076" y="1186"/>
      <point x="1140" y="1105"/>
      <point x="1245" y="1105" type="curve" smooth="yes"/>
      <point x="1272" y="1105"/>
      <point x="1287" y="1128"/>
      <point x="1314" y="1151" type="curve"/>
      <point x="1348" y="1182"/>
      <point x="1411" y="1192"/>
      <point x="1451" y="1192" type="curve" smooth="yes"/>
      <point x="1500" y="1192"/>
      <point x="1614" y="1122"/>
      <point x="1686" y="1072" type="curve" smooth="yes"/>
      <point x="1703" y="1060"/>
      <point x="1725" y="1039"/>
      <point x="1725" y="1014" type="curve" smooth="yes"/>
      <point x="1725" y="0" type="line"/>
      <point x="2025" y="0" type="line"/>
      <point x="2025" y="1063" type="line"/>
      <point x="2025" y="1124"/>
      <point x="1992" y="1165"/>
      <point x="1928" y="1212" type="curve" smooth="yes"/>
      <point x="1869" y="1256"/>
      <point x="1579" y="1440"/>
      <point x="1507" y="1440" type="curve" smooth="yes"/>
      <point x="1431" y="1440"/>
      <point x="1341" y="1396"/>
      <point x="1269" y="1348" type="curve"/>
      <point x="1187" y="1377"/>
      <point x="1058" y="1440"/>
      <point x="1003" y="1440" type="curve"/>
      <point x="920" y="1440"/>
      <point x="815" y="1165"/>
      <point x="791" y="1061" type="curve"/>
      <point x="791" y="1054"/>
      <point x="793" y="1050"/>
      <point x="798" y="1049" type="curve"/>
      <point x="903" y="1036"/>
      <point x="975" y="964"/>
      <point x="975" y="919" type="curve" smooth="yes"/>
      <point x="975" y="735" type="line"/>
      <point x="600" y="735" type="line"/>
      <point x="600" y="930" type="line"/>
      <point x="600" y="995"/>
      <point x="379" y="1094"/>
      <point x="259" y="1134" type="curve" smooth="yes"/>
      <point x="257" y="1135"/>
      <point x="256" y="1136"/>
      <point x="256" y="1138" type="curve"/>
      <point x="259" y="1153"/>
      <point x="265" y="1165"/>
      <point x="284" y="1177" type="curve" smooth="yes"/>
      <point x="292" y="1183"/>
      <point x="301" y="1186"/>
      <point x="312" y="1186" type="curve" smooth="yes"/>
      <point x="401" y="1186"/>
      <point x="465" y="1105"/>
      <point x="570" y="1105" type="curve" smooth="yes"/>
      <point x="646" y="1105"/>
      <point x="697" y="1260"/>
      <point x="721" y="1346" type="curve"/>
      <point x="698" y="1335"/>
      <point x="674" y="1334"/>
      <point x="651" y="1334" type="curve"/>
      <point x="596" y="1334"/>
      <point x="400" y="1440"/>
      <point x="328" y="1440" type="curve" smooth="yes"/>
      <point x="245" y="1440"/>
      <point x="140" y="1165"/>
      <point x="116" y="1061" type="curve"/>
      <point x="116" y="1054"/>
      <point x="118" y="1050"/>
      <point x="123" y="1049" type="curve"/>
      <point x="228" y="1036"/>
      <point x="300" y="964"/>
      <point x="300" y="919" type="curve" smooth="yes"/>
      <point x="300" y="555" type="line"/>
      <point x="169" y="531"/>
      <point x="73" y="414"/>
      <point x="73" y="290" type="curve"/>
      <point x="73" y="161"/>
      <point x="182" y="32"/>
      <point x="347" y="0" type="curve"/>
      <point x="462" y="0"/>
      <point x="571" y="32"/>
      <point x="600" y="108" type="curve"/>
      <point x="600" y="566" type="line"/>
      <point x="975" y="566" type="line"/>
      <point x="975" y="555" type="line"/>
      <point x="844" y="531"/>
      <point x="748" y="414"/>
      <point x="748" y="290" type="curve"/>
      <point x="748" y="161"/>
      <point x="857" y="32"/>
      <point x="1022" y="0" type="curve"/>
      <point x="1137" y="0"/>
      <point x="1246" y="32"/>
      <point x="1275" y="108" type="curve"/>
    </contour>
  </outline>
</glyph>
<glyph name="uni17A5" format="2">
  <advance width="1500"/>
  <unicode hex="17A5"/>
  <anchor x="1312" y="0" name="L"/>
  <anchor x="1312" y="1665" name="U"/>
  <outline>
    <contour>
      <point x="562" y="555" type="curve"/>
      <point x="562" y="800" type="line" smooth="yes"/>
      <point x="562" y="856"/>
      <point x="694" y="884"/>
      <point x="787" y="884" type="curve" smooth="yes"/>
      <point x="881" y="884"/>
      <point x="1012" y="856"/>
      <point x="1012" y="800" type="curve" smooth="yes"/>
      <point x="1012" y="0" type="line"/>
      <point x="1312" y="0" type="line"/>
      <point x="1312" y="819" type="line" smooth="yes"/>
      <point x="1312" y="931"/>
      <point x="1012" y="1025"/>
      <point x="787" y="1025" type="curve" smooth="yes"/>
      <point x="562" y="1025"/>
      <point x="262" y="941"/>
      <point x="262" y="819" type="curve" smooth="yes"/>
      <point x="262" y="108" type="line"/>
      <point x="292" y="32"/>
      <point x="400" y="0"/>
      <point x="515" y="0" type="curve"/>
      <point x="681" y="31"/>
      <point x="789" y="161"/>
      <point x="789" y="290" type="curve" smooth="yes"/>
      <point x="789" y="414"/>
      <point x="692" y="532"/>
    </contour>
    <contour>
      <point x="667" y="290" type="curve" smooth="yes"/>
      <point x="667" y="219"/>
      <point x="613" y="179"/>
      <point x="562" y="157" type="curve"/>
      <point x="562" y="458" type="line"/>
      <point x="628" y="439"/>
      <point x="667" y="363"/>
    </contour>
    <contour>
      <point x="1045" y="1256" type="curve"/>
      <point x="966" y="1281"/>
      <point x="597" y="1440"/>
      <point x="533" y="1440" type="curve" smooth="yes"/>
      <point x="369" y="1440"/>
      <point x="247" y="1235"/>
      <point x="174" y="1064" type="curve" smooth="yes"/>
      <point x="171" y="1057"/>
      <point x="170" y="1035"/>
      <point x="170" y="1029" type="curve" smooth="yes"/>
      <point x="170" y="958"/>
      <point x="259" y="902"/>
      <point x="332" y="890" type="curve"/>
      <point x="632" y="950" type="line"/>
      <point x="479" y="966"/>
      <point x="355" y="1027"/>
      <point x="355" y="1084" type="curve" smooth="yes"/>
      <point x="355" y="1105"/>
      <point x="364" y="1129"/>
      <point x="383" y="1153" type="curve" smooth="yes"/>
      <point x="408" y="1185"/>
      <point x="432" y="1206"/>
      <point x="467" y="1206" type="curve" smooth="yes"/>
      <point x="536" y="1206"/>
      <point x="909" y="1024"/>
      <point x="994" y="1024" type="curve"/>
      <point x="1197" y="1024"/>
      <point x="1382" y="1207"/>
      <point x="1382" y="1372" type="curve" smooth="yes"/>
      <point x="1382" y="1462"/>
      <point x="1367" y="1515"/>
      <point x="1296" y="1601" type="curve" smooth="yes"/>
      <point x="1229" y="1684"/>
      <point x="1127" y="1740"/>
      <point x="1004" y="1740" type="curve" smooth="yes"/>
      <point x="880" y="1740"/>
      <point x="854" y="1680"/>
      <point x="854" y="1627" type="curve" smooth="yes"/>
      <point x="854" y="1575"/>
      <point x="917" y="1519"/>
      <point x="1030" y="1501" type="curve" smooth="yes"/>
      <point x="1190" y="1475"/>
      <point x="1237" y="1444"/>
      <point x="1237" y="1365" type="curve" smooth="yes"/>
      <point x="1237" y="1290"/>
      <point x="1120" y="1256"/>
    </contour>
  </outline>
</glyph>
<glyph name="uni17A6" format="2">
  <advance width="2100"/>
  <unicode hex="17A6"/>
  <anchor x="1912" y="-711" name="L"/>
  <anchor x="1987" y="1725" name="U"/>
  <outline>
    <contour>
      <point x="1612" y="878" type="line"/>
      <point x="1612" y="-506" type="line" smooth="yes"/>
      <point x="1612" y="-551"/>
      <point x="1522" y="-581"/>
      <point x="1462" y="-581" type="curve" smooth="yes"/>
      <point x="1402" y="-581"/>
      <point x="1312" y="-551"/>
      <point x="1312" y="-506" type="curve" smooth="yes"/>
      <point x="1312" y="-345" type="line" smooth="yes"/>
      <point x="1312" y="-240"/>
      <point x="1087" y="-150"/>
      <point x="862" y="-150" type="curve" smooth="yes"/>
      <point x="637" y="-150"/>
      <point x="412" y="-240"/>
      <point x="412" y="-345" type="curve" smooth="yes"/>
      <point x="412" y="-630" type="line"/>
      <point x="424" y="-694"/>
      <point x="544" y="-713"/>
      <point x="634" y="-713" type="curve"/>
      <point x="746" y="-690"/>
      <point x="821" y="-660"/>
      <point x="821" y="-589" type="curve" smooth="yes"/>
      <point x="821" y="-548"/>
      <point x="776" y="-491"/>
      <point x="694" y="-473" type="curve"/>
      <point x="694" y="-364" type="line" smooth="yes"/>
      <point x="694" y="-319"/>
      <point x="802" y="-281"/>
      <point x="862" y="-281" type="curve" smooth="yes"/>
      <point x="922" y="-281"/>
      <point x="1030" y="-319"/>
      <point x="1030" y="-364" type="curve" smooth="yes"/>
      <point x="1030" y="-525" type="line" smooth="yes"/>
      <point x="1030" y="-630"/>
      <point x="1275" y="-713"/>
      <point x="1462" y="-713" type="curve" smooth="yes"/>
      <point x="1650" y="-713"/>
      <point x="1912" y="-630"/>
      <point x="1912" y="-525" type="curve" smooth="yes"/>
      <point x="1912" y="823" type="line"/>
    </contour>
    <contour>
      <point x="562" y="555" type="curve"/>
      <point x="562" y="1215" type="line" smooth="yes"/>
      <point x="562" y="1271"/>
      <point x="694" y="1299"/>
      <point x="787" y="1299" type="curve" smooth="yes"/>
      <point x="881" y="1299"/>
      <point x="1012" y="1271"/>
      <point x="1012" y="1215" type="curve" smooth="yes"/>
      <point x="1012" y="0" type="line"/>
      <point x="1312" y="0" type="line"/>
      <point x="1312" y="1234" type="line" smooth="yes"/>
      <point x="1312" y="1346"/>
      <point x="1012" y="1440"/>
      <point x="787" y="1440" type="curve" smooth="yes"/>
      <point x="562" y="1440"/>
      <point x="262" y="1356"/>
      <point x="262" y="1234" type="curve" smooth="yes"/>
      <point x="262" y="108" type="line"/>
      <point x="292" y="32"/>
      <point x="400" y="0"/>
      <point x="515" y="0" type="curve"/>
      <point x="681" y="31"/>
      <point x="789" y="161"/>
      <point x="789" y="290" type="curve" smooth="yes"/>
      <point x="789" y="414"/>
      <point x="692" y="532"/>
    </contour>
    <contour>
      <point x="667" y="290" type="curve" smooth="yes"/>
      <point x="667" y="219"/>
      <point x="613" y="179"/>
      <point x="562" y="157" type="curve"/>
      <point x="562" y="458" type="line"/>
      <point x="628" y="439"/>
      <point x="667" y="363"/>
    </contour>
    <contour>
      <point x="1912" y="515" type="line"/>
      <point x="1912" y="910" type="line" smooth="yes"/>
      <point x="1912" y="975"/>
      <point x="1691" y="1084"/>
      <point x="1571" y="1124" type="curve" smooth="yes"/>
      <point x="1569" y="1125"/>
      <point x="1568" y="1126"/>
      <point x="1568" y="1128" type="curve"/>
      <point x="1571" y="1143"/>
      <point x="1578" y="1165"/>
      <point x="1596" y="1177" type="curve" smooth="yes"/>
      <point x="1604" y="1183"/>
      <point x="1614" y="1186"/>
      <point x="1624" y="1186" type="curve" smooth="yes"/>
      <point x="1683" y="1186"/>
      <point x="1757" y="1093"/>
      <point x="1852" y="1093" type="curve" smooth="yes"/>
      <point x="1969" y="1093"/>
      <point x="2081" y="1215"/>
      <point x="2081" y="1380" type="curve" smooth="yes"/>
      <point x="2081" y="1732"/>
      <point x="1868" y="1777"/>
      <point x="1771" y="1777" type="curve" smooth="yes"/>
      <point x="1696" y="1777"/>
      <point x="1640" y="1749"/>
      <point x="1640" y="1691" type="curve" smooth="yes"/>
      <point x="1640" y="1631"/>
      <point x="1687" y="1589"/>
      <point x="1777" y="1560" type="curve" smooth="yes"/>
      <point x="1876" y="1529"/>
      <point x="1960" y="1494"/>
      <point x="1960" y="1330" type="curve" smooth="yes"/>
      <point x="1960" y="1313"/>
      <point x="1954" y="1303"/>
      <point x="1945" y="1303" type="curve" smooth="yes"/>
      <point x="1890" y="1303"/>
      <point x="1712" y="1440"/>
      <point x="1640" y="1440" type="curve" smooth="yes"/>
      <point x="1556" y="1440"/>
      <point x="1453" y="1165"/>
      <point x="1428" y="1061" type="curve"/>
      <point x="1428" y="1055"/>
      <point x="1430" y="1050"/>
      <point x="1435" y="1049" type="curve" smooth="yes"/>
      <point x="1540" y="1037"/>
      <point x="1612" y="963"/>
      <point x="1612" y="919" type="curve" smooth="yes"/>
      <point x="1612" y="519" type="line"/>
    </contour>
  </outline>
</glyph>
<glyph name="uni17A8" format="2">
  <advance width="1425"/>
  <unicode hex="17A8"/>
  <anchor x="1275" y="0" name="L"/>
  <anchor x="1275" y="1740" name="U"/>
  <outline>
    <contour>
      <point x="975" y="345" type="line"/>
      <point x="915" y="240"/>
      <point x="795" y="150"/>
      <point x="716" y="150" type="curve"/>
      <point x="596" y="150"/>
      <point x="547" y="232"/>
      <point x="525" y="311" type="curve"/>
      <point x="825" y="439"/>
      <point x="1275" y="667"/>
      <point x="1275" y="1027" type="curve"/>
      <point x="1275" y="1301"/>
      <point x="1065" y="1440"/>
      <point x="720" y="1440" type="curve" smooth="yes"/>
      <point x="487" y="1440"/>
      <point x="225" y="1339"/>
      <point x="225" y="1121" type="curve" smooth="yes"/>
      <point x="225" y="1042"/>
      <point x="244" y="956"/>
      <point x="340" y="888" type="curve" smooth="yes"/>
      <point x="397" y="847"/>
      <point x="465" y="844"/>
      <point x="517" y="844" type="curve" smooth="yes"/>
      <point x="626" y="844"/>
      <point x="735" y="900"/>
      <point x="735" y="986" type="curve" smooth="yes"/>
      <point x="735" y="1046"/>
      <point x="665" y="1091"/>
      <point x="563" y="1091" type="curve" smooth="yes"/>
      <point x="541" y="1091"/>
      <point x="522" y="1087"/>
      <point x="511" y="1087" type="curve"/>
      <point x="507" y="1099"/>
      <point x="507" y="1114"/>
      <point x="507" y="1129" type="curve"/>
      <point x="507" y="1222"/>
      <point x="604" y="1290"/>
      <point x="739" y="1290" type="curve" smooth="yes"/>
      <point x="885" y="1290"/>
      <point x="975" y="1226"/>
      <point x="975" y="1050" type="curve" smooth="yes"/>
      <point x="975" y="765"/>
      <point x="341" y="427"/>
      <point x="225" y="397" type="curve"/>
      <point x="225" y="157"/>
      <point x="424" y="0"/>
      <point x="679" y="0" type="curve"/>
      <point x="784" y="0"/>
      <point x="904" y="56"/>
      <point x="975" y="135" type="curve"/>
    </contour>
    <contour>
      <point x="724" y="1494" type="curve" smooth="yes"/>
      <point x="761" y="1494"/>
      <point x="792" y="1548"/>
      <point x="811" y="1572" type="curve" smooth="yes"/>
      <point x="835" y="1601"/>
      <point x="864" y="1636"/>
      <point x="895" y="1636" type="curve" smooth="yes"/>
      <point x="964" y="1636"/>
      <point x="1137" y="1494"/>
      <point x="1222" y="1494" type="curve" smooth="yes"/>
      <point x="1303" y="1494"/>
      <point x="1372" y="1629"/>
      <point x="1403" y="1715" type="curve"/>
      <point x="1380" y="1705"/>
      <point x="1356" y="1703"/>
      <point x="1333" y="1703" type="curve" smooth="yes"/>
      <point x="1268" y="1703"/>
      <point x="1023" y="1870"/>
      <point x="951" y="1870" type="curve" smooth="yes"/>
      <point x="927" y="1870"/>
      <point x="890" y="1849"/>
      <point x="856" y="1817" type="curve" smooth="yes"/>
      <point x="829" y="1791"/>
      <point x="799" y="1761"/>
      <point x="771" y="1728" type="curve"/>
      <point x="692" y="1753"/>
      <point x="497" y="1870"/>
      <point x="433" y="1870" type="curve" smooth="yes"/>
      <point x="269" y="1870"/>
      <point x="147" y="1665"/>
      <point x="74" y="1494" type="curve" smooth="yes"/>
      <point x="71" y="1487"/>
      <point x="70" y="1465"/>
      <point x="70" y="1459" type="curve" smooth="yes"/>
      <point x="70" y="1388"/>
      <point x="148" y="1332"/>
      <point x="221" y="1320" type="curve"/>
      <point x="402" y="1424" type="line"/>
      <point x="319" y="1440"/>
      <point x="255" y="1457"/>
      <point x="255" y="1514" type="curve" smooth="yes"/>
      <point x="255" y="1535"/>
      <point x="264" y="1559"/>
      <point x="283" y="1583" type="curve" smooth="yes"/>
      <point x="308" y="1615"/>
      <point x="332" y="1636"/>
      <point x="367" y="1636" type="curve" smooth="yes"/>
      <point x="436" y="1636"/>
      <point x="639" y="1494"/>
    </contour>
    <contour>
      <point x="975" y="-113" type="line"/>
      <point x="975" y="-169"/>
      <point x="1005" y="-188"/>
      <point x="1050" y="-188" type="curve" smooth="yes"/>
      <point x="1331" y="-188" type="line"/>
      <point x="1286" y="-176"/>
      <point x="1275" y="-150"/>
      <point x="1275" y="-113" type="curve" smooth="yes"/>
      <point x="1275" y="487" type="line"/>
      <point x="975" y="487" type="line"/>
    </contour>
  </outline>
</glyph>
<glyph name="uni17AA" format="2">
  <advance width="1425"/>
  <unicode hex="17AA"/>
  <anchor x="1275" y="0" name="L"/>
  <anchor x="1312" y="2040" name="U"/>
  <outline>
    <contour>
      <point x="975" y="1666" type="curve"/>
      <point x="896" y="1691"/>
      <point x="527" y="1850"/>
      <point x="463" y="1850" type="curve" smooth="yes"/>
      <point x="299" y="1850"/>
      <point x="177" y="1645"/>
      <point x="104" y="1474" type="curve" smooth="yes"/>
      <point x="101" y="1467"/>
      <point x="100" y="1445"/>
      <point x="100" y="1439" type="curve" smooth="yes"/>
      <point x="100" y="1368"/>
      <point x="219" y="1302"/>
      <point x="292" y="1290" type="curve"/>
      <point x="562" y="1360" type="line"/>
      <point x="409" y="1376"/>
      <point x="285" y="1437"/>
      <point x="285" y="1494" type="curve" smooth="yes"/>
      <point x="285" y="1515"/>
      <point x="294" y="1539"/>
      <point x="313" y="1563" type="curve" smooth="yes"/>
      <point x="338" y="1595"/>
      <point x="362" y="1616"/>
      <point x="397" y="1616" type="curve" smooth="yes"/>
      <point x="466" y="1616"/>
      <point x="839" y="1434"/>
      <point x="924" y="1434" type="curve"/>
      <point x="1127" y="1434"/>
      <point x="1312" y="1617"/>
      <point x="1312" y="1762" type="curve" smooth="yes"/>
      <point x="1312" y="1852"/>
      <point x="1297" y="1905"/>
      <point x="1226" y="1991" type="curve" smooth="yes"/>
      <point x="1159" y="2074"/>
      <point x="1057" y="2130"/>
      <point x="934" y="2130" type="curve" smooth="yes"/>
      <point x="810" y="2130"/>
      <point x="784" y="2070"/>
      <point x="784" y="2017" type="curve" smooth="yes"/>
      <point x="784" y="1965"/>
      <point x="847" y="1909"/>
      <point x="960" y="1891" type="curve" smooth="yes"/>
      <point x="1120" y="1865"/>
      <point x="1167" y="1824"/>
      <point x="1167" y="1755" type="curve" smooth="yes"/>
      <point x="1167" y="1690"/>
      <point x="1050" y="1666"/>
    </contour>
    <contour>
      <point x="975" y="345" type="line"/>
      <point x="915" y="240"/>
      <point x="795" y="150"/>
      <point x="716" y="150" type="curve"/>
      <point x="596" y="150"/>
      <point x="547" y="232"/>
      <point x="525" y="311" type="curve"/>
      <point x="825" y="439"/>
      <point x="1275" y="667"/>
      <point x="1275" y="1027" type="curve"/>
      <point x="1275" y="1301"/>
      <point x="1065" y="1440"/>
      <point x="720" y="1440" type="curve" smooth="yes"/>
      <point x="487" y="1440"/>
      <point x="225" y="1339"/>
      <point x="225" y="1121" type="curve" smooth="yes"/>
      <point x="225" y="1042"/>
      <point x="244" y="956"/>
      <point x="340" y="888" type="curve" smooth="yes"/>
      <point x="397" y="847"/>
      <point x="465" y="844"/>
      <point x="517" y="844" type="curve" smooth="yes"/>
      <point x="626" y="844"/>
      <point x="735" y="900"/>
      <point x="735" y="986" type="curve" smooth="yes"/>
      <point x="735" y="1046"/>
      <point x="665" y="1091"/>
      <point x="563" y="1091" type="curve" smooth="yes"/>
      <point x="541" y="1091"/>
      <point x="522" y="1087"/>
      <point x="511" y="1087" type="curve"/>
      <point x="507" y="1099"/>
      <point x="507" y="1114"/>
      <point x="507" y="1129" type="curve"/>
      <point x="507" y="1222"/>
      <point x="604" y="1290"/>
      <point x="739" y="1290" type="curve" smooth="yes"/>
      <point x="885" y="1290"/>
      <point x="975" y="1226"/>
      <point x="975" y="1050" type="curve" smooth="yes"/>
      <point x="975" y="765"/>
      <point x="341" y="427"/>
      <point x="225" y="397" type="curve"/>
      <point x="225" y="157"/>
      <point x="424" y="0"/>
      <point x="679" y="0" type="curve"/>
      <point x="784" y="0"/>
      <point x="904" y="56"/>
      <point x="975" y="135" type="curve"/>
    </contour>
    <contour>
      <point x="975" y="-113" type="line"/>
      <point x="975" y="-169"/>
      <point x="1005" y="-188"/>
      <point x="1050" y="-188" type="curve" smooth="yes"/>
      <point x="1331" y="-188" type="line"/>
      <point x="1286" y="-176"/>
      <point x="1275" y="-150"/>
      <point x="1275" y="-113" type="curve" smooth="yes"/>
      <point x="1275" y="487" type="line"/>
      <point x="975" y="487" type="line"/>
    </contour>
  </outline>
</glyph>
<glyph name="uni17AE" format="2">
  <advance width="1500"/>
  <unicode hex="17AE"/>
  <anchor x="1312" y="-630" name="L"/>
  <anchor x="1312" y="1440" name="U"/>
  <outline>
    <contour>
      <point x="1116" y="-575" type="line"/>
      <point x="1142" y="-597"/>
      <point x="1201" y="-629"/>
      <point x="1294" y="-630" type="curve"/>
      <point x="1429" y="-630"/>
      <point x="1470" y="-555"/>
      <point x="1500" y="-450" type="curve"/>
      <point x="1462" y="-495"/>
      <point x="1402" y="-499"/>
      <point x="1365" y="-499" type="curve"/>
      <point x="1339" y="-499"/>
      <point x="1297" y="-480"/>
      <point x="1286" y="-465" type="curve"/>
    </contour>
    <contour>
      <point x="951" y="-244" type="curve" smooth="yes"/>
      <point x="951" y="-311"/>
      <point x="1004" y="-345"/>
      <point x="1079" y="-356" type="curve"/>
      <point x="1079" y="-394"/>
      <point x="1041" y="-413"/>
      <point x="1000" y="-413" type="curve" smooth="yes"/>
      <point x="882" y="-413"/>
      <point x="620" y="-150"/>
      <point x="460" y="-150" type="curve" smooth="yes"/>
      <point x="192" y="-150"/>
      <point x="105" y="-278"/>
      <point x="79" y="-409" type="curve"/>
      <point x="148" y="-346"/>
      <point x="213" y="-319"/>
      <point x="285" y="-319" type="curve" smooth="yes"/>
      <point x="445" y="-319"/>
      <point x="711" y="-600"/>
      <point x="905" y="-600" type="curve" smooth="yes"/>
      <point x="1070" y="-600"/>
      <point x="1340" y="-566"/>
      <point x="1340" y="-326" type="curve" smooth="yes"/>
      <point x="1340" y="-203"/>
      <point x="1260" y="-131"/>
      <point x="1114" y="-131" type="curve" smooth="yes"/>
      <point x="1016" y="-131"/>
      <point x="951" y="-169"/>
    </contour>
    <contour>
      <point x="262" y="1170" type="curve"/>
      <point x="262" y="108" type="line"/>
      <point x="292" y="32"/>
      <point x="400" y="0"/>
      <point x="515" y="0" type="curve"/>
      <point x="681" y="31"/>
      <point x="789" y="161"/>
      <point x="789" y="290" type="curve" smooth="yes"/>
      <point x="789" y="414"/>
      <point x="692" y="532"/>
      <point x="562" y="555" type="curve"/>
      <point x="562" y="1125" type="line" smooth="yes"/>
      <point x="562" y="1159"/>
      <point x="570" y="1221"/>
      <point x="589" y="1221" type="curve" smooth="yes"/>
      <point x="622" y="1221"/>
      <point x="765" y="1092"/>
      <point x="787" y="1066" type="curve"/>
      <point x="809" y="1092"/>
      <point x="951" y="1221"/>
      <point x="985" y="1221" type="curve" smooth="yes"/>
      <point x="1004" y="1221"/>
      <point x="1012" y="1159"/>
      <point x="1012" y="1125" type="curve" smooth="yes"/>
      <point x="1012" y="0" type="line"/>
      <point x="1312" y="0" type="line"/>
      <point x="1312" y="1170" type="line" smooth="yes"/>
      <point x="1312" y="1290"/>
      <point x="1155" y="1440"/>
      <point x="1031" y="1440" type="curve" smooth="yes"/>
      <point x="979" y="1440"/>
      <point x="930" y="1406"/>
      <point x="877" y="1365" type="curve" smooth="yes"/>
      <point x="844" y="1339"/>
      <point x="810" y="1309"/>
      <point x="787" y="1286" type="curve"/>
      <point x="765" y="1309"/>
      <point x="731" y="1339"/>
      <point x="697" y="1365" type="curve" smooth="yes"/>
      <point x="645" y="1406"/>
      <point x="592" y="1440"/>
      <point x="544" y="1440" type="curve" smooth="yes"/>
      <point x="420" y="1440"/>
      <point x="262" y="1290"/>
    </contour>
    <contour>
      <point x="667" y="290" type="curve" smooth="yes"/>
      <point x="667" y="219"/>
      <point x="613" y="179"/>
      <point x="562" y="157" type="curve"/>
      <point x="562" y="458" type="line"/>
      <point x="628" y="439"/>
      <point x="667" y="363"/>
    </contour>
  </outline>
</glyph>
<glyph name="uni17B0" format="2">
  <advance width="1500"/>
  <unicode hex="17B0"/>
  <anchor x="1312" y="-713" name="L"/>
  <anchor x="1312" y="1440" name="U"/>
  <outline>
    <contour>
      <point x="562" y="502" type="line"/>
      <point x="562" y="1125" type="line" smooth="yes"/>
      <point x="562" y="1159"/>
      <point x="570" y="1221"/>
      <point x="589" y="1221" type="curve" smooth="yes"/>
      <point x="622" y="1221"/>
      <point x="765" y="1092"/>
      <point x="787" y="1066" type="curve"/>
      <point x="809" y="1092"/>
      <point x="951" y="1221"/>
      <point x="985" y="1221" type="curve" smooth="yes"/>
      <point x="1004" y="1221"/>
      <point x="1012" y="1159"/>
      <point x="1012" y="1125" type="curve" smooth="yes"/>
      <point x="1012" y="0" type="line" smooth="yes"/>
      <point x="1012" y="-98"/>
      <point x="992" y="-118"/>
      <point x="934" y="-151" type="curve" smooth="yes"/>
      <point x="797" y="-229"/>
      <point x="670" y="-273"/>
      <point x="585" y="-282" type="curve" smooth="yes"/>
      <point x="454" y="-296"/>
      <point x="345" y="-379"/>
      <point x="345" y="-473" type="curve" smooth="yes"/>
      <point x="345" y="-578"/>
      <point x="412" y="-713"/>
      <point x="641" y="-713" type="curve" smooth="yes"/>
      <point x="742" y="-713"/>
      <point x="806" y="-638"/>
      <point x="836" y="-589" type="curve"/>
      <point x="877" y="-619"/>
      <point x="907" y="-641"/>
      <point x="994" y="-641" type="curve" smooth="yes"/>
      <point x="1192" y="-641"/>
      <point x="1234" y="-521"/>
      <point x="1237" y="-338" type="curve" smooth="yes"/>
      <point x="1237" y="-319"/>
      <point x="1207" y="-296"/>
      <point x="1147" y="-296" type="curve" smooth="yes"/>
      <point x="1114" y="-296"/>
      <point x="1005" y="-334"/>
      <point x="1005" y="-379" type="curve" smooth="yes"/>
      <point x="1005" y="-405"/>
      <point x="1001" y="-484"/>
      <point x="971" y="-484" type="curve" smooth="yes"/>
      <point x="956" y="-484"/>
      <point x="934" y="-476"/>
      <point x="904" y="-458" type="curve"/>
      <point x="877" y="-446"/>
      <point x="870" y="-435"/>
      <point x="829" y="-435" type="curve" smooth="yes"/>
      <point x="769" y="-435"/>
      <point x="731" y="-473"/>
      <point x="701" y="-503" type="curve"/>
      <point x="675" y="-533"/>
      <point x="656" y="-548"/>
      <point x="645" y="-548" type="curve" smooth="yes"/>
      <point x="604" y="-548"/>
      <point x="589" y="-518"/>
      <point x="589" y="-476" type="curve" smooth="yes"/>
      <point x="589" y="-450"/>
      <point x="611" y="-431"/>
      <point x="630" y="-428" type="curve" smooth="yes"/>
      <point x="769" y="-409"/>
      <point x="994" y="-313"/>
      <point x="1128" y="-237" type="curve" smooth="yes"/>
      <point x="1205" y="-194"/>
      <point x="1312" y="-137"/>
      <point x="1312" y="0" type="curve" smooth="yes"/>
      <point x="1312" y="1170" type="line" smooth="yes"/>
      <point x="1312" y="1290"/>
      <point x="1155" y="1440"/>
      <point x="1031" y="1440" type="curve" smooth="yes"/>
      <point x="979" y="1440"/>
      <point x="930" y="1406"/>
      <point x="877" y="1365" type="curve" smooth="yes"/>
      <point x="844" y="1339"/>
      <point x="810" y="1309"/>
      <point x="787" y="1286" type="curve"/>
      <point x="765" y="1309"/>
      <point x="731" y="1339"/>
      <point x="697" y="1365" type="curve" smooth="yes"/>
      <point x="645" y="1406"/>
      <point x="592" y="1440"/>
      <point x="544" y="1440" type="curve" smooth="yes"/>
      <point x="420" y="1440"/>
      <point x="262" y="1290"/>
      <point x="262" y="1170" type="curve" smooth="yes"/>
      <point x="262" y="459" type="line"/>
    </contour>
    <contour>
      <point x="262" y="807" type="line"/>
      <point x="262" y="108" type="line"/>
      <point x="292" y="32"/>
      <point x="400" y="0"/>
      <point x="515" y="0" type="curve"/>
      <point x="681" y="31"/>
      <point x="789" y="161"/>
      <point x="789" y="290" type="curve" smooth="yes"/>
      <point x="789" y="414"/>
      <point x="692" y="532"/>
      <point x="562" y="555" type="curve"/>
      <point x="562" y="807" type="line"/>
    </contour>
    <contour>
      <point x="667" y="290" type="curve" smooth="yes"/>
      <point x="667" y="219"/>
      <point x="613" y="179"/>
      <point x="562" y="157" type="curve"/>
      <point x="562" y="458" type="line"/>
      <point x="628" y="439"/>
      <point x="667" y="363"/>
    </contour>
  </outline>
</glyph>
<glyph name="uni17B6" format="2">
  <advance width="750"/>
  <unicode hex="17B6"/>
  <anchor x="562" y="0" name="L"/>
  <anchor x="562" y="1440" name="U"/>
  <outline>
    <contour>
      <point x="-168" y="1139" type="line"/>
      <point x="-127" y="1167"/>
      <point x="-59" y="1192"/>
      <point x="-12" y="1192" type="curve" smooth="yes"/>
      <point x="37" y="1192"/>
      <point x="152" y="1123"/>
      <point x="223" y="1072" type="curve" smooth="yes"/>
      <point x="240" y="1060"/>
      <point x="262" y="1039"/>
      <point x="262" y="1014" type="curve" smooth="yes"/>
      <point x="262" y="0" type="line"/>
      <point x="562" y="0" type="line"/>
      <point x="562" y="1063" type="line" smooth="yes"/>
      <point x="562" y="1124"/>
      <point x="527" y="1166"/>
      <point x="465" y="1212" type="curve" smooth="yes"/>
      <point x="407" y="1255"/>
      <point x="116" y="1440"/>
      <point x="44" y="1440" type="curve" smooth="yes"/>
      <point x="-63" y="1440"/>
      <point x="-193" y="1351"/>
      <point x="-273" y="1293" type="curve"/>
    </contour>
  </outline>
</glyph>
<glyph name="uni17C1" format="2">
  <advance width="750"/>
  <unicode hex="17C1"/>
  <outline>
    <contour>
      <point x="262" y="919" type="curve"/>
      <point x="262" y="108" type="line"/>
      <point x="292" y="32"/>
      <point x="400" y="0"/>
      <point x="515" y="0" type="curve"/>
      <point x="681" y="31"/>
      <point x="789" y="161"/>
      <point x="789" y="290" type="curve" smooth="yes"/>
      <point x="789" y="414"/>
      <point x="692" y="532"/>
      <point x="562" y="555" type="curve"/>
      <point x="562" y="930" type="line" smooth="yes"/>
      <point x="562" y="995"/>
      <point x="341" y="1094"/>
      <point x="221" y="1134" type="curve"/>
      <point x="219" y="1135"/>
      <point x="218" y="1136"/>
      <point x="218" y="1138" type="curve"/>
      <point x="221" y="1153"/>
      <point x="228" y="1165"/>
      <point x="246" y="1177" type="curve"/>
      <point x="254" y="1183"/>
      <point x="264" y="1186"/>
      <point x="274" y="1186" type="curve" smooth="yes"/>
      <point x="363" y="1186"/>
      <point x="427" y="1105"/>
      <point x="532" y="1105" type="curve" smooth="yes"/>
      <point x="608" y="1105"/>
      <point x="660" y="1260"/>
      <point x="683" y="1346" type="curve"/>
      <point x="660" y="1336"/>
      <point x="636" y="1334"/>
      <point x="613" y="1334" type="curve" smooth="yes"/>
      <point x="558" y="1334"/>
      <point x="362" y="1440"/>
      <point x="290" y="1440" type="curve" smooth="yes"/>
      <point x="206" y="1440"/>
      <point x="103" y="1165"/>
      <point x="78" y="1061" type="curve"/>
      <point x="78" y="1055"/>
      <point x="80" y="1050"/>
      <point x="85" y="1049" type="curve"/>
      <point x="190" y="1037"/>
      <point x="262" y="963"/>
    </contour>
    <contour>
      <point x="667" y="290" type="curve" smooth="yes"/>
      <point x="667" y="219"/>
      <point x="613" y="179"/>
      <point x="562" y="157" type="curve"/>
      <point x="562" y="458" type="line"/>
      <point x="628" y="439"/>
      <point x="667" y="363"/>
    </contour>
  </outline>
</glyph>
<glyph name="uni17C3" format="2">
  <advance width="750"/>
  <unicode hex="17C3"/>
  <outline>
    <contour>
      <point x="446" y="1590" type="curve" smooth="yes"/>
      <point x="630" y="1590"/>
      <point x="750" y="1691"/>
      <point x="750" y="1822" type="curve" smooth="yes"/>
      <point x="750" y="1912"/>
      <point x="682" y="2089"/>
      <point x="435" y="2107" type="curve" smooth="yes"/>
      <point x="386" y="2111"/>
      <point x="319" y="2160"/>
      <point x="319" y="2231" type="curve" smooth="yes"/>
      <point x="319" y="2310"/>
      <point x="244" y="2404"/>
      <point x="0" y="2415" type="curve"/>
      <point x="49" y="2377"/>
      <point x="75" y="2325"/>
      <point x="75" y="2261" type="curve" smooth="yes"/>
      <point x="75" y="2085"/>
      <point x="191" y="1969"/>
      <point x="390" y="1941" type="curve" smooth="yes"/>
      <point x="461" y="1931"/>
      <point x="506" y="1871"/>
      <point x="506" y="1822" type="curve" smooth="yes"/>
      <point x="506" y="1777"/>
      <point x="476" y="1752"/>
      <point x="446" y="1752" type="curve" smooth="yes"/>
      <point x="416" y="1752"/>
      <point x="394" y="1770"/>
      <point x="382" y="1789" type="curve"/>
      <point x="364" y="1830"/>
      <point x="326" y="1849"/>
      <point x="274" y="1849" type="curve" smooth="yes"/>
      <point x="214" y="1849"/>
      <point x="150" y="1807"/>
      <point x="150" y="1762" type="curve" smooth="yes"/>
      <point x="150" y="1684"/>
      <point x="244" y="1590"/>
    </contour>
    <contour>
      <point x="262" y="919" type="curve"/>
      <point x="262" y="108" type="line"/>
      <point x="292" y="32"/>
      <point x="400" y="0"/>
      <point x="515" y="0" type="curve"/>
      <point x="681" y="31"/>
      <point x="789" y="161"/>
      <point x="789" y="290" type="curve" smooth="yes"/>
      <point x="789" y="414"/>
      <point x="692" y="532"/>
      <point x="562" y="555" type="curve"/>
      <point x="562" y="930" type="line" smooth="yes"/>
      <point x="562" y="995"/>
      <point x="341" y="1094"/>
      <point x="221" y="1134" type="curve"/>
      <point x="219" y="1135"/>
      <point x="218" y="1136"/>
      <point x="218" y="1138" type="curve"/>
      <point x="221" y="1153"/>
      <point x="228" y="1165"/>
      <point x="246" y="1177" type="curve"/>
      <point x="254" y="1183"/>
      <point x="264" y="1186"/>
      <point x="274" y="1186" type="curve" smooth="yes"/>
      <point x="363" y="1186"/>
      <point x="427" y="1105"/>
      <point x="532" y="1105" type="curve" smooth="yes"/>
      <point x="608" y="1105"/>
      <point x="660" y="1260"/>
      <point x="683" y="1346" type="curve"/>
      <point x="660" y="1336"/>
      <point x="636" y="1334"/>
      <point x="613" y="1334" type="curve" smooth="yes"/>
      <point x="558" y="1334"/>
      <point x="362" y="1440"/>
      <point x="290" y="1440" type="curve" smooth="yes"/>
      <point x="206" y="1440"/>
      <point x="103" y="1165"/>
      <point x="78" y="1061" type="curve"/>
      <point x="78" y="1055"/>
      <point x="80" y="1050"/>
      <point x="85" y="1049" type="curve"/>
      <point x="190" y="1037"/>
      <point x="262" y="963"/>
    </contour>
    <contour>
      <point x="667" y="290" type="curve" smooth="yes"/>
      <point x="667" y="219"/>
      <point x="613" y="179"/>
      <point x="562" y="157" type="curve"/>
      <point x="562" y="458" type="line"/>
      <point x="628" y="439"/>
      <point x="667" y="363"/>
    </contour>
  </outline>
</glyph>
<glyph name="uni17D2" format="2">
  <unicode hex="17D2"/>
  <anchor x="-188" y="-694" name="L"/>
  <anchor x="-188" y="0" name="_L"/>
  <anchor x="-638" y="0" name="_M"/>
  <outline>
    <contour>
      <point x="-750" y="-563" type="line"/>
      <point x="-750" y="-750" type="line"/>
      <point x="-525" y="-750" type="line"/>
      <point x="-525" y="-563" type="line"/>
      <point x="-338" y="-563" type="line"/>
      <point x="-338" y="-338" type="line"/>
      <point x="-525" y="-338" type="line"/>
      <point x="-525" y="-150" type="line"/>
      <point x="-750" y="-150" type="line"/>
      <point x="-750" y="-338" type="line"/>
      <point x="-938" y="-338" type="line"/>
      <point x="-938" y="-563" type="line"/>
    </contour>
  </outline>
</glyph>
<glyph name="uni17E6" format="2">
  <advance width="1350"/>
  <unicode hex="17E6"/>
  <outline>
    <contour>
      <point x="1192" y="675" type="curve" smooth="yes"/>
      <point x="1192" y="1129"/>
      <point x="949" y="1350"/>
      <point x="701" y="1350" type="curve"/>
      <point x="645" y="1350"/>
      <point x="607" y="1346"/>
      <point x="577" y="1339" type="curve"/>
      <point x="607" y="1399"/>
      <point x="626" y="1470"/>
      <point x="626" y="1526" type="curve"/>
      <point x="626" y="1635"/>
      <point x="544" y="1680"/>
      <point x="424" y="1680" type="curve"/>
      <point x="217" y="1680"/>
      <point x="112" y="1522"/>
      <point x="67" y="1447" type="curve"/>
      <point x="124" y="1489"/>
      <point x="187" y="1522"/>
      <point x="270" y="1522" type="curve"/>
      <point x="300" y="1522"/>
      <point x="349" y="1485"/>
      <point x="349" y="1399" type="curve"/>
      <point x="349" y="1275"/>
      <point x="322" y="1162"/>
      <point x="266" y="1076" type="curve"/>
      <point x="326" y="1129"/>
      <point x="431" y="1192"/>
      <point x="649" y="1192" type="curve"/>
      <point x="810" y="1192"/>
      <point x="892" y="896"/>
      <point x="892" y="675" type="curve"/>
      <point x="892" y="382"/>
      <point x="765" y="150"/>
      <point x="630" y="150" type="curve"/>
      <point x="487" y="150"/>
      <point x="442" y="326"/>
      <point x="442" y="446" type="curve"/>
      <point x="442" y="495" type="line"/>
      <point x="476" y="465"/>
      <point x="532" y="446"/>
      <point x="600" y="446" type="curve"/>
      <point x="712" y="446"/>
      <point x="787" y="495"/>
      <point x="787" y="604" type="curve"/>
      <point x="787" y="727"/>
      <point x="645" y="795"/>
      <point x="514" y="795" type="curve"/>
      <point x="255" y="795"/>
      <point x="142" y="570"/>
      <point x="142" y="442" type="curve"/>
      <point x="142" y="165"/>
      <point x="360" y="0"/>
      <point x="630" y="0" type="curve"/>
      <point x="919" y="0"/>
      <point x="1192" y="247"/>
    </contour>
  </outline>
</glyph>
<glyph name="uni17E7" format="2">
  <advance width="1800"/>
  <unicode hex="17E7"/>
  <outline>
    <contour>
      <point x="470" y="1147" type="line" smooth="yes"/>
      <point x="470" y="1185"/>
      <point x="470" y="1249"/>
      <point x="489" y="1249" type="curve" smooth="yes"/>
      <point x="511" y="1249"/>
      <point x="657" y="1091"/>
      <point x="695" y="1091" type="curve" smooth="yes"/>
      <point x="732" y="1091"/>
      <point x="879" y="1249"/>
      <point x="901" y="1249" type="curve" smooth="yes"/>
      <point x="920" y="1249"/>
      <point x="920" y="1181"/>
      <point x="920" y="1147" type="curve" smooth="yes"/>
      <point x="920" y="199" type="line" smooth="yes"/>
      <point x="920" y="94"/>
      <point x="1085" y="0"/>
      <point x="1276" y="0" type="curve" smooth="yes"/>
      <point x="1467" y="0"/>
      <point x="1632" y="94"/>
      <point x="1632" y="199" type="curve" smooth="yes"/>
      <point x="1632" y="1406" type="line" smooth="yes"/>
      <point x="1632" y="1654"/>
      <point x="1494" y="1770"/>
      <point x="1272" y="1770" type="curve" smooth="yes"/>
      <point x="1164" y="1770"/>
      <point x="1085" y="1684"/>
      <point x="1070" y="1620" type="curve"/>
      <point x="1107" y="1642"/>
      <point x="1149" y="1665"/>
      <point x="1201" y="1665" type="curve" smooth="yes"/>
      <point x="1291" y="1665"/>
      <point x="1332" y="1549"/>
      <point x="1332" y="1387" type="curve" smooth="yes"/>
      <point x="1332" y="217" type="line" smooth="yes"/>
      <point x="1332" y="169"/>
      <point x="1287" y="135"/>
      <point x="1276" y="135" type="curve" smooth="yes"/>
      <point x="1261" y="135"/>
      <point x="1220" y="169"/>
      <point x="1220" y="217" type="curve" smooth="yes"/>
      <point x="1220" y="1185" type="line" smooth="yes"/>
      <point x="1220" y="1245"/>
      <point x="1092" y="1440"/>
      <point x="924" y="1440" type="curve" smooth="yes"/>
      <point x="849" y="1440"/>
      <point x="725" y="1290"/>
      <point x="695" y="1290" type="curve" smooth="yes"/>
      <point x="665" y="1290"/>
      <point x="541" y="1440"/>
      <point x="466" y="1440" type="curve" smooth="yes"/>
      <point x="297" y="1440"/>
      <point x="170" y="1245"/>
      <point x="170" y="1185" type="curve" smooth="yes"/>
      <point x="170" y="106" type="line"/>
      <point x="200" y="19"/>
      <point x="324" y="-3"/>
      <point x="410" y="-3" type="curve"/>
      <point x="609" y="34"/>
      <point x="695" y="199"/>
      <point x="695" y="289" type="curve" smooth="yes"/>
      <point x="695" y="399"/>
      <point x="579" y="452"/>
      <point x="470" y="467" type="curve"/>
    </contour>
    <contour>
      <point x="590" y="289" type="curve" smooth="yes"/>
      <point x="590" y="238"/>
      <point x="523" y="162"/>
      <point x="470" y="147" type="curve"/>
      <point x="470" y="381" type="line"/>
      <point x="518" y="379"/>
      <point x="590" y="344"/>
    </contour>
  </outline>
</glyph>
<glyph name="uni19E0" format="2">
  <advance width="1390"/>
  <unicode hex="19E0"/>
  <outline>
    <contour>
      <point x="160" y="-668" type="curve" smooth="yes"/>
      <point x="160" y="-1064"/>
      <point x="329" y="-1200"/>
      <point x="479" y="-1200" type="curve"/>
      <point x="583" y="-1200"/>
      <point x="685" y="-1156"/>
      <point x="723" y="-1118" type="curve"/>
      <point x="760" y="-1155"/>
      <point x="862" y="-1200"/>
      <point x="967" y="-1200" type="curve"/>
      <point x="1147" y="-1200"/>
      <point x="1248" y="-994"/>
      <point x="1248" y="-795" type="curve" smooth="yes"/>
      <point x="1248" y="-619"/>
      <point x="1138" y="-465"/>
      <point x="925" y="-465" type="curve" smooth="yes"/>
      <point x="772" y="-465"/>
      <point x="659" y="-560"/>
      <point x="659" y="-664" type="curve" smooth="yes"/>
      <point x="659" y="-724"/>
      <point x="698" y="-829"/>
      <point x="847" y="-829" type="curve" smooth="yes"/>
      <point x="894" y="-829"/>
      <point x="934" y="-820"/>
      <point x="967" y="-803" type="curve"/>
      <point x="967" y="-878"/>
      <point x="937" y="-1024"/>
      <point x="873" y="-1024" type="curve"/>
      <point x="820" y="-1024"/>
      <point x="779" y="-1005"/>
      <point x="723" y="-938" type="curve"/>
      <point x="667" y="-1005"/>
      <point x="625" y="-1028" name="hr01"/>
      <point x="573" y="-1028" type="curve"/>
      <point x="494" y="-1028"/>
      <point x="460" y="-844"/>
      <point x="460" y="-686" type="curve" smooth="yes"/>
      <point x="460" y="-323"/>
      <point x="539" y="-229"/>
      <point x="595" y="-229" type="curve" smooth="yes"/>
      <point x="733" y="-229"/>
      <point x="788" y="-296" name="hr02"/>
      <point x="918" y="-296" type="curve" smooth="yes"/>
      <point x="1102" y="-296"/>
      <point x="1218" y="-146"/>
      <point x="1218" y="37" type="curve" smooth="yes"/>
      <point x="1218" y="124"/>
      <point x="1158" y="211" name="hr03"/>
      <point x="1158" y="307" type="curve" smooth="yes"/>
      <point x="1158" y="390"/>
      <point x="1195" y="472"/>
      <point x="1274" y="472" type="curve"/>
      <point x="1228" y="529"/>
      <point x="1187" y="566"/>
      <point x="1075" y="566" type="curve"/>
      <point x="948" y="566"/>
      <point x="865" y="424"/>
      <point x="865" y="289" type="curve" smooth="yes"/>
      <point x="865" y="225"/>
      <point x="918" y="147" name="hr04"/>
      <point x="918" y="64" type="curve" smooth="yes"/>
      <point x="918" y="-16"/>
      <point x="910" y="-79"/>
      <point x="850" y="-79" type="curve" smooth="yes"/>
      <point x="738" y="-79"/>
      <point x="704" y="-23" name="hr05"/>
      <point x="550" y="-23" type="curve" smooth="yes"/>
      <point x="419" y="-23"/>
      <point x="160" y="-165"/>
    </contour>
    <contour>
      <point x="207" y="1327" type="curve" smooth="yes"/>
      <point x="207" y="1099" name="hr06"/>
      <point x="390" y="915"/>
      <point x="694" y="915" type="curve"/>
      <point x="998" y="915"/>
      <point x="1182" y="1099"/>
      <point x="1182" y="1327" type="curve" smooth="yes"/>
      <point x="1182" y="1555"/>
      <point x="998" y="1740"/>
      <point x="694" y="1740" type="curve" smooth="yes"/>
      <point x="390" y="1740"/>
      <point x="207" y="1555"/>
    </contour>
    <contour>
      <point x="469" y="1327" type="curve" smooth="yes"/>
      <point x="469" y="1481"/>
      <point x="539" y="1609"/>
      <point x="694" y="1609" type="curve"/>
      <point x="848" y="1609"/>
      <point x="919" y="1481"/>
      <point x="919" y="1327" type="curve" smooth="yes"/>
      <point x="919" y="1174"/>
      <point x="848" y="1046"/>
      <point x="694" y="1046" type="curve" smooth="yes"/>
      <point x="539" y="1046"/>
      <point x="469" y="1174"/>
    </contour>
  </outline>
</glyph>
<glyph name="uni19E5" format="2">
  <advance width="1390"/>
  <unicode hex="19E5"/>
  <outline>
    <contour>
      <point x="170" y="1173" type="curve" smooth="yes"/>
      <point x="170" y="776"/>
      <point x="335" y="637"/>
      <point x="485" y="637" type="curve"/>
      <point x="527" y="637"/>
      <point x="604" y="644"/>
      <point x="647" y="652" type="curve"/>
      <point x="684" y="660"/>
      <point x="725" y="667"/>
      <point x="748" y="667" type="curve"/>
      <point x="789" y="667"/>
      <point x="838" y="660"/>
      <point x="890" y="652" type="curve" smooth="yes"/>
      <point x="939" y="645"/>
      <point x="988" y="637"/>
      <point x="1040" y="637" type="curve" smooth="yes"/>
      <point x="1144" y="637"/>
      <point x="1172" y="677"/>
      <point x="1172" y="697" type="curve" smooth="yes"/>
      <point x="1172" y="749"/>
      <point x="1112" y="813"/>
      <point x="1039" y="880" type="curve" smooth="yes"/>
      <point x="992" y="922"/>
      <point x="943" y="967"/>
      <point x="932" y="1038" type="curve"/>
      <point x="965" y="1019"/>
      <point x="1010" y="1008"/>
      <point x="1063" y="1008" type="curve"/>
      <point x="1159" y="1008"/>
      <point x="1239" y="1049"/>
      <point x="1239" y="1158" type="curve" smooth="yes"/>
      <point x="1239" y="1263"/>
      <point x="1139" y="1364"/>
      <point x="984" y="1364" type="curve" smooth="yes"/>
      <point x="774" y="1364"/>
      <point x="658" y="1236"/>
      <point x="658" y="1079" type="curve" smooth="yes"/>
      <point x="658" y="992"/>
      <point x="717" y="904"/>
      <point x="812" y="813" type="curve"/>
      <point x="781" y="813"/>
      <point x="752" y="817"/>
      <point x="733" y="817" type="curve"/>
      <point x="684" y="817"/>
      <point x="602" y="798"/>
      <point x="568" y="798" type="curve" smooth="yes"/>
      <point x="499" y="798"/>
      <point x="470" y="973"/>
      <point x="470" y="1136" type="curve" smooth="yes"/>
      <point x="470" y="1383"/>
      <point x="603" y="1547"/>
      <point x="680" y="1638" type="curve"/>
      <point x="1022" y="1638"/>
      <point x="1190" y="1672"/>
      <point x="1190" y="1878" type="curve"/>
      <point x="1190" y="1909"/>
      <point x="1175" y="1964"/>
      <point x="1160" y="2017" type="curve" smooth="yes"/>
      <point x="1145" y="2069"/>
      <point x="1130" y="2121"/>
      <point x="1130" y="2148" type="curve" smooth="yes"/>
      <point x="1130" y="2231"/>
      <point x="1167" y="2313"/>
      <point x="1247" y="2313" type="curve"/>
      <point x="1199" y="2369"/>
      <point x="1163" y="2407"/>
      <point x="1048" y="2407" type="curve"/>
      <point x="920" y="2407"/>
      <point x="845" y="2231"/>
      <point x="845" y="2129" type="curve" smooth="yes"/>
      <point x="845" y="2092"/>
      <point x="855" y="2047"/>
      <point x="868" y="2002" type="curve" smooth="yes"/>
      <point x="881" y="1957"/>
      <point x="890" y="1917"/>
      <point x="890" y="1882" type="curve" smooth="yes"/>
      <point x="890" y="1825"/>
      <point x="833" y="1804"/>
      <point x="770" y="1796" type="curve"/>
      <point x="785" y="1823"/>
      <point x="789" y="1844"/>
      <point x="789" y="1871" type="curve"/>
      <point x="789" y="2031"/>
      <point x="649" y="2114"/>
      <point x="508" y="2114" type="curve" smooth="yes"/>
      <point x="365" y="2114"/>
      <point x="226" y="2031"/>
      <point x="226" y="1871" type="curve" smooth="yes"/>
      <point x="226" y="1768"/>
      <point x="283" y="1708"/>
      <point x="377" y="1657" type="curve"/>
      <point x="336" y="1608"/>
      <point x="170" y="1386"/>
    </contour>
    <contour>
      <point x="786" y="-1200" type="line"/>
      <point x="1161" y="-1200" type="line" name="hr01"/>
      <point x="1161" y="240" type="line"/>
      <point x="786" y="240" type="line"/>
      <point x="786" y="155"/>
      <point x="700" y="-71"/>
      <point x="599" y="-71" type="curve"/>
      <point x="547" y="-71"/>
      <point x="527" y="-26"/>
      <point x="527" y="0" type="curve"/>
      <point x="602" y="21"/>
      <point x="670" y="71"/>
      <point x="670" y="150" type="curve"/>
      <point x="670" y="225"/>
      <point x="603" y="296"/>
      <point x="467" y="296" type="curve" smooth="yes"/>
      <point x="336" y="296"/>
      <point x="205" y="214"/>
      <point x="205" y="37" type="curve" smooth="yes"/>
      <point x="205" y="-95"/>
      <point x="339" y="-229"/>
      <point x="539" y="-229" type="curve" smooth="yes"/>
      <point x="626" y="-229"/>
      <point x="718" y="-191"/>
      <point x="786" y="-131" type="curve"/>
    </contour>
    <contour>
      <point x="450" y="1875" type="curve" smooth="yes"/>
      <point x="450" y="1915"/>
      <point x="473" y="1945"/>
      <point x="508" y="1945" type="curve"/>
      <point x="543" y="1945"/>
      <point x="566" y="1915"/>
      <point x="566" y="1875" type="curve" smooth="yes"/>
      <point x="566" y="1839"/>
      <point x="535" y="1807"/>
      <point x="508" y="1799" type="curve"/>
      <point x="482" y="1807"/>
      <point x="450" y="1840"/>
    </contour>
  </outline>
</glyph>
<glyph name="uni19F8" format="2">
  <advance width="1390"/>
  <unicode hex="19F8"/>
  <outline>
    <contour>
      <point x="162" y="-668" type="curve" smooth="yes"/>
      <point x="162" y="-1064"/>
      <point x="331" y="-1200"/>
      <point x="481" y="-1200" type="curve"/>
      <point x="585" y="-1200"/>
      <point x="687" y="-1156"/>
      <point x="725" y="-1118" type="curve"/>
      <point x="762" y="-1155"/>
      <point x="864" y="-1200"/>
      <point x="969" y="-1200" type="curve"/>
      <point x="1149" y="-1200"/>
      <point x="1250" y="-994"/>
      <point x="1250" y="-795" type="curve" smooth="yes"/>
      <point x="1250" y="-619"/>
      <point x="1140" y="-465"/>
      <point x="927" y="-465" type="curve" smooth="yes"/>
      <point x="774" y="-465"/>
      <point x="661" y="-560"/>
      <point x="661" y="-664" type="curve" smooth="yes"/>
      <point x="661" y="-724"/>
      <point x="700" y="-829"/>
      <point x="849" y="-829" type="curve" smooth="yes"/>
      <point x="896" y="-829"/>
      <point x="936" y="-820"/>
      <point x="969" y="-803" type="curve"/>
      <point x="969" y="-878"/>
      <point x="939" y="-1024"/>
      <point x="875" y="-1024" type="curve"/>
      <point x="822" y="-1024"/>
      <point x="781" y="-1005"/>
      <point x="725" y="-938" type="curve"/>
      <point x="669" y="-1005"/>
      <point x="627" y="-1028" name="hr01"/>
      <point x="575" y="-1028" type="curve"/>
      <point x="496" y="-1028"/>
      <point x="462" y="-844"/>
      <point x="462" y="-686" type="curve" smooth="yes"/>
      <point x="462" y="-323"/>
      <point x="541" y="-229"/>
      <point x="597" y="-229" type="curve" smooth="yes"/>
      <point x="735" y="-229"/>
      <point x="790" y="-296" name="hr02"/>
      <point x="920" y="-296" type="curve" smooth="yes"/>
      <point x="1104" y="-296"/>
      <point x="1220" y="-146"/>
      <point x="1220" y="37" type="curve" smooth="yes"/>
      <point x="1220" y="124"/>
      <point x="1160" y="211" name="hr03"/>
      <point x="1160" y="307" type="curve" smooth="yes"/>
      <point x="1160" y="390"/>
      <point x="1197" y="472"/>
      <point x="1276" y="472" type="curve"/>
      <point x="1230" y="529"/>
      <point x="1189" y="566"/>
      <point x="1077" y="566" type="curve"/>
      <point x="950" y="566"/>
      <point x="867" y="424"/>
      <point x="867" y="289" type="curve" smooth="yes"/>
      <point x="867" y="225"/>
      <point x="920" y="147" name="hr04"/>
      <point x="920" y="64" type="curve" smooth="yes"/>
      <point x="920" y="-16"/>
      <point x="912" y="-79"/>
      <point x="852" y="-79" type="curve" smooth="yes"/>
      <point x="740" y="-79"/>
      <point x="706" y="-23" name="hr05"/>
      <point x="552" y="-23" type="curve" smooth="yes"/>
      <point x="421" y="-23"/>
      <point x="162" y="-165"/>
    </contour>
    <contour>
      <point x="726" y="637" type="line"/>
      <point x="1101" y="637" type="line"/>
      <point x="1101" y="2077" type="line"/>
      <point x="726" y="2077" type="line"/>
      <point x="726" y="1992"/>
      <point x="640" y="1766"/>
      <point x="539" y="1766" type="curve"/>
      <point x="487" y="1766"/>
      <point x="467" y="1811"/>
      <point x="467" y="1837" type="curve"/>
      <point x="542" y="1858"/>
      <point x="610" y="1908"/>
      <point x="610" y="1987" type="curve"/>
      <point x="610" y="2062"/>
      <point x="543" y="2133"/>
      <point x="407" y="2133" type="curve" smooth="yes"/>
      <point x="276" y="2133"/>
      <point x="145" y="2051"/>
      <point x="145" y="1874" type="curve" smooth="yes" name="hr06"/>
      <point x="145" y="1742"/>
      <point x="279" y="1608"/>
      <point x="479" y="1608" type="curve" smooth="yes"/>
      <point x="566" y="1608"/>
      <point x="658" y="1646"/>
      <point x="726" y="1706" type="curve"/>
    </contour>
  </outline>
</glyph>
<glyph name="uni19F9" format="2">
  <advance width="1390"/>
  <unicode hex="19F9"/>
  <outline>
    <contour>
      <point x="171" y="-720" type="curve" smooth="yes"/>
      <point x="171" y="-972"/>
      <point x="404" y="-1200"/>
      <point x="745" y="-1200" type="curve"/>
      <point x="1025" y="-1200"/>
      <point x="1240" y="-1069"/>
      <point x="1240" y="-844" type="curve" smooth="yes"/>
      <point x="1240" y="-680"/>
      <point x="1116" y="-578"/>
      <point x="917" y="-578" type="curve" smooth="yes"/>
      <point x="764" y="-578"/>
      <point x="655" y="-668"/>
      <point x="655" y="-784" type="curve" smooth="yes"/>
      <point x="655" y="-885"/>
      <point x="722" y="-953"/>
      <point x="839" y="-953" type="curve" smooth="yes"/>
      <point x="876" y="-953"/>
      <point x="909" y="-949"/>
      <point x="940" y="-934" type="curve"/>
      <point x="913" y="-998"/>
      <point x="842" y="-1035"/>
      <point x="745" y="-1035" type="curve"/>
      <point x="569" y="-1035"/>
      <point x="471" y="-893"/>
      <point x="471" y="-720" type="curve" smooth="yes"/>
      <point x="471" y="-551"/>
      <point x="580" y="-416"/>
      <point x="711" y="-416" type="curve" smooth="yes"/>
      <point x="778" y="-416"/>
      <point x="840" y="-454"/>
      <point x="872" y="-480" type="curve"/>
      <point x="903" y="-503"/>
      <point x="936" y="-518"/>
      <point x="996" y="-518" type="curve"/>
      <point x="1064" y="-518"/>
      <point x="1124" y="-484"/>
      <point x="1124" y="-443" type="curve" smooth="yes"/>
      <point x="1124" y="-374"/>
      <point x="970" y="-274"/>
      <point x="800" y="-237" type="curve" smooth="yes"/>
      <point x="737" y="-224"/>
      <point x="622" y="-135" name="hr01"/>
      <point x="622" y="-53" type="curve" smooth="yes"/>
      <point x="622" y="-8"/>
      <point x="655" y="49"/>
      <point x="719" y="49" type="curve" smooth="yes"/>
      <point x="809" y="49"/>
      <point x="884" y="-98"/>
      <point x="1004" y="-98" type="curve" smooth="yes"/>
      <point x="1105" y="-98"/>
      <point x="1210" y="-53"/>
      <point x="1210" y="49" type="curve" smooth="yes"/>
      <point x="1210" y="89"/>
      <point x="1147" y="252"/>
      <point x="1147" y="307" type="curve" smooth="yes"/>
      <point x="1147" y="390"/>
      <point x="1187" y="472"/>
      <point x="1266" y="472" type="curve"/>
      <point x="1228" y="529"/>
      <point x="1180" y="566"/>
      <point x="1067" y="566" type="curve"/>
      <point x="940" y="566"/>
      <point x="857" y="424"/>
      <point x="857" y="289" type="curve" smooth="yes"/>
      <point x="857" y="262"/>
      <point x="869" y="199"/>
      <point x="895" y="165" type="curve"/>
      <point x="834" y="213"/>
      <point x="737" y="240"/>
      <point x="685" y="240" type="curve"/>
      <point x="482" y="240"/>
      <point x="332" y="120"/>
      <point x="332" y="-19" type="curve" smooth="yes"/>
      <point x="332" y="-131"/>
      <point x="411" y="-221"/>
      <point x="512" y="-274" type="curve"/>
      <point x="516" y="-274" type="line"/>
      <point x="321" y="-349"/>
      <point x="171" y="-533" name="hr02"/>
    </contour>
    <contour>
      <point x="726" y="637" type="line"/>
      <point x="1101" y="637" type="line"/>
      <point x="1101" y="2077" type="line"/>
      <point x="726" y="2077" type="line"/>
      <point x="726" y="1992"/>
      <point x="640" y="1766"/>
      <point x="539" y="1766" type="curve"/>
      <point x="487" y="1766"/>
      <point x="467" y="1811"/>
      <point x="467" y="1837" type="curve"/>
      <point x="542" y="1858"/>
      <point x="610" y="1908"/>
      <point x="610" y="1987" type="curve"/>
      <point x="610" y="2062"/>
      <point x="543" y="2133"/>
      <point x="407" y="2133" type="curve" smooth="yes"/>
      <point x="276" y="2133"/>
      <point x="145" y="2051"/>
      <point x="145" y="1874" type="curve" smooth="yes" name="hr03"/>
      <point x="145" y="1742"/>
      <point x="279" y="1608"/>
      <point x="479" y="1608" type="curve" smooth="yes"/>
      <point x="566" y="1608"/>
      <point x="658" y="1646"/>
      <point x="726" y="1706" type="curve"/>
    </contour>
  </outline>
</glyph>
<glyph name="uni19FC" format="2">
  <advance width="3200"/>
  <unicode hex="19FC"/>
  <outline>
    <contour>
      <point x="1937" y="-624" type="line"/>
      <point x="1966" y="-711"/>
      <point x="2092" y="-733"/>
      <point x="2177" y="-733" type="curve"/>
      <point x="2376" y="-696"/>
      <point x="2462" y="-531"/>
      <point x="2462" y="-441" type="curve"/>
      <point x="2462" y="-331"/>
      <point x="2345" y="-279"/>
      <point x="2237" y="-263" type="curve"/>
      <point x="2237" y="-75" type="line"/>
      <point x="2237" y="-40"/>
      <point x="2245" y="30"/>
      <point x="2264" y="30" type="curve" smooth="yes"/>
      <point x="2297" y="30"/>
      <point x="2451" y="-128"/>
      <point x="2462" y="-128" type="curve" smooth="yes"/>
      <point x="2474" y="-128"/>
      <point x="2627" y="34"/>
      <point x="2661" y="34" type="curve" smooth="yes"/>
      <point x="2680" y="34"/>
      <point x="2687" y="-41"/>
      <point x="2687" y="-75" type="curve" smooth="yes"/>
      <point x="2687" y="-986" type="line" smooth="yes"/>
      <point x="2687" y="-1035"/>
      <point x="2365" y="-1069"/>
      <point x="2256" y="-1069" type="curve" smooth="yes"/>
      <point x="2144" y="-1069"/>
      <point x="1825" y="-1035"/>
      <point x="1825" y="-986" type="curve" smooth="yes"/>
      <point x="1825" y="206" type="line" smooth="yes"/>
      <point x="1825" y="454"/>
      <point x="1686" y="570"/>
      <point x="1465" y="570" type="curve" smooth="yes"/>
      <point x="1356" y="570"/>
      <point x="1278" y="484"/>
      <point x="1262" y="420" type="curve"/>
      <point x="1301" y="443"/>
      <point x="1341" y="465"/>
      <point x="1394" y="465" type="curve"/>
      <point x="1484" y="465"/>
      <point x="1525" y="350"/>
      <point x="1525" y="187" type="curve" smooth="yes"/>
      <point x="1525" y="-1024" type="line" smooth="yes"/>
      <point x="1525" y="-1129"/>
      <point x="1989" y="-1200"/>
      <point x="2256" y="-1200" type="curve" smooth="yes"/>
      <point x="2526" y="-1200"/>
      <point x="2987" y="-1129"/>
      <point x="2987" y="-1024" type="curve" smooth="yes"/>
      <point x="2987" y="-30" type="line" smooth="yes"/>
      <point x="2987" y="67"/>
      <point x="2830" y="240"/>
      <point x="2706" y="240" type="curve" smooth="yes"/>
      <point x="2654" y="240"/>
      <point x="2605" y="206"/>
      <point x="2552" y="165" type="curve"/>
      <point x="2519" y="138"/>
      <point x="2485" y="109"/>
      <point x="2462" y="86" type="curve"/>
      <point x="2439" y="109"/>
      <point x="2407" y="138"/>
      <point x="2372" y="165" type="curve"/>
      <point x="2320" y="206"/>
      <point x="2267" y="240"/>
      <point x="2219" y="240" type="curve" smooth="yes"/>
      <point x="2095" y="240"/>
      <point x="1937" y="67"/>
      <point x="1937" y="-30" type="curve" smooth="yes"/>
    </contour>
    <contour>
      <point x="582" y="-559" type="curve" smooth="yes"/>
      <point x="762" y="-559"/>
      <point x="900" y="-420"/>
      <point x="900" y="-308" type="curve"/>
      <point x="900" y="-173"/>
      <point x="807" y="-116"/>
      <point x="706" y="-116" type="curve" smooth="yes"/>
      <point x="586" y="-116"/>
      <point x="550" y="-195"/>
      <point x="550" y="-248" type="curve" smooth="yes"/>
      <point x="550" y="-315"/>
      <point x="579" y="-341"/>
      <point x="635" y="-360" type="curve"/>
      <point x="635" y="-391"/>
      <point x="609" y="-409"/>
      <point x="586" y="-409" type="curve"/>
      <point x="519" y="-409"/>
      <point x="462" y="-315"/>
      <point x="462" y="-195" type="curve" smooth="yes"/>
      <point x="462" y="8"/>
      <point x="574" y="90"/>
      <point x="706" y="90" type="curve" smooth="yes"/>
      <point x="860" y="90"/>
      <point x="987" y="-24"/>
      <point x="987" y="-420" type="curve" smooth="yes"/>
      <point x="987" y="-809"/>
      <point x="709" y="-1106" name="hr01"/>
      <point x="417" y="-1106" type="curve" smooth="yes"/>
      <point x="394" y="-1106" type="line" smooth="yes"/>
      <point x="366" y="-1106"/>
      <point x="315" y="-1103"/>
      <point x="279" y="-1091" type="curve"/>
      <point x="330" y="-1155"/>
      <point x="467" y="-1200"/>
      <point x="571" y="-1200" type="curve"/>
      <point x="875" y="-1200"/>
      <point x="1287" y="-904"/>
      <point x="1287" y="-439" type="curve" smooth="yes"/>
      <point x="1287" y="49"/>
      <point x="1039" y="240"/>
      <point x="706" y="240" type="curve" smooth="yes"/>
      <point x="369" y="240"/>
      <point x="162" y="45"/>
      <point x="162" y="-176" type="curve" smooth="yes"/>
      <point x="162" y="-405"/>
      <point x="321" y="-559"/>
    </contour>
    <contour>
      <point x="1626" y="637" type="line"/>
      <point x="2001" y="637" type="line"/>
      <point x="2001" y="2077" type="line"/>
      <point x="1626" y="2077" type="line"/>
      <point x="1626" y="1992"/>
      <point x="1540" y="1766"/>
      <point x="1439" y="1766" type="curve"/>
      <point x="1387" y="1766"/>
      <point x="1367" y="1811"/>
      <point x="1367" y="1837" type="curve"/>
      <point x="1442" y="1858"/>
      <point x="1510" y="1908"/>
      <point x="1510" y="1987" type="curve"/>
      <point x="1510" y="2062"/>
      <point x="1443" y="2133"/>
      <point x="1307" y="2133" type="curve" smooth="yes"/>
      <point x="1176" y="2133"/>
      <point x="1045" y="2051"/>
      <point x="1045" y="1874" type="curve" smooth="yes"/>
      <point x="1045" y="1742"/>
      <point x="1179" y="1608"/>
      <point x="1379" y="1608" type="curve" smooth="yes"/>
      <point x="1466" y="1608"/>
      <point x="1558" y="1646"/>
      <point x="1626" y="1706" type="curve"/>
    </contour>
    <contour>
      <point x="2357" y="-441" type="curve" smooth="yes"/>
      <point x="2357" y="-492"/>
      <point x="2289" y="-567"/>
      <point x="2237" y="-583" type="curve"/>
      <point x="2237" y="-349" type="line" name="hr02"/>
      <point x="2285" y="-352"/>
      <point x="2357" y="-385"/>
    </contour>
  </outline>
</glyph>
<glyph name="uni178017C5.right.alt" format="2">
  <advance width="2700"/>
  <anchor x="1200" y="0" name="L"/>
  <anchor x="750" y="1440" name="MA"/>
  <anchor x="1200" y="1440" name="U"/>
  <outline>
    <contour>
      <point x="262" y="822" type="curve"/>
      <point x="262" y="108" type="line"/>
      <point x="292" y="32"/>
      <point x="400" y="0"/>
      <point x="515" y="0" type="curve"/>
      <point x="681" y="31"/>
      <point x="789" y="161"/>
      <point x="789" y="290" type="curve" smooth="yes"/>
      <point x="789" y="414"/>
      <point x="692" y="532"/>
      <point x="562" y="555" type="curve"/>
      <point x="562" y="804" type="line" smooth="yes"/>
      <point x="562" y="849"/>
      <point x="652" y="879"/>
      <point x="712" y="879" type="curve" smooth="yes"/>
      <point x="772" y="879"/>
      <point x="862" y="849"/>
      <point x="862" y="804" type="curve" smooth="yes"/>
      <point x="862" y="0" type="line"/>
      <point x="1162" y="0" type="line"/>
      <point x="1162" y="804" type="line" smooth="yes"/>
      <point x="1162" y="849"/>
      <point x="1252" y="879"/>
      <point x="1312" y="879" type="curve" smooth="yes"/>
      <point x="1372" y="879"/>
      <point x="1462" y="849"/>
      <point x="1462" y="804" type="curve" smooth="yes"/>
      <point x="1462" y="0" type="line"/>
      <point x="1762" y="0" type="line"/>
      <point x="1762" y="822" type="line" smooth="yes"/>
      <point x="1762" y="916"/>
      <point x="1518" y="1010"/>
      <point x="1312" y="1010" type="curve" smooth="yes"/>
      <point x="1199" y="1010"/>
      <point x="1091" y="991"/>
      <point x="1012" y="957" type="curve"/>
      <point x="933" y="991"/>
      <point x="824" y="1010"/>
      <point x="712" y="1010" type="curve" smooth="yes"/>
      <point x="506" y="1010"/>
      <point x="262" y="916"/>
    </contour>
    <contour>
      <point x="1566" y="1440" type="curve" smooth="yes"/>
      <point x="1502" y="1440"/>
      <point x="1455" y="1416"/>
      <point x="1417" y="1387" type="curve" smooth="yes"/>
      <point x="1365" y="1348"/>
      <point x="1334" y="1317"/>
      <point x="1306" y="1284" type="curve"/>
      <point x="1227" y="1309"/>
      <point x="597" y="1440"/>
      <point x="533" y="1440" type="curve" smooth="yes"/>
      <point x="374" y="1440"/>
      <point x="177" y="1235"/>
      <point x="104" y="1064" type="curve" smooth="yes"/>
      <point x="101" y="1057"/>
      <point x="100" y="1035"/>
      <point x="100" y="1029" type="curve" smooth="yes"/>
      <point x="100" y="958"/>
      <point x="178" y="902"/>
      <point x="251" y="890" type="curve"/>
      <point x="432" y="994" type="line"/>
      <point x="349" y="1010"/>
      <point x="285" y="1027"/>
      <point x="285" y="1084" type="curve" smooth="yes"/>
      <point x="285" y="1105"/>
      <point x="305" y="1129"/>
      <point x="338" y="1153" type="curve" smooth="yes"/>
      <point x="370" y="1177"/>
      <point x="412" y="1200"/>
      <point x="467" y="1200" type="curve" smooth="yes"/>
      <point x="536" y="1200"/>
      <point x="1174" y="1047"/>
      <point x="1259" y="1047" type="curve"/>
      <point x="1285" y="1047"/>
      <point x="1331" y="1087"/>
      <point x="1391" y="1142" type="curve" smooth="yes"/>
      <point x="1422" y="1171"/>
      <point x="1454" y="1195"/>
      <point x="1520" y="1195" type="curve"/>
      <point x="1589" y="1195"/>
      <point x="2092" y="1065"/>
      <point x="2173" y="1025" type="curve" smooth="yes"/>
      <point x="2191" y="1016"/>
      <point x="2212" y="995"/>
      <point x="2212" y="970" type="curve" smooth="yes"/>
      <point x="2212" y="0" type="line"/>
      <point x="2512" y="0" type="line"/>
      <point x="2512" y="1043" type="line" smooth="yes"/>
      <point x="2512" y="1104"/>
      <point x="2483" y="1154"/>
      <point x="2415" y="1192" type="curve" smooth="yes"/>
      <point x="2347" y="1230"/>
      <point x="1638" y="1440"/>
    </contour>
    <contour>
      <point x="667" y="290" type="curve" smooth="yes"/>
      <point x="667" y="219"/>
      <point x="613" y="179"/>
      <point x="562" y="157" type="curve"/>
      <point x="562" y="458" type="line"/>
      <point x="628" y="439"/>
      <point x="667" y="363"/>
    </contour>
    <contour>
      <point x="2242" y="1792" type="curve"/>
      <point x="2242" y="1410" type="line" smooth="yes"/>
      <point x="2242" y="1352"/>
      <point x="2218" y="1307"/>
      <point x="2185" y="1261" type="curve"/>
      <point x="2408" y="1170" type="line"/>
      <point x="2471" y="1257"/>
      <point x="2512" y="1323"/>
      <point x="2512" y="1410" type="curve" smooth="yes"/>
      <point x="2512" y="1788" type="line" smooth="yes"/>
      <point x="2512" y="1858"/>
      <point x="2342" y="1922"/>
      <point x="2259" y="1922" type="curve" smooth="yes"/>
      <point x="2188" y="1922"/>
      <point x="2158" y="1908"/>
      <point x="2131" y="1893" type="curve"/>
      <point x="2206" y="1893"/>
      <point x="2242" y="1825"/>
    </contour>
  </outline>
</glyph>
<glyph name="uni178117C5.right" format="2">
  <advance width="2175"/>
  <anchor x="1172" y="0" name="L"/>
  <anchor x="1832" y="0" name="L2"/>
  <anchor x="733" y="1407" name="MA"/>
  <anchor x="1172" y="1407" name="U"/>
  <anchor x="1832" y="1407" name="U2"/>
  <outline>
    <contour>
      <point x="1275" y="1027" type="curve" smooth="yes"/>
      <point x="1275" y="1301"/>
      <point x="1085" y="1440"/>
      <point x="740" y="1440" type="curve" smooth="yes"/>
      <point x="507" y="1440"/>
      <point x="225" y="1339"/>
      <point x="225" y="1121" type="curve" smooth="yes"/>
      <point x="225" y="1042"/>
      <point x="244" y="956"/>
      <point x="340" y="888" type="curve" smooth="yes"/>
      <point x="397" y="847"/>
      <point x="465" y="844"/>
      <point x="517" y="844" type="curve" smooth="yes"/>
      <point x="626" y="844"/>
      <point x="735" y="900"/>
      <point x="735" y="986" type="curve" smooth="yes"/>
      <point x="735" y="1046"/>
      <point x="664" y="1091"/>
      <point x="562" y="1091" type="curve" smooth="yes"/>
      <point x="540" y="1091"/>
      <point x="521" y="1087"/>
      <point x="510" y="1087" type="curve"/>
      <point x="506" y="1099"/>
      <point x="506" y="1114"/>
      <point x="506" y="1129" type="curve" smooth="yes"/>
      <point x="506" y="1222"/>
      <point x="605" y="1290"/>
      <point x="740" y="1290" type="curve" smooth="yes"/>
      <point x="886" y="1290"/>
      <point x="975" y="1226"/>
      <point x="975" y="1050" type="curve" smooth="yes"/>
      <point x="975" y="765"/>
      <point x="341" y="427"/>
      <point x="225" y="397" type="curve"/>
      <point x="225" y="137"/>
      <point x="475" y="0"/>
      <point x="750" y="0" type="curve" smooth="yes"/>
      <point x="1041" y="0"/>
      <point x="1275" y="116"/>
      <point x="1275" y="345" type="curve" smooth="yes"/>
      <point x="1275" y="466"/>
      <point x="1151" y="520"/>
      <point x="1012" y="550" type="curve"/>
      <point x="1038" y="510"/>
      <point x="1050" y="474"/>
      <point x="1050" y="401" type="curve" smooth="yes"/>
      <point x="1050" y="257"/>
      <point x="885" y="150"/>
      <point x="750" y="150" type="curve" smooth="yes"/>
      <point x="630" y="150"/>
      <point x="547" y="232"/>
      <point x="525" y="311" type="curve"/>
      <point x="825" y="439"/>
      <point x="1275" y="667"/>
    </contour>
    <contour>
      <point x="1187" y="1112" type="line"/>
      <point x="1241" y="1153"/>
      <point x="1306" y="1192"/>
      <point x="1353" y="1192" type="curve" smooth="yes"/>
      <point x="1422" y="1192"/>
      <point x="1577" y="1100"/>
      <point x="1648" y="1049" type="curve" smooth="yes"/>
      <point x="1665" y="1037"/>
      <point x="1687" y="1019"/>
      <point x="1687" y="994" type="curve" smooth="yes"/>
      <point x="1687" y="0" type="line"/>
      <point x="1987" y="0" type="line"/>
      <point x="1987" y="1043" type="line" smooth="yes"/>
      <point x="1987" y="1104"/>
      <point x="1952" y="1146"/>
      <point x="1890" y="1192" type="curve" smooth="yes"/>
      <point x="1832" y="1235"/>
      <point x="1481" y="1440"/>
      <point x="1409" y="1440" type="curve" smooth="yes"/>
      <point x="1292" y="1440"/>
      <point x="1162" y="1354"/>
      <point x="1082" y="1296" type="curve"/>
    </contour>
    <contour>
      <point x="1717" y="1792" type="curve"/>
      <point x="1717" y="1410" type="line" smooth="yes"/>
      <point x="1717" y="1352"/>
      <point x="1693" y="1307"/>
      <point x="1660" y="1261" type="curve"/>
      <point x="1883" y="1170" type="line"/>
      <point x="1946" y="1257"/>
      <point x="1987" y="1323"/>
      <point x="1987" y="1410" type="curve" smooth="yes"/>
      <point x="1987" y="1788" type="line" smooth="yes"/>
      <point x="1987" y="1858"/>
      <point x="1817" y="1922"/>
      <point x="1734" y="1922" type="curve" smooth="yes"/>
      <point x="1663" y="1922"/>
      <point x="1633" y="1908"/>
      <point x="1606" y="1893" type="curve"/>
      <point x="1681" y="1893"/>
      <point x="1717" y="1825"/>
    </contour>
  </outline>
</glyph>
<glyph name="uni178417B6" format="2">
  <advance width="2288"/>
  <anchor x="1238" y="0" name="L"/>
  <anchor x="1200" y="1440" name="U"/>
  <outline>
    <contour>
      <point x="1335" y="872" type="line"/>
      <point x="1386" y="1003"/>
      <point x="1489" y="1185"/>
      <point x="1556" y="1185" type="curve" smooth="yes"/>
      <point x="1605" y="1185"/>
      <point x="1683" y="1125"/>
      <point x="1761" y="1059" type="curve" smooth="yes"/>
      <point x="1777" y="1045"/>
      <point x="1800" y="1018"/>
      <point x="1800" y="993" type="curve" smooth="yes"/>
      <point x="1800" y="0" type="line"/>
      <point x="2100" y="0" type="line"/>
      <point x="2100" y="1043" type="line" smooth="yes"/>
      <point x="2100" y="1104"/>
      <point x="2064" y="1144"/>
      <point x="2003" y="1192" type="curve" smooth="yes"/>
      <point x="1945" y="1237"/>
      <point x="1684" y="1440"/>
      <point x="1612" y="1440" type="curve" smooth="yes"/>
      <point x="1465" y="1440"/>
      <point x="1315" y="1094"/>
      <point x="1255" y="946" type="curve"/>
    </contour>
    <contour>
      <point x="300" y="348" type="line"/>
      <point x="300" y="82" type="line" smooth="yes"/>
      <point x="300" y="41"/>
      <point x="360" y="0"/>
      <point x="420" y="0" type="curve" smooth="yes"/>
      <point x="544" y="0" type="line" smooth="yes"/>
      <point x="592" y="0"/>
      <point x="667" y="46"/>
      <point x="709" y="82" type="curve" smooth="yes"/>
      <point x="748" y="116"/>
      <point x="805" y="159"/>
      <point x="825" y="159" type="curve" smooth="yes"/>
      <point x="845" y="159"/>
      <point x="902" y="116"/>
      <point x="941" y="82" type="curve" smooth="yes"/>
      <point x="983" y="46"/>
      <point x="1057" y="0"/>
      <point x="1106" y="0" type="curve" smooth="yes"/>
      <point x="1230" y="0" type="line" smooth="yes"/>
      <point x="1290" y="0"/>
      <point x="1350" y="41"/>
      <point x="1350" y="82" type="curve" smooth="yes"/>
      <point x="1350" y="900" type="line" smooth="yes"/>
      <point x="1350" y="952"/>
      <point x="1252" y="1016"/>
      <point x="1207" y="1039" type="curve"/>
      <point x="1271" y="1076"/>
      <point x="1312" y="1159"/>
      <point x="1312" y="1215" type="curve" smooth="yes"/>
      <point x="1312" y="1346"/>
      <point x="1170" y="1440"/>
      <point x="1012" y="1440" type="curve" smooth="yes"/>
      <point x="847" y="1440"/>
      <point x="712" y="1346"/>
      <point x="712" y="1215" type="curve" smooth="yes"/>
      <point x="712" y="1151"/>
      <point x="750" y="1087"/>
      <point x="829" y="1039" type="curve"/>
      <point x="799" y="1024"/>
      <point x="761" y="1024"/>
      <point x="727" y="1024" type="curve" smooth="yes"/>
      <point x="671" y="1024"/>
      <point x="581" y="1095"/>
      <point x="581" y="1211" type="curve" smooth="yes"/>
      <point x="581" y="1316"/>
      <point x="697" y="1507"/>
      <point x="697" y="1597" type="curve" smooth="yes"/>
      <point x="697" y="1672"/>
      <point x="592" y="1740"/>
      <point x="487" y="1740" type="curve" smooth="yes"/>
      <point x="416" y="1740"/>
      <point x="356" y="1721"/>
      <point x="334" y="1702" type="curve"/>
      <point x="394" y="1702"/>
      <point x="416" y="1627"/>
      <point x="416" y="1601" type="curve" smooth="yes"/>
      <point x="416" y="1511"/>
      <point x="300" y="1342"/>
      <point x="300" y="1211" type="curve" smooth="yes"/>
      <point x="300" y="1042"/>
      <point x="514" y="889"/>
      <point x="746" y="889" type="curve" smooth="yes"/>
      <point x="829" y="889"/>
      <point x="949" y="907"/>
      <point x="1012" y="937" type="curve"/>
      <point x="1027" y="930"/>
      <point x="1050" y="915"/>
      <point x="1050" y="874" type="curve" smooth="yes"/>
      <point x="1050" y="274" type="line" smooth="yes"/>
      <point x="1050" y="232"/>
      <point x="1045" y="199"/>
      <point x="1035" y="199" type="curve" smooth="yes"/>
      <point x="1028" y="199"/>
      <point x="997" y="221"/>
      <point x="952" y="259" type="curve" smooth="yes"/>
      <point x="909" y="295"/>
      <point x="863" y="319"/>
      <point x="825" y="319" type="curve" smooth="yes"/>
      <point x="787" y="319"/>
      <point x="738" y="294"/>
      <point x="697" y="259" type="curve" smooth="yes"/>
      <point x="652" y="221"/>
      <point x="622" y="199"/>
      <point x="615" y="199" type="curve" smooth="yes"/>
      <point x="605" y="199"/>
      <point x="600" y="232"/>
      <point x="600" y="274" type="curve" smooth="yes"/>
      <point x="600" y="357" type="line"/>
    </contour>
    <contour>
      <point x="954" y="1220" type="curve" smooth="yes"/>
      <point x="954" y="1260"/>
      <point x="977" y="1290"/>
      <point x="1012" y="1290" type="curve" smooth="yes"/>
      <point x="1047" y="1290"/>
      <point x="1070" y="1260"/>
      <point x="1070" y="1220" type="curve" smooth="yes"/>
      <point x="1070" y="1185"/>
      <point x="1039" y="1151"/>
      <point x="1012" y="1144" type="curve"/>
      <point x="986" y="1151"/>
      <point x="954" y="1185"/>
    </contour>
    <contour>
      <point x="600" y="284" type="line"/>
      <point x="600" y="772" type="line"/>
      <point x="570" y="848"/>
      <point x="462" y="880"/>
      <point x="347" y="880" type="curve"/>
      <point x="181" y="849"/>
      <point x="73" y="719"/>
      <point x="73" y="590" type="curve" smooth="yes"/>
      <point x="73" y="466"/>
      <point x="170" y="348"/>
      <point x="300" y="325" type="curve"/>
      <point x="300" y="278" type="line"/>
    </contour>
    <contour>
      <point x="195" y="590" type="curve" smooth="yes"/>
      <point x="195" y="661"/>
      <point x="249" y="701"/>
      <point x="300" y="723" type="curve"/>
      <point x="300" y="422" type="line"/>
      <point x="234" y="441"/>
      <point x="195" y="517"/>
    </contour>
  </outline>
</glyph>
<glyph name="uni178617B6" format="2">
  <advance width="2288"/>
  <anchor x="1350" y="0" name="L"/>
  <anchor x="1350" y="1440" name="U"/>
  <outline>
    <contour>
      <point x="1350" y="217" type="curve"/>
      <point x="1350" y="781" type="line"/>
      <point x="1320" y="868"/>
      <point x="1196" y="890"/>
      <point x="1110" y="890" type="curve"/>
      <point x="911" y="853"/>
      <point x="825" y="688"/>
      <point x="825" y="598" type="curve" smooth="yes"/>
      <point x="825" y="488"/>
      <point x="941" y="435"/>
      <point x="1050" y="420" type="curve"/>
      <point x="1050" y="251" type="line" smooth="yes"/>
      <point x="1050" y="202"/>
      <point x="1042" y="169"/>
      <point x="1016" y="169" type="curve" smooth="yes"/>
      <point x="911" y="169"/>
      <point x="769" y="446"/>
      <point x="600" y="469" type="curve"/>
      <point x="600" y="975" type="line"/>
      <point x="300" y="955" type="line"/>
      <point x="300" y="469" type="line"/>
      <point x="191" y="454"/>
      <point x="75" y="356"/>
      <point x="75" y="236" type="curve" smooth="yes"/>
      <point x="75" y="146"/>
      <point x="176" y="37"/>
      <point x="360" y="0" type="curve"/>
      <point x="446" y="0"/>
      <point x="570" y="22"/>
      <point x="600" y="109" type="curve"/>
      <point x="600" y="300" type="line"/>
      <point x="716" y="281"/>
      <point x="829" y="0"/>
      <point x="1042" y="0" type="curve" smooth="yes"/>
      <point x="1256" y="0"/>
      <point x="1350" y="116"/>
    </contour>
    <contour>
      <point x="930" y="598" type="curve" smooth="yes"/>
      <point x="930" y="649"/>
      <point x="997" y="725"/>
      <point x="1050" y="740" type="curve"/>
      <point x="1050" y="506" type="line"/>
      <point x="1002" y="508"/>
      <point x="930" y="543"/>
    </contour>
    <contour>
      <point x="214" y="244" type="curve" smooth="yes"/>
      <point x="214" y="289"/>
      <point x="255" y="325"/>
      <point x="300" y="330" type="curve"/>
      <point x="300" y="149" type="line"/>
      <point x="259" y="160"/>
      <point x="214" y="199"/>
    </contour>
    <contour>
      <point x="1369" y="1440" type="curve" smooth="yes"/>
      <point x="1320" y="1440"/>
      <point x="1282" y="1419"/>
      <point x="1239" y="1387" type="curve" smooth="yes"/>
      <point x="1209" y="1364"/>
      <point x="1137" y="1301"/>
      <point x="1109" y="1268" type="curve"/>
      <point x="1030" y="1298"/>
      <point x="615" y="1440"/>
      <point x="551" y="1440" type="curve" smooth="yes"/>
      <point x="467" y="1440"/>
      <point x="167" y="1168"/>
      <point x="142" y="1064" type="curve" smooth="yes"/>
      <point x="140" y="1057"/>
      <point x="138" y="1035"/>
      <point x="138" y="1029" type="curve" smooth="yes"/>
      <point x="138" y="958"/>
      <point x="227" y="902"/>
      <point x="300" y="890" type="curve"/>
      <point x="600" y="975" type="line"/>
      <point x="517" y="991"/>
      <point x="333" y="1027"/>
      <point x="333" y="1084" type="curve" smooth="yes"/>
      <point x="333" y="1117"/>
      <point x="359" y="1145"/>
      <point x="403" y="1182" type="curve" smooth="yes"/>
      <point x="417" y="1194"/>
      <point x="439" y="1206"/>
      <point x="465" y="1206" type="curve" smooth="yes"/>
      <point x="534" y="1206"/>
      <point x="977" y="1033"/>
      <point x="1062" y="1033" type="curve"/>
      <point x="1087" y="1033"/>
      <point x="1165" y="1102"/>
      <point x="1209" y="1142" type="curve" smooth="yes"/>
      <point x="1250" y="1180"/>
      <point x="1276" y="1193"/>
      <point x="1313" y="1193" type="curve"/>
      <point x="1382" y="1193"/>
      <point x="1690" y="1065"/>
      <point x="1761" y="1025" type="curve" smooth="yes"/>
      <point x="1778" y="1015"/>
      <point x="1800" y="995"/>
      <point x="1800" y="970" type="curve" smooth="yes"/>
      <point x="1800" y="0" type="line"/>
      <point x="2100" y="0" type="line"/>
      <point x="2100" y="1043" type="line" smooth="yes"/>
      <point x="2100" y="1104"/>
      <point x="2068" y="1149"/>
      <point x="2003" y="1192" type="curve" smooth="yes"/>
      <point x="1945" y="1230"/>
      <point x="1441" y="1440"/>
    </contour>
  </outline>
</glyph>
<glyph name="uni178717C5.right" format="2">
  <advance width="2250"/>
  <anchor x="1200" y="0" name="L"/>
  <anchor x="1200" y="1440" name="U"/>
  <outline>
    <contour>
      <point x="1792" y="1792" type="curve"/>
      <point x="1792" y="1410" type="line" smooth="yes"/>
      <point x="1792" y="1352"/>
      <point x="1768" y="1307"/>
      <point x="1735" y="1261" type="curve"/>
      <point x="1958" y="1170" type="line"/>
      <point x="2021" y="1257"/>
      <point x="2062" y="1323"/>
      <point x="2062" y="1410" type="curve" smooth="yes"/>
      <point x="2062" y="1788" type="line" smooth="yes"/>
      <point x="2062" y="1858"/>
      <point x="1892" y="1922"/>
      <point x="1809" y="1922" type="curve" smooth="yes"/>
      <point x="1738" y="1922"/>
      <point x="1708" y="1908"/>
      <point x="1681" y="1893" type="curve"/>
      <point x="1756" y="1893"/>
      <point x="1792" y="1825"/>
    </contour>
    <contour>
      <point x="925" y="1256" type="curve"/>
      <point x="846" y="1281"/>
      <point x="527" y="1440"/>
      <point x="463" y="1440" type="curve" smooth="yes"/>
      <point x="299" y="1440"/>
      <point x="177" y="1235"/>
      <point x="104" y="1064" type="curve" smooth="yes"/>
      <point x="101" y="1057"/>
      <point x="100" y="1035"/>
      <point x="100" y="1029" type="curve" smooth="yes"/>
      <point x="100" y="958"/>
      <point x="189" y="902"/>
      <point x="262" y="890" type="curve"/>
      <point x="562" y="950" type="line"/>
      <point x="409" y="966"/>
      <point x="285" y="1027"/>
      <point x="285" y="1084" type="curve" smooth="yes"/>
      <point x="285" y="1105"/>
      <point x="294" y="1129"/>
      <point x="313" y="1153" type="curve" smooth="yes"/>
      <point x="338" y="1185"/>
      <point x="362" y="1200"/>
      <point x="397" y="1200" type="curve" smooth="yes"/>
      <point x="466" y="1200"/>
      <point x="789" y="1017"/>
      <point x="874" y="1017" type="curve" smooth="yes"/>
      <point x="1077" y="1017"/>
      <point x="1262" y="1207"/>
      <point x="1262" y="1372" type="curve" smooth="yes"/>
      <point x="1262" y="1462"/>
      <point x="1247" y="1515"/>
      <point x="1176" y="1601" type="curve" smooth="yes"/>
      <point x="1109" y="1684"/>
      <point x="1007" y="1740"/>
      <point x="884" y="1740" type="curve" smooth="yes"/>
      <point x="760" y="1740"/>
      <point x="734" y="1680"/>
      <point x="734" y="1627" type="curve" smooth="yes"/>
      <point x="734" y="1575"/>
      <point x="797" y="1519"/>
      <point x="910" y="1501" type="curve" smooth="yes"/>
      <point x="1070" y="1475"/>
      <point x="1117" y="1444"/>
      <point x="1117" y="1365" type="curve" smooth="yes"/>
      <point x="1117" y="1290"/>
      <point x="1000" y="1256"/>
    </contour>
    <contour>
      <point x="1012" y="571" type="line"/>
      <point x="1012" y="274" type="line" smooth="yes"/>
      <point x="1012" y="232"/>
      <point x="1007" y="199"/>
      <point x="997" y="199" type="curve" smooth="yes"/>
      <point x="990" y="199"/>
      <point x="959" y="221"/>
      <point x="914" y="259" type="curve" smooth="yes"/>
      <point x="871" y="295"/>
      <point x="825" y="319"/>
      <point x="787" y="319" type="curve" smooth="yes"/>
      <point x="749" y="319"/>
      <point x="700" y="294"/>
      <point x="659" y="259" type="curve" smooth="yes"/>
      <point x="614" y="221"/>
      <point x="584" y="199"/>
      <point x="577" y="199" type="curve" smooth="yes"/>
      <point x="567" y="199"/>
      <point x="562" y="232"/>
      <point x="562" y="274" type="curve" smooth="yes"/>
      <point x="562" y="950" type="line"/>
      <point x="262" y="890" type="line"/>
      <point x="262" y="82" type="line" smooth="yes"/>
      <point x="262" y="41"/>
      <point x="322" y="0"/>
      <point x="382" y="0" type="curve" smooth="yes"/>
      <point x="506" y="0" type="line" smooth="yes"/>
      <point x="554" y="0"/>
      <point x="629" y="46"/>
      <point x="671" y="82" type="curve" smooth="yes"/>
      <point x="710" y="116"/>
      <point x="767" y="159"/>
      <point x="787" y="159" type="curve" smooth="yes"/>
      <point x="807" y="159"/>
      <point x="864" y="116"/>
      <point x="903" y="82" type="curve" smooth="yes"/>
      <point x="945" y="46"/>
      <point x="1019" y="0"/>
      <point x="1068" y="0" type="curve" smooth="yes"/>
      <point x="1192" y="0" type="line" smooth="yes"/>
      <point x="1252" y="0"/>
      <point x="1312" y="41"/>
      <point x="1312" y="82" type="curve" smooth="yes"/>
      <point x="1312" y="579" type="line"/>
    </contour>
    <contour>
      <point x="1312" y="391" type="line"/>
      <point x="1312" y="629" type="line" smooth="yes"/>
      <point x="1312" y="707"/>
      <point x="1135" y="712"/>
      <point x="1135" y="794" type="curve" smooth="yes"/>
      <point x="1135" y="868"/>
      <point x="1429" y="1180"/>
      <point x="1546" y="1180" type="curve" smooth="yes"/>
      <point x="1595" y="1180"/>
      <point x="1652" y="1135"/>
      <point x="1723" y="1069" type="curve" smooth="yes"/>
      <point x="1739" y="1055"/>
      <point x="1762" y="1025"/>
      <point x="1762" y="1003" type="curve" smooth="yes"/>
      <point x="1762" y="998" type="line"/>
      <point x="1762" y="0" type="line"/>
      <point x="2062" y="0" type="line"/>
      <point x="2062" y="1043" type="line" smooth="yes"/>
      <point x="2062" y="1104"/>
      <point x="2023" y="1140"/>
      <point x="1965" y="1192" type="curve" smooth="yes"/>
      <point x="1917" y="1235"/>
      <point x="1674" y="1440"/>
      <point x="1602" y="1440" type="curve" smooth="yes"/>
      <point x="1485" y="1440"/>
      <point x="972" y="888"/>
      <point x="972" y="780" type="curve" smooth="yes"/>
      <point x="972" y="730"/>
      <point x="1012" y="659"/>
      <point x="1012" y="629" type="curve" smooth="yes"/>
      <point x="1012" y="391" type="line"/>
    </contour>
  </outline>
</glyph>
<glyph name="uni178917B6" format="2">
  <advance width="2888"/>
  <anchor x="1950" y="-600" name="L"/>
  <anchor x="1950" y="1440" name="U"/>
  <outline>
    <contour>
      <point x="262" y="1170" type="curve"/>
      <point x="262" y="108" type="line"/>
      <point x="292" y="32"/>
      <point x="400" y="0"/>
      <point x="515" y="0" type="curve"/>
      <point x="681" y="31"/>
      <point x="789" y="161"/>
      <point x="789" y="290" type="curve" smooth="yes"/>
      <point x="789" y="414"/>
      <point x="692" y="532"/>
      <point x="562" y="555" type="curve"/>
      <point x="562" y="1125" type="line" smooth="yes"/>
      <point x="562" y="1159"/>
      <point x="570" y="1221"/>
      <point x="589" y="1221" type="curve" smooth="yes"/>
      <point x="622" y="1221"/>
      <point x="765" y="1092"/>
      <point x="787" y="1066" type="curve"/>
      <point x="809" y="1092"/>
      <point x="951" y="1221"/>
      <point x="985" y="1221" type="curve" smooth="yes"/>
      <point x="1004" y="1221"/>
      <point x="1012" y="1159"/>
      <point x="1012" y="1125" type="curve" smooth="yes"/>
      <point x="1012" y="0" type="line"/>
      <point x="1312" y="0" type="line"/>
      <point x="1312" y="1215" type="line"/>
      <point x="1339" y="1264"/>
      <point x="1395" y="1305"/>
      <point x="1481" y="1305" type="curve" smooth="yes"/>
      <point x="1567" y="1305"/>
      <point x="1650" y="1241"/>
      <point x="1650" y="1159" type="curve" smooth="yes"/>
      <point x="1650" y="0" type="line"/>
      <point x="1950" y="0" type="line"/>
      <point x="1950" y="1185" type="line" smooth="yes"/>
      <point x="1950" y="1327"/>
      <point x="1702" y="1440"/>
      <point x="1481" y="1440" type="curve" smooth="yes"/>
      <point x="1378" y="1440"/>
      <point x="1287" y="1398"/>
      <point x="1218" y="1350" type="curve"/>
      <point x="1163" y="1402"/>
      <point x="1093" y="1440"/>
      <point x="1031" y="1440" type="curve" smooth="yes"/>
      <point x="979" y="1440"/>
      <point x="930" y="1406"/>
      <point x="877" y="1365" type="curve" smooth="yes"/>
      <point x="844" y="1339"/>
      <point x="810" y="1309"/>
      <point x="787" y="1286" type="curve"/>
      <point x="765" y="1309"/>
      <point x="731" y="1339"/>
      <point x="697" y="1365" type="curve" smooth="yes"/>
      <point x="645" y="1406"/>
      <point x="592" y="1440"/>
      <point x="544" y="1440" type="curve" smooth="yes"/>
      <point x="420" y="1440"/>
      <point x="262" y="1290"/>
    </contour>
    <contour>
      <point x="1561" y="-244" type="curve" smooth="yes"/>
      <point x="1561" y="-311"/>
      <point x="1614" y="-345"/>
      <point x="1689" y="-356" type="curve"/>
      <point x="1689" y="-394"/>
      <point x="1651" y="-413"/>
      <point x="1610" y="-413" type="curve" smooth="yes"/>
      <point x="1492" y="-413"/>
      <point x="980" y="-150"/>
      <point x="820" y="-150" type="curve" smooth="yes"/>
      <point x="512" y="-150"/>
      <point x="415" y="-308"/>
      <point x="389" y="-439" type="curve"/>
      <point x="486" y="-351"/>
      <point x="573" y="-319"/>
      <point x="645" y="-319" type="curve" smooth="yes"/>
      <point x="805" y="-319"/>
      <point x="1351" y="-600"/>
      <point x="1465" y="-600" type="curve" smooth="yes"/>
      <point x="1680" y="-600"/>
      <point x="1950" y="-566"/>
      <point x="1950" y="-326" type="curve" smooth="yes"/>
      <point x="1950" y="-203"/>
      <point x="1870" y="-131"/>
      <point x="1724" y="-131" type="curve" smooth="yes"/>
      <point x="1626" y="-131"/>
      <point x="1561" y="-169"/>
    </contour>
    <contour>
      <point x="667" y="290" type="curve" smooth="yes"/>
      <point x="667" y="219"/>
      <point x="613" y="179"/>
      <point x="562" y="157" type="curve"/>
      <point x="562" y="458" type="line"/>
      <point x="628" y="439"/>
      <point x="667" y="363"/>
    </contour>
    <contour>
      <point x="1930" y="1112" type="line"/>
      <point x="1984" y="1153"/>
      <point x="2079" y="1192"/>
      <point x="2126" y="1192" type="curve" smooth="yes"/>
      <point x="2175" y="1192"/>
      <point x="2290" y="1123"/>
      <point x="2361" y="1072" type="curve" smooth="yes"/>
      <point x="2378" y="1060"/>
      <point x="2400" y="1039"/>
      <point x="2400" y="1014" type="curve" smooth="yes"/>
      <point x="2400" y="0" type="line"/>
      <point x="2700" y="0" type="line"/>
      <point x="2700" y="1063" type="line" smooth="yes"/>
      <point x="2700" y="1124"/>
      <point x="2665" y="1166"/>
      <point x="2603" y="1212" type="curve" smooth="yes"/>
      <point x="2545" y="1255"/>
      <point x="2254" y="1440"/>
      <point x="2182" y="1440" type="curve" smooth="yes"/>
      <point x="2075" y="1440"/>
      <point x="1905" y="1324"/>
      <point x="1825" y="1266" type="curve"/>
    </contour>
  </outline>
</glyph>
<glyph name="uni178D17B6" format="2">
  <advance width="3000"/>
  <anchor x="2062" y="0" name="L"/>
  <anchor x="2062" y="1440" name="U"/>
  <outline>
    <contour>
      <point x="1762" y="851" type="line"/>
      <point x="1762" y="251" type="line" smooth="yes"/>
      <point x="1762" y="202"/>
      <point x="1755" y="169"/>
      <point x="1729" y="169" type="curve" smooth="yes"/>
      <point x="1624" y="169"/>
      <point x="1481" y="446"/>
      <point x="1312" y="469" type="curve"/>
      <point x="1312" y="1170" type="line" smooth="yes"/>
      <point x="1312" y="1290"/>
      <point x="1155" y="1440"/>
      <point x="1031" y="1440" type="curve" smooth="yes"/>
      <point x="979" y="1440"/>
      <point x="930" y="1406"/>
      <point x="877" y="1365" type="curve" smooth="yes"/>
      <point x="844" y="1339"/>
      <point x="810" y="1309"/>
      <point x="787" y="1286" type="curve"/>
      <point x="765" y="1309"/>
      <point x="731" y="1339"/>
      <point x="697" y="1365" type="curve" smooth="yes"/>
      <point x="645" y="1406"/>
      <point x="592" y="1440"/>
      <point x="544" y="1440" type="curve" smooth="yes"/>
      <point x="420" y="1440"/>
      <point x="262" y="1290"/>
      <point x="262" y="1170" type="curve" smooth="yes"/>
      <point x="262" y="462" type="line"/>
      <point x="562" y="494" type="line"/>
      <point x="562" y="1125" type="line" smooth="yes"/>
      <point x="562" y="1159"/>
      <point x="570" y="1221"/>
      <point x="589" y="1221" type="curve" smooth="yes"/>
      <point x="622" y="1221"/>
      <point x="765" y="1092"/>
      <point x="787" y="1066" type="curve"/>
      <point x="809" y="1092"/>
      <point x="951" y="1221"/>
      <point x="985" y="1221" type="curve" smooth="yes"/>
      <point x="1004" y="1221"/>
      <point x="1012" y="1159"/>
      <point x="1012" y="1125" type="curve" smooth="yes"/>
      <point x="1012" y="469" type="line"/>
      <point x="904" y="454"/>
      <point x="825" y="356"/>
      <point x="825" y="236" type="curve" smooth="yes"/>
      <point x="825" y="146"/>
      <point x="889" y="37"/>
      <point x="1072" y="0" type="curve"/>
      <point x="1159" y="0"/>
      <point x="1282" y="22"/>
      <point x="1312" y="109" type="curve"/>
      <point x="1312" y="300" type="line"/>
      <point x="1429" y="281"/>
      <point x="1541" y="0"/>
      <point x="1755" y="0" type="curve" smooth="yes"/>
      <point x="1969" y="0"/>
      <point x="2062" y="116"/>
      <point x="2062" y="217" type="curve" smooth="yes"/>
      <point x="2062" y="835" type="line"/>
    </contour>
    <contour>
      <point x="936" y="244" type="curve" smooth="yes"/>
      <point x="936" y="289"/>
      <point x="967" y="335"/>
      <point x="1012" y="340" type="curve"/>
      <point x="1012" y="149" type="line"/>
      <point x="971" y="160"/>
      <point x="936" y="199"/>
    </contour>
    <contour>
      <point x="262" y="736" type="line"/>
      <point x="262" y="108" type="line"/>
      <point x="292" y="32"/>
      <point x="400" y="0"/>
      <point x="515" y="0" type="curve"/>
      <point x="681" y="31"/>
      <point x="789" y="161"/>
      <point x="789" y="290" type="curve" smooth="yes"/>
      <point x="789" y="414"/>
      <point x="692" y="532"/>
      <point x="562" y="555" type="curve"/>
      <point x="562" y="742" type="line"/>
    </contour>
    <contour>
      <point x="667" y="290" type="curve" smooth="yes"/>
      <point x="667" y="219"/>
      <point x="613" y="179"/>
      <point x="562" y="157" type="curve"/>
      <point x="562" y="458" type="line"/>
      <point x="628" y="439"/>
      <point x="667" y="363"/>
    </contour>
    <contour>
      <point x="2062" y="511" type="line"/>
      <point x="2062" y="910" type="line" smooth="yes"/>
      <point x="2062" y="975"/>
      <point x="1841" y="1084"/>
      <point x="1721" y="1124" type="curve" smooth="yes"/>
      <point x="1719" y="1125"/>
      <point x="1716" y="1127"/>
      <point x="1718" y="1128" type="curve" smooth="yes"/>
      <point x="1777" y="1167"/>
      <point x="2002" y="1192"/>
      <point x="2128" y="1192" type="curve" smooth="yes"/>
      <point x="2197" y="1192"/>
      <point x="2402" y="1085"/>
      <point x="2473" y="1039" type="curve" smooth="yes"/>
      <point x="2490" y="1028"/>
      <point x="2512" y="1009"/>
      <point x="2512" y="984" type="curve" smooth="yes"/>
      <point x="2512" y="0" type="line"/>
      <point x="2812" y="0" type="line"/>
      <point x="2812" y="1043" type="line" smooth="yes"/>
      <point x="2812" y="1104"/>
      <point x="2780" y="1149"/>
      <point x="2715" y="1192" type="curve" smooth="yes"/>
      <point x="2657" y="1230"/>
      <point x="2256" y="1440"/>
      <point x="2184" y="1440" type="curve" smooth="yes"/>
      <point x="1975" y="1440"/>
      <point x="1828" y="1377"/>
      <point x="1716" y="1282" type="curve" smooth="yes"/>
      <point x="1641" y="1218"/>
      <point x="1598" y="1145"/>
      <point x="1578" y="1061" type="curve"/>
      <point x="1578" y="1055"/>
      <point x="1580" y="1050"/>
      <point x="1585" y="1049" type="curve" smooth="yes"/>
      <point x="1690" y="1037"/>
      <point x="1762" y="963"/>
      <point x="1762" y="919" type="curve" smooth="yes"/>
      <point x="1762" y="511" type="line"/>
    </contour>
  </outline>
</glyph>
<glyph name="uni179117C5.right" format="2">
  <advance width="2150"/>
  <anchor x="1125" y="0" name="L"/>
  <anchor x="1125" y="1440" name="U"/>
  <outline>
    <contour>
      <point x="727" y="213" type="line"/>
      <point x="727" y="157"/>
      <point x="694" y="131"/>
      <point x="650" y="131" type="curve" smooth="yes"/>
      <point x="607" y="131"/>
      <point x="573" y="157"/>
      <point x="573" y="213" type="curve" smooth="yes"/>
      <point x="573" y="419" type="line"/>
      <point x="291" y="419" type="line"/>
      <point x="291" y="199" type="line" smooth="yes"/>
      <point x="291" y="95"/>
      <point x="422" y="0"/>
      <point x="650" y="0" type="curve" smooth="yes"/>
      <point x="882" y="0"/>
      <point x="1009" y="95"/>
      <point x="1009" y="199" type="curve" smooth="yes"/>
      <point x="1009" y="457" type="line"/>
      <point x="1158" y="468"/>
      <point x="1252" y="560"/>
      <point x="1252" y="671" type="curve" smooth="yes"/>
      <point x="1252" y="784"/>
      <point x="1139" y="870"/>
      <point x="990" y="870" type="curve" smooth="yes"/>
      <point x="799" y="870"/>
      <point x="730" y="746"/>
      <point x="727" y="634" type="curve"/>
      <point x="591" y="666"/>
      <point x="444" y="810"/>
      <point x="444" y="956" type="curve" smooth="yes"/>
      <point x="444" y="1129"/>
      <point x="541" y="1271"/>
      <point x="755" y="1271" type="curve" smooth="yes"/>
      <point x="875" y="1271"/>
      <point x="930" y="1233"/>
      <point x="930" y="1204" type="curve"/>
      <point x="911" y="1207"/>
      <point x="891" y="1211"/>
      <point x="864" y="1211" type="curve" smooth="yes"/>
      <point x="763" y="1211"/>
      <point x="687" y="1170"/>
      <point x="687" y="1095" type="curve" smooth="yes"/>
      <point x="687" y="1009"/>
      <point x="801" y="956"/>
      <point x="909" y="956" type="curve" smooth="yes"/>
      <point x="961" y="956"/>
      <point x="1032" y="966"/>
      <point x="1088" y="998" type="curve"/>
      <point x="1161" y="1040"/>
      <point x="1212" y="1104"/>
      <point x="1212" y="1196" type="curve" smooth="yes"/>
      <point x="1212" y="1312"/>
      <point x="1085" y="1440"/>
      <point x="755" y="1440" type="curve" smooth="yes"/>
      <point x="376" y="1440"/>
      <point x="162" y="1260"/>
      <point x="162" y="956" type="curve" smooth="yes"/>
      <point x="162" y="664"/>
      <point x="475" y="477"/>
      <point x="727" y="457" type="curve"/>
    </contour>
    <contour>
      <point x="1009" y="606" type="line"/>
      <point x="1009" y="656" type="line" smooth="yes"/>
      <point x="1009" y="685"/>
      <point x="1024" y="720"/>
      <point x="1054" y="720" type="curve" smooth="yes"/>
      <point x="1082" y="720"/>
      <point x="1102" y="699"/>
      <point x="1102" y="671" type="curve" smooth="yes"/>
      <point x="1102" y="633"/>
      <point x="1066" y="606"/>
      <point x="1026" y="606" type="curve"/>
    </contour>
    <contour>
      <point x="1692" y="1792" type="curve"/>
      <point x="1692" y="1410" type="line" smooth="yes"/>
      <point x="1692" y="1352"/>
      <point x="1668" y="1307"/>
      <point x="1635" y="1261" type="curve"/>
      <point x="1858" y="1170" type="line"/>
      <point x="1921" y="1257"/>
      <point x="1962" y="1323"/>
      <point x="1962" y="1410" type="curve" smooth="yes"/>
      <point x="1962" y="1788" type="line" smooth="yes"/>
      <point x="1962" y="1858"/>
      <point x="1792" y="1922"/>
      <point x="1709" y="1922" type="curve" smooth="yes"/>
      <point x="1638" y="1922"/>
      <point x="1608" y="1908"/>
      <point x="1581" y="1893" type="curve"/>
      <point x="1656" y="1893"/>
      <point x="1692" y="1825"/>
    </contour>
    <contour>
      <point x="1192" y="1112" type="line"/>
      <point x="1246" y="1153"/>
      <point x="1341" y="1192"/>
      <point x="1388" y="1192" type="curve" smooth="yes"/>
      <point x="1437" y="1192"/>
      <point x="1552" y="1123"/>
      <point x="1623" y="1072" type="curve" smooth="yes"/>
      <point x="1640" y="1060"/>
      <point x="1662" y="1039"/>
      <point x="1662" y="1014" type="curve" smooth="yes"/>
      <point x="1662" y="0" type="line"/>
      <point x="1962" y="0" type="line"/>
      <point x="1962" y="1063" type="line" smooth="yes"/>
      <point x="1962" y="1124"/>
      <point x="1927" y="1166"/>
      <point x="1865" y="1212" type="curve" smooth="yes"/>
      <point x="1807" y="1255"/>
      <point x="1516" y="1440"/>
      <point x="1444" y="1440" type="curve" smooth="yes"/>
      <point x="1337" y="1440"/>
      <point x="1167" y="1324"/>
      <point x="1087" y="1266" type="curve"/>
    </contour>
  </outline>
</glyph>
<glyph name="uni179217C5.right" format="2">
  <advance width="2250"/>
  <anchor x="1312" y="0" name="L"/>
  <anchor x="1312" y="1440" name="U"/>
  <outline>
    <contour>
      <point x="262" y="900" type="line"/>
      <point x="262" y="82" type="line" smooth="yes"/>
      <point x="262" y="41"/>
      <point x="322" y="0"/>
      <point x="382" y="0" type="curve" smooth="yes"/>
      <point x="506" y="0" type="line" smooth="yes"/>
      <point x="554" y="0"/>
      <point x="629" y="46"/>
      <point x="671" y="82" type="curve" smooth="yes"/>
      <point x="710" y="116"/>
      <point x="767" y="159"/>
      <point x="787" y="159" type="curve" smooth="yes"/>
      <point x="807" y="159"/>
      <point x="864" y="116"/>
      <point x="903" y="82" type="curve" smooth="yes"/>
      <point x="945" y="46"/>
      <point x="1019" y="0"/>
      <point x="1068" y="0" type="curve" smooth="yes"/>
      <point x="1192" y="0" type="line" smooth="yes"/>
      <point x="1252" y="0"/>
      <point x="1312" y="41"/>
      <point x="1312" y="82" type="curve" smooth="yes"/>
      <point x="1312" y="508" type="line"/>
      <point x="1012" y="493" type="line"/>
      <point x="1012" y="274" type="line" smooth="yes"/>
      <point x="1012" y="232"/>
      <point x="1007" y="199"/>
      <point x="997" y="199" type="curve" smooth="yes"/>
      <point x="990" y="199"/>
      <point x="959" y="221"/>
      <point x="914" y="259" type="curve" smooth="yes"/>
      <point x="871" y="295"/>
      <point x="825" y="319"/>
      <point x="787" y="319" type="curve" smooth="yes"/>
      <point x="749" y="319"/>
      <point x="700" y="294"/>
      <point x="659" y="259" type="curve" smooth="yes"/>
      <point x="614" y="221"/>
      <point x="584" y="199"/>
      <point x="577" y="199" type="curve" smooth="yes"/>
      <point x="567" y="199"/>
      <point x="562" y="232"/>
      <point x="562" y="274" type="curve" smooth="yes"/>
      <point x="562" y="975" type="line"/>
    </contour>
    <contour>
      <point x="1312" y="294" type="line"/>
      <point x="1312" y="782" type="line"/>
      <point x="1282" y="858"/>
      <point x="1174" y="890"/>
      <point x="1059" y="890" type="curve"/>
      <point x="893" y="859"/>
      <point x="785" y="729"/>
      <point x="785" y="600" type="curve" smooth="yes"/>
      <point x="785" y="476"/>
      <point x="882" y="358"/>
      <point x="1012" y="335" type="curve"/>
      <point x="1012" y="288" type="line"/>
    </contour>
    <contour>
      <point x="907" y="600" type="curve" smooth="yes"/>
      <point x="907" y="671"/>
      <point x="961" y="711"/>
      <point x="1012" y="733" type="curve"/>
      <point x="1012" y="432" type="line"/>
      <point x="946" y="451"/>
      <point x="907" y="527"/>
    </contour>
    <contour>
      <point x="1331" y="1440" type="curve" smooth="yes"/>
      <point x="1282" y="1440"/>
      <point x="1244" y="1419"/>
      <point x="1201" y="1387" type="curve" smooth="yes"/>
      <point x="1171" y="1364"/>
      <point x="1099" y="1301"/>
      <point x="1071" y="1268" type="curve"/>
      <point x="992" y="1298"/>
      <point x="577" y="1440"/>
      <point x="513" y="1440" type="curve" smooth="yes"/>
      <point x="429" y="1440"/>
      <point x="129" y="1168"/>
      <point x="104" y="1064" type="curve" smooth="yes"/>
      <point x="102" y="1057"/>
      <point x="100" y="1035"/>
      <point x="100" y="1029" type="curve" smooth="yes"/>
      <point x="100" y="958"/>
      <point x="189" y="902"/>
      <point x="262" y="890" type="curve"/>
      <point x="562" y="975" type="line"/>
      <point x="479" y="991"/>
      <point x="295" y="1027"/>
      <point x="295" y="1084" type="curve" smooth="yes"/>
      <point x="295" y="1117"/>
      <point x="321" y="1145"/>
      <point x="365" y="1182" type="curve" smooth="yes"/>
      <point x="379" y="1194"/>
      <point x="401" y="1206"/>
      <point x="427" y="1206" type="curve" smooth="yes"/>
      <point x="496" y="1206"/>
      <point x="939" y="1033"/>
      <point x="1024" y="1033" type="curve"/>
      <point x="1049" y="1033"/>
      <point x="1127" y="1102"/>
      <point x="1171" y="1142" type="curve" smooth="yes"/>
      <point x="1212" y="1180"/>
      <point x="1238" y="1193"/>
      <point x="1275" y="1193" type="curve"/>
      <point x="1344" y="1193"/>
      <point x="1652" y="1065"/>
      <point x="1723" y="1025" type="curve" smooth="yes"/>
      <point x="1740" y="1015"/>
      <point x="1762" y="995"/>
      <point x="1762" y="970" type="curve" smooth="yes"/>
      <point x="1762" y="0" type="line"/>
      <point x="2062" y="0" type="line"/>
      <point x="2062" y="1043" type="line" smooth="yes"/>
      <point x="2062" y="1104"/>
      <point x="2030" y="1149"/>
      <point x="1965" y="1192" type="curve" smooth="yes"/>
      <point x="1907" y="1230"/>
      <point x="1403" y="1440"/>
    </contour>
    <contour>
      <point x="1792" y="1792" type="curve"/>
      <point x="1792" y="1410" type="line" smooth="yes"/>
      <point x="1792" y="1352"/>
      <point x="1768" y="1307"/>
      <point x="1735" y="1261" type="curve"/>
      <point x="1958" y="1170" type="line"/>
      <point x="2021" y="1257"/>
      <point x="2062" y="1323"/>
      <point x="2062" y="1410" type="curve" smooth="yes"/>
      <point x="2062" y="1788" type="line" smooth="yes"/>
      <point x="2062" y="1858"/>
      <point x="1892" y="1922"/>
      <point x="1809" y="1922" type="curve" smooth="yes"/>
      <point x="1738" y="1922"/>
      <point x="1708" y="1908"/>
      <point x="1681" y="1893" type="curve"/>
      <point x="1756" y="1893"/>
      <point x="1792" y="1825"/>
    </contour>
  </outline>
</glyph>
<glyph name="uni179617C5.right" format="2">
  <advance width="2250"/>
  <anchor x="1312" y="0" name="L"/>
  <anchor x="1312" y="1440" name="U"/>
  <outline>
    <contour>
      <point x="262" y="1170" type="curve"/>
      <point x="262" y="108" type="line"/>
      <point x="292" y="32"/>
      <point x="400" y="0"/>
      <point x="515" y="0" type="curve"/>
      <point x="681" y="31"/>
      <point x="789" y="161"/>
      <point x="789" y="290" type="curve" smooth="yes"/>
      <point x="789" y="414"/>
      <point x="692" y="532"/>
      <point x="562" y="555" type="curve"/>
      <point x="562" y="1125" type="line" smooth="yes"/>
      <point x="562" y="1159"/>
      <point x="570" y="1221"/>
      <point x="589" y="1221" type="curve" smooth="yes"/>
      <point x="622" y="1221"/>
      <point x="765" y="1092"/>
      <point x="787" y="1066" type="curve"/>
      <point x="809" y="1092"/>
      <point x="951" y="1221"/>
      <point x="985" y="1221" type="curve" smooth="yes"/>
      <point x="1004" y="1221"/>
      <point x="1012" y="1159"/>
      <point x="1012" y="1125" type="curve" smooth="yes"/>
      <point x="1012" y="0" type="line"/>
      <point x="1312" y="0" type="line"/>
      <point x="1312" y="1170" type="line" smooth="yes"/>
      <point x="1312" y="1290"/>
      <point x="1155" y="1440"/>
      <point x="1031" y="1440" type="curve" smooth="yes"/>
      <point x="979" y="1440"/>
      <point x="930" y="1406"/>
      <point x="877" y="1365" type="curve" smooth="yes"/>
      <point x="844" y="1339"/>
      <point x="810" y="1309"/>
      <point x="787" y="1286" type="curve"/>
      <point x="765" y="1309"/>
      <point x="731" y="1339"/>
      <point x="697" y="1365" type="curve" smooth="yes"/>
      <point x="645" y="1406"/>
      <point x="592" y="1440"/>
      <point x="544" y="1440" type="curve" smooth="yes"/>
      <point x="420" y="1440"/>
      <point x="262" y="1290"/>
    </contour>
    <contour>
      <point x="667" y="290" type="curve" smooth="yes"/>
      <point x="667" y="219"/>
      <point x="613" y="179"/>
      <point x="562" y="157" type="curve"/>
      <point x="562" y="458" type="line"/>
      <point x="628" y="439"/>
      <point x="667" y="363"/>
    </contour>
    <contour>
      <point x="1792" y="1792" type="curve"/>
      <point x="1792" y="1410" type="line" smooth="yes"/>
      <point x="1792" y="1352"/>
      <point x="1768" y="1307"/>
      <point x="1735" y="1261" type="curve"/>
      <point x="1958" y="1170" type="line"/>
      <point x="2021" y="1257"/>
      <point x="2062" y="1323"/>
      <point x="2062" y="1410" type="curve" smooth="yes"/>
      <point x="2062" y="1788" type="line" smooth="yes"/>
      <point x="2062" y="1858"/>
      <point x="1892" y="1922"/>
      <point x="1809" y="1922" type="curve" smooth="yes"/>
      <point x="1738" y="1922"/>
      <point x="1708" y="1908"/>
      <point x="1681" y="1893" type="curve"/>
      <point x="1756" y="1893"/>
      <point x="1792" y="1825"/>
    </contour>
    <contour>
      <point x="1292" y="1112" type="line"/>
      <point x="1346" y="1153"/>
      <point x="1441" y="1192"/>
      <point x="1488" y="1192" type="curve" smooth="yes"/>
      <point x="1537" y="1192"/>
      <point x="1652" y="1123"/>
      <point x="1723" y="1072" type="curve" smooth="yes"/>
      <point x="1740" y="1060"/>
      <point x="1762" y="1039"/>
      <point x="1762" y="1014" type="curve" smooth="yes"/>
      <point x="1762" y="0" type="line"/>
      <point x="2062" y="0" type="line"/>
      <point x="2062" y="1063" type="line" smooth="yes"/>
      <point x="2062" y="1124"/>
      <point x="2027" y="1166"/>
      <point x="1965" y="1212" type="curve" smooth="yes"/>
      <point x="1907" y="1255"/>
      <point x="1616" y="1440"/>
      <point x="1544" y="1440" type="curve" smooth="yes"/>
      <point x="1437" y="1440"/>
      <point x="1267" y="1324"/>
      <point x="1187" y="1266" type="curve"/>
    </contour>
  </outline>
</glyph>
<glyph name="uni179817B6" format="2">
  <advance width="2250"/>
  <anchor x="1312" y="0" name="L"/>
  <anchor x="1312" y="1440" name="U"/>
  <outline>
    <contour>
      <point x="787" y="131" type="curve" smooth="yes"/>
      <point x="694" y="131"/>
      <point x="562" y="169"/>
      <point x="562" y="225" type="curve" smooth="yes"/>
      <point x="562" y="412" type="line"/>
      <point x="1012" y="412" type="line"/>
      <point x="1012" y="225" type="line" smooth="yes"/>
      <point x="1012" y="169"/>
      <point x="881" y="131"/>
    </contour>
    <contour>
      <point x="1012" y="884" type="line"/>
      <point x="1012" y="562" type="line"/>
      <point x="562" y="562" type="line"/>
      <point x="562" y="839" type="line"/>
      <point x="262" y="877" type="line"/>
      <point x="262" y="206" type="line" smooth="yes"/>
      <point x="262" y="94"/>
      <point x="562" y="0"/>
      <point x="787" y="0" type="curve" smooth="yes"/>
      <point x="1012" y="0"/>
      <point x="1312" y="94"/>
      <point x="1312" y="206" type="curve" smooth="yes"/>
      <point x="1312" y="839" type="line"/>
    </contour>
    <contour>
      <point x="562" y="745" type="line"/>
      <point x="562" y="930" type="line" smooth="yes"/>
      <point x="562" y="995"/>
      <point x="341" y="1094"/>
      <point x="221" y="1134" type="curve" smooth="yes"/>
      <point x="219" y="1135"/>
      <point x="218" y="1136"/>
      <point x="218" y="1138" type="curve"/>
      <point x="221" y="1153"/>
      <point x="228" y="1165"/>
      <point x="246" y="1177" type="curve" smooth="yes"/>
      <point x="254" y="1183"/>
      <point x="264" y="1186"/>
      <point x="274" y="1186" type="curve" smooth="yes"/>
      <point x="363" y="1186"/>
      <point x="427" y="1105"/>
      <point x="532" y="1105" type="curve" smooth="yes"/>
      <point x="608" y="1105"/>
      <point x="660" y="1260"/>
      <point x="683" y="1346" type="curve"/>
      <point x="660" y="1336"/>
      <point x="636" y="1334"/>
      <point x="613" y="1334" type="curve" smooth="yes"/>
      <point x="558" y="1334"/>
      <point x="362" y="1440"/>
      <point x="290" y="1440" type="curve" smooth="yes"/>
      <point x="206" y="1440"/>
      <point x="103" y="1165"/>
      <point x="78" y="1061" type="curve"/>
      <point x="78" y="1055"/>
      <point x="80" y="1050"/>
      <point x="85" y="1049" type="curve" smooth="yes"/>
      <point x="190" y="1037"/>
      <point x="262" y="963"/>
      <point x="262" y="919" type="curve" smooth="yes"/>
      <point x="262" y="745" type="line"/>
    </contour>
    <contour>
      <point x="1312" y="681" type="line"/>
      <point x="1312" y="910" type="line" smooth="yes"/>
      <point x="1312" y="975"/>
      <point x="1091" y="1084"/>
      <point x="971" y="1124" type="curve" smooth="yes"/>
      <point x="969" y="1125"/>
      <point x="966" y="1127"/>
      <point x="968" y="1128" type="curve" smooth="yes"/>
      <point x="1027" y="1167"/>
      <point x="1252" y="1192"/>
      <point x="1378" y="1192" type="curve" smooth="yes"/>
      <point x="1447" y="1192"/>
      <point x="1652" y="1085"/>
      <point x="1723" y="1039" type="curve" smooth="yes"/>
      <point x="1740" y="1028"/>
      <point x="1762" y="1009"/>
      <point x="1762" y="984" type="curve" smooth="yes"/>
      <point x="1762" y="0" type="line"/>
      <point x="2062" y="0" type="line"/>
      <point x="2062" y="1043" type="line" smooth="yes"/>
      <point x="2062" y="1104"/>
      <point x="2030" y="1149"/>
      <point x="1965" y="1192" type="curve" smooth="yes"/>
      <point x="1907" y="1230"/>
      <point x="1506" y="1440"/>
      <point x="1434" y="1440" type="curve" smooth="yes"/>
      <point x="1225" y="1440"/>
      <point x="1078" y="1377"/>
      <point x="966" y="1282" type="curve" smooth="yes"/>
      <point x="891" y="1218"/>
      <point x="848" y="1145"/>
      <point x="828" y="1061" type="curve"/>
      <point x="828" y="1055"/>
      <point x="830" y="1050"/>
      <point x="835" y="1049" type="curve" smooth="yes"/>
      <point x="940" y="1037"/>
      <point x="1012" y="963"/>
      <point x="1012" y="919" type="curve" smooth="yes"/>
      <point x="1012" y="681" type="line"/>
    </contour>
  </outline>
</glyph>
<glyph name="uni179A17B6" format="2">
  <advance width="1538"/>
  <anchor x="394" y="0" name="M"/>
  <anchor x="600" y="1440" name="U"/>
  <outline>
    <contour>
      <point x="300" y="742" type="line"/>
      <point x="300" y="555" type="line"/>
      <point x="170" y="532"/>
      <point x="73" y="414"/>
      <point x="73" y="290" type="curve"/>
      <point x="73" y="161"/>
      <point x="181" y="31"/>
      <point x="347" y="0" type="curve"/>
      <point x="462" y="0"/>
      <point x="570" y="32"/>
      <point x="600" y="108" type="curve"/>
      <point x="600" y="736" type="line"/>
    </contour>
    <contour>
      <point x="195" y="290" type="curve" smooth="yes"/>
      <point x="195" y="363"/>
      <point x="234" y="439"/>
      <point x="300" y="458" type="curve"/>
      <point x="300" y="157" type="line"/>
      <point x="249" y="179"/>
      <point x="195" y="219"/>
    </contour>
    <contour>
      <point x="600" y="681" type="line"/>
      <point x="600" y="910" type="line" smooth="yes"/>
      <point x="600" y="975"/>
      <point x="379" y="1084"/>
      <point x="259" y="1124" type="curve" smooth="yes"/>
      <point x="257" y="1125"/>
      <point x="254" y="1127"/>
      <point x="256" y="1128" type="curve" smooth="yes"/>
      <point x="315" y="1167"/>
      <point x="540" y="1192"/>
      <point x="666" y="1192" type="curve" smooth="yes"/>
      <point x="735" y="1192"/>
      <point x="940" y="1085"/>
      <point x="1011" y="1039" type="curve" smooth="yes"/>
      <point x="1028" y="1028"/>
      <point x="1050" y="1009"/>
      <point x="1050" y="984" type="curve" smooth="yes"/>
      <point x="1050" y="0" type="line"/>
      <point x="1350" y="0" type="line"/>
      <point x="1350" y="1043" type="line" smooth="yes"/>
      <point x="1350" y="1104"/>
      <point x="1318" y="1149"/>
      <point x="1253" y="1192" type="curve" smooth="yes"/>
      <point x="1195" y="1230"/>
      <point x="794" y="1440"/>
      <point x="722" y="1440" type="curve" smooth="yes"/>
      <point x="513" y="1440"/>
      <point x="366" y="1377"/>
      <point x="254" y="1282" type="curve" smooth="yes"/>
      <point x="179" y="1218"/>
      <point x="136" y="1145"/>
      <point x="116" y="1061" type="curve"/>
      <point x="116" y="1055"/>
      <point x="118" y="1050"/>
      <point x="123" y="1049" type="curve" smooth="yes"/>
      <point x="228" y="1037"/>
      <point x="300" y="963"/>
      <point x="300" y="919" type="curve" smooth="yes"/>
      <point x="300" y="681" type="line"/>
    </contour>
  </outline>
</glyph>
<glyph name="uni179C.spc" format="2">
  <advance width="988"/>
  <outline>
    <contour>
      <point x="380" y="292" type="curve" smooth="yes"/>
      <point x="380" y="347"/>
      <point x="452" y="382"/>
      <point x="500" y="384" type="curve"/>
      <point x="500" y="150" type="line"/>
      <point x="447" y="165"/>
      <point x="380" y="241"/>
    </contour>
    <contour>
      <point x="500" y="742" type="line"/>
      <point x="500" y="555" type="line"/>
      <point x="370" y="532"/>
      <point x="273" y="414"/>
      <point x="273" y="290" type="curve"/>
      <point x="273" y="161"/>
      <point x="381" y="31"/>
      <point x="547" y="0" type="curve"/>
      <point x="662" y="0"/>
      <point x="770" y="32"/>
      <point x="800" y="108" type="curve"/>
      <point x="800" y="736" type="line"/>
    </contour>
    <contour>
      <point x="800" y="515" type="line"/>
      <point x="800" y="910" type="line" smooth="yes"/>
      <point x="800" y="975"/>
      <point x="579" y="1084"/>
      <point x="459" y="1124" type="curve"/>
      <point x="457" y="1125"/>
      <point x="456" y="1126"/>
      <point x="456" y="1128" type="curve"/>
      <point x="459" y="1143"/>
      <point x="466" y="1165"/>
      <point x="484" y="1177" type="curve"/>
      <point x="492" y="1183"/>
      <point x="502" y="1186"/>
      <point x="512" y="1186" type="curve" smooth="yes"/>
      <point x="571" y="1186"/>
      <point x="645" y="1093"/>
      <point x="740" y="1093" type="curve" smooth="yes"/>
      <point x="857" y="1093"/>
      <point x="969" y="1215"/>
      <point x="969" y="1380" type="curve" smooth="yes"/>
      <point x="969" y="1732"/>
      <point x="756" y="1777"/>
      <point x="659" y="1777" type="curve" smooth="yes"/>
      <point x="584" y="1777"/>
      <point x="528" y="1749"/>
      <point x="528" y="1691" type="curve" smooth="yes"/>
      <point x="528" y="1631"/>
      <point x="575" y="1589"/>
      <point x="665" y="1560" type="curve" smooth="yes"/>
      <point x="764" y="1529"/>
      <point x="848" y="1494"/>
      <point x="848" y="1330" type="curve" smooth="yes"/>
      <point x="848" y="1313"/>
      <point x="842" y="1303"/>
      <point x="833" y="1303" type="curve" smooth="yes"/>
      <point x="778" y="1303"/>
      <point x="600" y="1440"/>
      <point x="528" y="1440" type="curve" smooth="yes"/>
      <point x="444" y="1440"/>
      <point x="341" y="1165"/>
      <point x="316" y="1061" type="curve"/>
      <point x="316" y="1055"/>
      <point x="318" y="1050"/>
      <point x="323" y="1049" type="curve"/>
      <point x="428" y="1037"/>
      <point x="500" y="963"/>
      <point x="500" y="919" type="curve" smooth="yes"/>
      <point x="500" y="519" type="line"/>
    </contour>
  </outline>
</glyph>
<glyph name="uni17C5.lig.right" format="2">
  <advance width="750"/>
  <anchor x="-274" y="-151" name="L"/>
  <anchor x="-274" y="1440" name="U"/>
  <outline>
    <contour>
      <point x="292" y="1792" type="curve"/>
      <point x="292" y="1410" type="line" smooth="yes"/>
      <point x="292" y="1352"/>
      <point x="268" y="1307"/>
      <point x="235" y="1261" type="curve"/>
      <point x="458" y="1170" type="line"/>
      <point x="521" y="1257"/>
      <point x="562" y="1323"/>
      <point x="562" y="1410" type="curve" smooth="yes"/>
      <point x="562" y="1788" type="line" smooth="yes"/>
      <point x="562" y="1858"/>
      <point x="392" y="1922"/>
      <point x="309" y="1922" type="curve" smooth="yes"/>
      <point x="238" y="1922"/>
      <point x="208" y="1908"/>
      <point x="181" y="1893" type="curve"/>
      <point x="256" y="1893"/>
      <point x="292" y="1825"/>
    </contour>
    <contour>
      <point x="0" y="1191" type="line"/>
      <point x="54" y="1182"/>
      <point x="157" y="1119"/>
      <point x="223" y="1072" type="curve" smooth="yes"/>
      <point x="240" y="1060"/>
      <point x="262" y="1039"/>
      <point x="262" y="1014" type="curve" smooth="yes"/>
      <point x="262" y="0" type="line"/>
      <point x="562" y="0" type="line"/>
      <point x="562" y="1063" type="line" smooth="yes"/>
      <point x="562" y="1124"/>
      <point x="527" y="1166"/>
      <point x="465" y="1212" type="curve" smooth="yes"/>
      <point x="407" y="1255"/>
      <point x="116" y="1440"/>
      <point x="44" y="1440" type="curve" smooth="yes"/>
      <point x="30" y="1440"/>
      <point x="15" y="1439"/>
      <point x="0" y="1436" type="curve"/>
    </contour>
  </outline>
</glyph>
<glyph name="uni17CA.ms.narrowhigh" format="2">
  <anchor x="-225" y="1815" name="U"/>
  <anchor x="-225" y="1440" name="_U"/>
  <outline>
    <contour>
      <point x="-499" y="1824" type="curve" smooth="yes"/>
      <point x="-462" y="1824"/>
      <point x="-431" y="1878"/>
      <point x="-412" y="1902" type="curve" smooth="yes"/>
      <point x="-388" y="1931"/>
      <point x="-359" y="1966"/>
      <point x="-328" y="1966" type="curve" smooth="yes"/>
      <point x="-259" y="1966"/>
      <point x="-186" y="1824"/>
      <point x="-101" y="1824" type="curve" smooth="yes"/>
      <point x="-20" y="1824"/>
      <point x="49" y="1959"/>
      <point x="80" y="2045" type="curve"/>
      <point x="57" y="2035"/>
      <point x="33" y="2033"/>
      <point x="10" y="2033" type="curve" smooth="yes"/>
      <point x="-55" y="2033"/>
      <point x="-200" y="2200"/>
      <point x="-272" y="2200" type="curve" smooth="yes"/>
      <point x="-296" y="2200"/>
      <point x="-333" y="2179"/>
      <point x="-367" y="2147" type="curve" smooth="yes"/>
      <point x="-394" y="2121"/>
      <point x="-424" y="2091"/>
      <point x="-452" y="2058" type="curve"/>
      <point x="-521" y="2113"/>
      <point x="-626" y="2200"/>
      <point x="-690" y="2200" type="curve" smooth="yes"/>
      <point x="-794" y="2200"/>
      <point x="-903" y="2055"/>
      <point x="-959" y="1924" type="curve" smooth="yes"/>
      <point x="-962" y="1917"/>
      <point x="-963" y="1895"/>
      <point x="-963" y="1889" type="curve" smooth="yes"/>
      <point x="-963" y="1848"/>
      <point x="-915" y="1812"/>
      <point x="-852" y="1800" type="curve"/>
      <point x="-731" y="1854" type="line"/>
      <point x="-794" y="1870"/>
      <point x="-828" y="1897"/>
      <point x="-828" y="1934" type="curve" smooth="yes"/>
      <point x="-828" y="1949"/>
      <point x="-807" y="1966"/>
      <point x="-756" y="1966" type="curve" smooth="yes"/>
      <point x="-687" y="1966"/>
      <point x="-584" y="1824"/>
    </contour>
  </outline>
</glyph>
<glyph name="uni17CE.a" format="2">
  <anchor x="-188" y="2059" name="U"/>
  <anchor x="-188" y="1440" name="_U"/>
  <outline>
    <contour>
      <point x="-469" y="1590" type="line"/>
      <point x="-469" y="1740" type="line"/>
      <point x="-319" y="1740" type="line"/>
      <point x="-319" y="1947" type="line"/>
      <point x="-469" y="1947" type="line"/>
      <point x="-469" y="2097" type="line"/>
      <point x="-731" y="2097" type="line"/>
      <point x="-731" y="1947" type="line"/>
      <point x="-881" y="1947" type="line"/>
      <point x="-881" y="1740" type="line"/>
      <point x="-731" y="1740" type="line"/>
      <point x="-731" y="1590" type="line"/>
    </contour>
  </outline>
</glyph>
<glyph name="uni17CE.narrow" format="2">
  <anchor x="-188" y="2096" name="U"/>
  <anchor x="-188" y="1440" name="_U"/>
  <outline>
    <contour>
      <point x="-207" y="1590" type="line"/>
      <point x="-207" y="1740" type="line"/>
      <point x="-57" y="1740" type="line"/>
      <point x="-57" y="1946" type="line"/>
      <point x="-207" y="1946" type="line"/>
      <point x="-207" y="2096" type="line"/>
      <point x="-469" y="2096" type="line"/>
      <point x="-469" y="1946" type="line"/>
      <point x="-619" y="1946" type="line"/>
      <point x="-619" y="1740" type="line"/>
      <point x="-469" y="1740" type="line"/>
      <point x="-469" y="1590" type="line"/>
    </contour>
  </outline>
</glyph>
<glyph name="uni17D1.a" format="2">
  <anchor x="-188" y="1777" name="U"/>
  <anchor x="-188" y="1440" name="_U"/>
  <outline>
    <contour>
      <point x="-863" y="1590" type="line"/>
      <point x="-225" y="1590" type="line"/>
      <point x="-225" y="1777" type="line"/>
      <point x="-863" y="1777" type="line"/>
    </contour>
  </outline>
</glyph>
<glyph name="uni17D21788" format="2">
  <advance width="750"/>
  <anchor x="562" y="-713" name="L"/>
  <anchor x="562" y="1440" name="U"/>
  <outline>
    <contour>
      <point x="262" y="866" type="line"/>
      <point x="262" y="-506" type="line" smooth="yes"/>
      <point x="262" y="-551"/>
      <point x="207" y="-581"/>
      <point x="147" y="-581" type="curve" smooth="yes"/>
      <point x="87" y="-581"/>
      <point x="32" y="-551"/>
      <point x="32" y="-506" type="curve" smooth="yes"/>
      <point x="32" y="-465" type="line" smooth="yes"/>
      <point x="32" y="-394"/>
      <point x="-197" y="-375"/>
      <point x="-197" y="-319" type="curve" smooth="yes"/>
      <point x="-197" y="-297"/>
      <point x="-186" y="-289"/>
      <point x="-156" y="-289" type="curve" smooth="yes"/>
      <point x="-115" y="-289"/>
      <point x="-92" y="-360"/>
      <point x="-40" y="-360" type="curve" smooth="yes"/>
      <point x="46" y="-360"/>
      <point x="95" y="-315"/>
      <point x="103" y="-180" type="curve"/>
      <point x="80" y="-207"/>
      <point x="28" y="-214"/>
      <point x="-6" y="-214" type="curve" smooth="yes"/>
      <point x="-62" y="-214"/>
      <point x="-85" y="-150"/>
      <point x="-164" y="-150" type="curve" smooth="yes"/>
      <point x="-257" y="-150"/>
      <point x="-321" y="-225"/>
      <point x="-321" y="-312" type="curve" smooth="yes"/>
      <point x="-321" y="-387"/>
      <point x="-250" y="-390"/>
      <point x="-250" y="-439" type="curve" smooth="yes"/>
      <point x="-250" y="-525" type="line" smooth="yes"/>
      <point x="-250" y="-570"/>
      <point x="-326" y="-581"/>
      <point x="-356" y="-581" type="curve" smooth="yes"/>
      <point x="-386" y="-581"/>
      <point x="-462" y="-570"/>
      <point x="-462" y="-525" type="curve" smooth="yes"/>
      <point x="-462" y="-353" type="line" smooth="yes"/>
      <point x="-462" y="-248"/>
      <point x="-640" y="-150"/>
      <point x="-850" y="-150" type="curve" smooth="yes"/>
      <point x="-1060" y="-150"/>
      <point x="-1238" y="-248"/>
      <point x="-1238" y="-353" type="curve" smooth="yes"/>
      <point x="-1238" y="-630" type="line"/>
      <point x="-1227" y="-694"/>
      <point x="-1106" y="-713"/>
      <point x="-1016" y="-713" type="curve"/>
      <point x="-903" y="-690"/>
      <point x="-828" y="-660"/>
      <point x="-828" y="-589" type="curve" smooth="yes"/>
      <point x="-828" y="-548"/>
      <point x="-873" y="-491"/>
      <point x="-956" y="-473" type="curve"/>
      <point x="-956" y="-338" type="line" smooth="yes"/>
      <point x="-956" y="-293"/>
      <point x="-880" y="-282"/>
      <point x="-850" y="-282" type="curve" smooth="yes"/>
      <point x="-820" y="-282"/>
      <point x="-744" y="-293"/>
      <point x="-744" y="-338" type="curve" smooth="yes"/>
      <point x="-744" y="-510" type="line" smooth="yes"/>
      <point x="-744" y="-615"/>
      <point x="-566" y="-713"/>
      <point x="-356" y="-713" type="curve" smooth="yes"/>
      <point x="-259" y="-713"/>
      <point x="-164" y="-683"/>
      <point x="-107" y="-653" type="curve"/>
      <point x="-51" y="-686"/>
      <point x="53" y="-713"/>
      <point x="147" y="-713" type="curve" smooth="yes"/>
      <point x="353" y="-713"/>
      <point x="562" y="-626"/>
      <point x="562" y="-533" type="curve" smooth="yes"/>
      <point x="562" y="800" type="line"/>
    </contour>
    <contour>
      <point x="562" y="665" type="line"/>
      <point x="562" y="930" type="line" smooth="yes"/>
      <point x="562" y="995"/>
      <point x="341" y="1094"/>
      <point x="221" y="1134" type="curve" smooth="yes"/>
      <point x="219" y="1135"/>
      <point x="218" y="1136"/>
      <point x="218" y="1138" type="curve"/>
      <point x="221" y="1153"/>
      <point x="228" y="1165"/>
      <point x="246" y="1177" type="curve" smooth="yes"/>
      <point x="254" y="1183"/>
      <point x="264" y="1186"/>
      <point x="274" y="1186" type="curve" smooth="yes"/>
      <point x="363" y="1186"/>
      <point x="427" y="1105"/>
      <point x="532" y="1105" type="curve" smooth="yes"/>
      <point x="608" y="1105"/>
      <point x="660" y="1260"/>
      <point x="683" y="1346" type="curve"/>
      <point x="660" y="1336"/>
      <point x="636" y="1334"/>
      <point x="613" y="1334" type="curve" smooth="yes"/>
      <point x="558" y="1334"/>
      <point x="362" y="1440"/>
      <point x="290" y="1440" type="curve" smooth="yes"/>
      <point x="206" y="1440"/>
      <point x="103" y="1165"/>
      <point x="78" y="1061" type="curve"/>
      <point x="78" y="1055"/>
      <point x="80" y="1050"/>
      <point x="85" y="1049" type="curve" smooth="yes"/>
      <point x="190" y="1037"/>
      <point x="262" y="963"/>
      <point x="262" y="919" type="curve" smooth="yes"/>
      <point x="262" y="665" type="line"/>
    </contour>
  </outline>
</glyph>
<glyph name="uni17D21788.low.alt" format="2">
  <advance width="750"/>
  <anchor x="562" y="-1238" name="L"/>
  <anchor x="562" y="1440" name="U"/>
  <outline>
    <contour>
      <point x="262" y="878" type="line"/>
      <point x="262" y="-1031" type="line" smooth="yes"/>
      <point x="262" y="-1076"/>
      <point x="207" y="-1107"/>
      <point x="147" y="-1107" type="curve" smooth="yes"/>
      <point x="87" y="-1107"/>
      <point x="32" y="-1076"/>
      <point x="32" y="-1031" type="curve" smooth="yes"/>
      <point x="32" y="-788" type="line"/>
      <point x="-250" y="-788" type="line"/>
      <point x="-250" y="-1031" type="line" smooth="yes"/>
      <point x="-250" y="-1076"/>
      <point x="-296" y="-1107"/>
      <point x="-356" y="-1107" type="curve" smooth="yes"/>
      <point x="-416" y="-1107"/>
      <point x="-462" y="-1076"/>
      <point x="-462" y="-1031" type="curve" smooth="yes"/>
      <point x="-462" y="-990" type="line" smooth="yes"/>
      <point x="-462" y="-885"/>
      <point x="-640" y="-788"/>
      <point x="-850" y="-788" type="curve" smooth="yes"/>
      <point x="-1060" y="-788"/>
      <point x="-1238" y="-885"/>
      <point x="-1238" y="-990" type="curve" smooth="yes"/>
      <point x="-1238" y="-1155" type="line"/>
      <point x="-1227" y="-1219"/>
      <point x="-1106" y="-1238"/>
      <point x="-1016" y="-1238" type="curve"/>
      <point x="-903" y="-1215"/>
      <point x="-828" y="-1185"/>
      <point x="-828" y="-1114" type="curve" smooth="yes"/>
      <point x="-828" y="-1073"/>
      <point x="-873" y="-1016"/>
      <point x="-956" y="-998" type="curve"/>
      <point x="-956" y="-975" type="line" smooth="yes"/>
      <point x="-956" y="-930"/>
      <point x="-880" y="-919"/>
      <point x="-850" y="-919" type="curve" smooth="yes"/>
      <point x="-820" y="-919"/>
      <point x="-744" y="-930"/>
      <point x="-744" y="-975" type="curve" smooth="yes"/>
      <point x="-744" y="-1058" type="line" smooth="yes"/>
      <point x="-744" y="-1163"/>
      <point x="-562" y="-1238"/>
      <point x="-356" y="-1238" type="curve" smooth="yes"/>
      <point x="-259" y="-1238"/>
      <point x="-164" y="-1208"/>
      <point x="-107" y="-1178" type="curve"/>
      <point x="-51" y="-1211"/>
      <point x="53" y="-1238"/>
      <point x="147" y="-1238" type="curve" smooth="yes"/>
      <point x="353" y="-1238"/>
      <point x="562" y="-1151"/>
      <point x="562" y="-1058" type="curve" smooth="yes"/>
      <point x="562" y="838" type="line"/>
    </contour>
    <contour>
      <point x="562" y="665" type="line"/>
      <point x="562" y="930" type="line" smooth="yes"/>
      <point x="562" y="995"/>
      <point x="341" y="1094"/>
      <point x="221" y="1134" type="curve" smooth="yes"/>
      <point x="219" y="1135"/>
      <point x="218" y="1136"/>
      <point x="218" y="1138" type="curve"/>
      <point x="221" y="1153"/>
      <point x="228" y="1165"/>
      <point x="246" y="1177" type="curve" smooth="yes"/>
      <point x="254" y="1183"/>
      <point x="264" y="1186"/>
      <point x="274" y="1186" type="curve" smooth="yes"/>
      <point x="363" y="1186"/>
      <point x="427" y="1105"/>
      <point x="532" y="1105" type="curve" smooth="yes"/>
      <point x="608" y="1105"/>
      <point x="660" y="1260"/>
      <point x="683" y="1346" type="curve"/>
      <point x="660" y="1336"/>
      <point x="636" y="1334"/>
      <point x="613" y="1334" type="curve" smooth="yes"/>
      <point x="558" y="1334"/>
      <point x="362" y="1440"/>
      <point x="290" y="1440" type="curve" smooth="yes"/>
      <point x="206" y="1440"/>
      <point x="103" y="1165"/>
      <point x="78" y="1061" type="curve"/>
      <point x="78" y="1055"/>
      <point x="80" y="1050"/>
      <point x="85" y="1049" type="curve" smooth="yes"/>
      <point x="190" y="1037"/>
      <point x="262" y="963"/>
      <point x="262" y="919" type="curve" smooth="yes"/>
      <point x="262" y="665" type="line"/>
    </contour>
  </outline>
</glyph>
<glyph name="uni17D2178D" format="2">
  <advance width="750"/>
  <anchor x="562" y="-713" name="L"/>
  <anchor x="562" y="1440" name="U"/>
  <outline>
    <contour>
      <point x="262" y="852" type="line"/>
      <point x="262" y="-491" type="line" smooth="yes"/>
      <point x="262" y="-540"/>
      <point x="236" y="-582"/>
      <point x="187" y="-582" type="curve" smooth="yes"/>
      <point x="94" y="-582"/>
      <point x="49" y="-476"/>
      <point x="-38" y="-454" type="curve"/>
      <point x="-38" y="-383" type="line" smooth="yes"/>
      <point x="-38" y="-278"/>
      <point x="-174" y="-150"/>
      <point x="-305" y="-150" type="curve" smooth="yes"/>
      <point x="-357" y="-150"/>
      <point x="-444" y="-211"/>
      <point x="-489" y="-248" type="curve"/>
      <point x="-534" y="-211"/>
      <point x="-624" y="-150"/>
      <point x="-676" y="-150" type="curve" smooth="yes"/>
      <point x="-807" y="-150"/>
      <point x="-939" y="-278"/>
      <point x="-939" y="-383" type="curve" smooth="yes"/>
      <point x="-939" y="-630" type="line"/>
      <point x="-927" y="-694"/>
      <point x="-807" y="-713"/>
      <point x="-717" y="-713" type="curve"/>
      <point x="-605" y="-690"/>
      <point x="-530" y="-660"/>
      <point x="-530" y="-589" type="curve" smooth="yes"/>
      <point x="-530" y="-548"/>
      <point x="-575" y="-491"/>
      <point x="-657" y="-473" type="curve"/>
      <point x="-657" y="-341" type="line"/>
      <point x="-620" y="-360"/>
      <point x="-519" y="-439"/>
      <point x="-489" y="-439" type="curve" smooth="yes"/>
      <point x="-459" y="-439"/>
      <point x="-357" y="-360"/>
      <point x="-320" y="-341" type="curve"/>
      <point x="-320" y="-454" type="line"/>
      <point x="-425" y="-473"/>
      <point x="-451" y="-548"/>
      <point x="-451" y="-589" type="curve" smooth="yes"/>
      <point x="-451" y="-664"/>
      <point x="-372" y="-705"/>
      <point x="-260" y="-713" type="curve"/>
      <point x="-170" y="-713"/>
      <point x="-49" y="-686"/>
      <point x="-38" y="-623" type="curve"/>
      <point x="-38" y="-585" type="line"/>
      <point x="26" y="-600"/>
      <point x="75" y="-713"/>
      <point x="217" y="-713" type="curve" smooth="yes"/>
      <point x="424" y="-713"/>
      <point x="562" y="-615"/>
      <point x="562" y="-510" type="curve" smooth="yes"/>
      <point x="562" y="841" type="line"/>
    </contour>
    <contour>
      <point x="562" y="665" type="line"/>
      <point x="562" y="930" type="line" smooth="yes"/>
      <point x="562" y="995"/>
      <point x="341" y="1094"/>
      <point x="221" y="1134" type="curve" smooth="yes"/>
      <point x="219" y="1135"/>
      <point x="218" y="1136"/>
      <point x="218" y="1138" type="curve"/>
      <point x="221" y="1153"/>
      <point x="228" y="1165"/>
      <point x="246" y="1177" type="curve" smooth="yes"/>
      <point x="254" y="1183"/>
      <point x="264" y="1186"/>
      <point x="274" y="1186" type="curve" smooth="yes"/>
      <point x="363" y="1186"/>
      <point x="427" y="1105"/>
      <point x="532" y="1105" type="curve" smooth="yes"/>
      <point x="608" y="1105"/>
      <point x="660" y="1260"/>
      <point x="683" y="1346" type="curve"/>
      <point x="660" y="1336"/>
      <point x="636" y="1334"/>
      <point x="613" y="1334" type="curve" smooth="yes"/>
      <point x="558" y="1334"/>
      <point x="362" y="1440"/>
      <point x="290" y="1440" type="curve" smooth="yes"/>
      <point x="206" y="1440"/>
      <point x="103" y="1165"/>
      <point x="78" y="1061" type="curve"/>
      <point x="78" y="1055"/>
      <point x="80" y="1050"/>
      <point x="85" y="1049" type="curve" smooth="yes"/>
      <point x="190" y="1037"/>
      <point x="262" y="963"/>
      <point x="262" y="919" type="curve" smooth="yes"/>
      <point x="262" y="665" type="line"/>
    </contour>
  </outline>
</glyph>
<glyph name="uni17D2178D17C5.right" format="2">
  <advance width="1500"/>
  <anchor x="562" y="-713" name="L"/>
  <anchor x="562" y="1440" name="U"/>
  <outline>
    <contour>
      <point x="262" y="858" type="line"/>
      <point x="262" y="-491" type="line" smooth="yes"/>
      <point x="262" y="-540"/>
      <point x="236" y="-582"/>
      <point x="187" y="-582" type="curve" smooth="yes"/>
      <point x="94" y="-582"/>
      <point x="49" y="-476"/>
      <point x="-38" y="-454" type="curve"/>
      <point x="-38" y="-383" type="line" smooth="yes"/>
      <point x="-38" y="-278"/>
      <point x="-174" y="-150"/>
      <point x="-305" y="-150" type="curve" smooth="yes"/>
      <point x="-357" y="-150"/>
      <point x="-444" y="-211"/>
      <point x="-489" y="-248" type="curve"/>
      <point x="-534" y="-211"/>
      <point x="-624" y="-150"/>
      <point x="-676" y="-150" type="curve" smooth="yes"/>
      <point x="-807" y="-150"/>
      <point x="-939" y="-278"/>
      <point x="-939" y="-383" type="curve" smooth="yes"/>
      <point x="-939" y="-630" type="line"/>
      <point x="-927" y="-694"/>
      <point x="-807" y="-713"/>
      <point x="-717" y="-713" type="curve"/>
      <point x="-605" y="-690"/>
      <point x="-530" y="-660"/>
      <point x="-530" y="-589" type="curve" smooth="yes"/>
      <point x="-530" y="-548"/>
      <point x="-575" y="-491"/>
      <point x="-657" y="-473" type="curve"/>
      <point x="-657" y="-341" type="line"/>
      <point x="-620" y="-360"/>
      <point x="-519" y="-439"/>
      <point x="-489" y="-439" type="curve" smooth="yes"/>
      <point x="-459" y="-439"/>
      <point x="-357" y="-360"/>
      <point x="-320" y="-341" type="curve"/>
      <point x="-320" y="-454" type="line"/>
      <point x="-425" y="-473"/>
      <point x="-451" y="-548"/>
      <point x="-451" y="-589" type="curve" smooth="yes"/>
      <point x="-451" y="-664"/>
      <point x="-372" y="-705"/>
      <point x="-260" y="-713" type="curve"/>
      <point x="-170" y="-713"/>
      <point x="-49" y="-686"/>
      <point x="-38" y="-623" type="curve"/>
      <point x="-38" y="-585" type="line"/>
      <point x="26" y="-600"/>
      <point x="75" y="-713"/>
      <point x="217" y="-713" type="curve" smooth="yes"/>
      <point x="424" y="-713"/>
      <point x="562" y="-615"/>
      <point x="562" y="-510" type="curve" smooth="yes"/>
      <point x="562" y="828" type="line"/>
    </contour>
    <contour>
      <point x="562" y="681" type="line"/>
      <point x="562" y="910" type="line" smooth="yes"/>
      <point x="562" y="975"/>
      <point x="341" y="1084"/>
      <point x="221" y="1124" type="curve" smooth="yes"/>
      <point x="219" y="1125"/>
      <point x="216" y="1127"/>
      <point x="218" y="1128" type="curve" smooth="yes"/>
      <point x="277" y="1167"/>
      <point x="502" y="1192"/>
      <point x="628" y="1192" type="curve" smooth="yes"/>
      <point x="697" y="1192"/>
      <point x="902" y="1085"/>
      <point x="973" y="1039" type="curve" smooth="yes"/>
      <point x="990" y="1028"/>
      <point x="1012" y="1009"/>
      <point x="1012" y="984" type="curve" smooth="yes"/>
      <point x="1012" y="0" type="line"/>
      <point x="1312" y="0" type="line"/>
      <point x="1312" y="1043" type="line" smooth="yes"/>
      <point x="1312" y="1104"/>
      <point x="1280" y="1149"/>
      <point x="1215" y="1192" type="curve" smooth="yes"/>
      <point x="1157" y="1230"/>
      <point x="756" y="1440"/>
      <point x="684" y="1440" type="curve" smooth="yes"/>
      <point x="475" y="1440"/>
      <point x="328" y="1377"/>
      <point x="216" y="1282" type="curve" smooth="yes"/>
      <point x="141" y="1218"/>
      <point x="98" y="1145"/>
      <point x="78" y="1061" type="curve"/>
      <point x="78" y="1055"/>
      <point x="80" y="1050"/>
      <point x="85" y="1049" type="curve" smooth="yes"/>
      <point x="190" y="1037"/>
      <point x="262" y="963"/>
      <point x="262" y="919" type="curve" smooth="yes"/>
      <point x="262" y="681" type="line"/>
    </contour>
    <contour>
      <point x="1042" y="1792" type="curve"/>
      <point x="1042" y="1410" type="line" smooth="yes"/>
      <point x="1042" y="1352"/>
      <point x="1018" y="1307"/>
      <point x="985" y="1261" type="curve"/>
      <point x="1208" y="1170" type="line"/>
      <point x="1271" y="1257"/>
      <point x="1312" y="1323"/>
      <point x="1312" y="1410" type="curve" smooth="yes"/>
      <point x="1312" y="1788" type="line" smooth="yes"/>
      <point x="1312" y="1858"/>
      <point x="1142" y="1922"/>
      <point x="1059" y="1922" type="curve" smooth="yes"/>
      <point x="988" y="1922"/>
      <point x="958" y="1908"/>
      <point x="931" y="1893" type="curve"/>
      <point x="1006" y="1893"/>
      <point x="1042" y="1825"/>
    </contour>
  </outline>
</glyph>
<glyph name="uni17D2179417B6" format="2">
  <advance width="1500"/>
  <anchor x="562" y="-713" name="L"/>
  <anchor x="562" y="1440" name="U"/>
  <outline>
    <contour>
      <point x="262" y="865" type="line"/>
      <point x="262" y="-522" type="line"/>
      <point x="251" y="-522"/>
      <point x="184" y="-469"/>
      <point x="142" y="-428" type="curve" smooth="yes"/>
      <point x="94" y="-383"/>
      <point x="67" y="-364"/>
      <point x="37" y="-364" type="curve" smooth="yes"/>
      <point x="7" y="-364"/>
      <point x="-34" y="-394"/>
      <point x="-82" y="-440" type="curve" smooth="yes"/>
      <point x="-124" y="-480"/>
      <point x="-176" y="-522"/>
      <point x="-188" y="-522" type="curve"/>
      <point x="-188" y="-390" type="line"/>
      <point x="-131" y="-379"/>
      <point x="-75" y="-334"/>
      <point x="-75" y="-281" type="curve" smooth="yes"/>
      <point x="-75" y="-244"/>
      <point x="-135" y="-173"/>
      <point x="-248" y="-150" type="curve"/>
      <point x="-334" y="-150"/>
      <point x="-458" y="-173"/>
      <point x="-488" y="-255" type="curve"/>
      <point x="-488" y="-630" type="line" smooth="yes"/>
      <point x="-488" y="-668"/>
      <point x="-416" y="-713"/>
      <point x="-345" y="-713" type="curve" smooth="yes"/>
      <point x="-263" y="-713" type="line" smooth="yes"/>
      <point x="-184" y="-713"/>
      <point x="-105" y="-664"/>
      <point x="-61" y="-625" type="curve" smooth="yes"/>
      <point x="-19" y="-589"/>
      <point x="22" y="-555"/>
      <point x="37" y="-555" type="curve" smooth="yes"/>
      <point x="52" y="-555"/>
      <point x="94" y="-589"/>
      <point x="135" y="-626" type="curve" smooth="yes"/>
      <point x="176" y="-664"/>
      <point x="259" y="-713"/>
      <point x="337" y="-713" type="curve" smooth="yes"/>
      <point x="420" y="-713" type="line" smooth="yes"/>
      <point x="491" y="-713"/>
      <point x="562" y="-668"/>
      <point x="562" y="-630" type="curve" smooth="yes"/>
      <point x="562" y="822" type="line"/>
    </contour>
    <contour>
      <point x="562" y="681" type="line"/>
      <point x="562" y="910" type="line" smooth="yes"/>
      <point x="562" y="975"/>
      <point x="341" y="1084"/>
      <point x="221" y="1124" type="curve" smooth="yes"/>
      <point x="219" y="1125"/>
      <point x="216" y="1127"/>
      <point x="218" y="1128" type="curve" smooth="yes"/>
      <point x="277" y="1167"/>
      <point x="502" y="1192"/>
      <point x="628" y="1192" type="curve" smooth="yes"/>
      <point x="697" y="1192"/>
      <point x="902" y="1085"/>
      <point x="973" y="1039" type="curve" smooth="yes"/>
      <point x="990" y="1028"/>
      <point x="1012" y="1009"/>
      <point x="1012" y="984" type="curve" smooth="yes"/>
      <point x="1012" y="0" type="line"/>
      <point x="1312" y="0" type="line"/>
      <point x="1312" y="1043" type="line" smooth="yes"/>
      <point x="1312" y="1104"/>
      <point x="1280" y="1149"/>
      <point x="1215" y="1192" type="curve" smooth="yes"/>
      <point x="1157" y="1230"/>
      <point x="756" y="1440"/>
      <point x="684" y="1440" type="curve" smooth="yes"/>
      <point x="475" y="1440"/>
      <point x="328" y="1377"/>
      <point x="216" y="1282" type="curve" smooth="yes"/>
      <point x="141" y="1218"/>
      <point x="98" y="1145"/>
      <point x="78" y="1061" type="curve"/>
      <point x="78" y="1055"/>
      <point x="80" y="1050"/>
      <point x="85" y="1049" type="curve" smooth="yes"/>
      <point x="190" y="1037"/>
      <point x="262" y="963"/>
      <point x="262" y="919" type="curve" smooth="yes"/>
      <point x="262" y="681" type="line"/>
    </contour>
  </outline>
</glyph>
